<svg width="110" height="80" viewBox="0 0 110 80" fill="none" xmlns="http://www.w3.org/2000/svg">
<path d="M99.058 11.8843C92.5744 7.89695 85.2422 5.497 77.6456 4.85599C76.4831 4.7576 75.3968 5.66804 75.2056 6.78381C74.9966 7.99925 75.6611 8.99091 76.7787 9.45586C79.7875 10.7077 82.796 11.9577 85.8048 13.2096C81.9936 13.9313 78.2259 14.8878 74.5323 16.0722C66.983 18.4933 59.7205 21.791 52.9885 25.9761C40.6545 33.6444 30.2072 44.1437 22.5595 56.4587C20.4977 59.7784 18.6723 63.2402 17.0498 66.7932C15.4013 70.4005 13.7936 74.1606 12.9159 78.0341C12.6931 79.0216 14.0078 79.4474 14.4112 78.5184C15.7685 75.3762 16.9266 72.159 18.3934 69.0606C19.8564 65.9706 21.5143 62.979 23.3017 60.0626C26.8638 54.2494 31.0366 48.816 35.7845 43.9111C45.958 33.4019 58.6446 25.3602 72.5411 20.7138C76.5797 19.3641 80.7108 18.2836 84.8945 17.4884C87.0352 17.0811 89.2045 16.7013 91.3747 16.4904C92.0358 16.4255 92.7001 16.3844 93.3642 16.3507C93.6815 16.4827 93.9987 16.6146 94.3142 16.747C92.2947 20.2529 90.2665 23.7532 88.2361 27.252C87.6041 28.3435 87.8389 29.7704 88.9365 30.4726C89.9574 31.1257 91.5421 30.8675 92.1726 29.7688C94.6358 25.4678 97.0987 21.165 99.5831 16.8745C99.9531 16.2343 100.015 15.573 99.8364 14.9865C99.9084 14.8581 99.9713 14.7224 100.02 14.5728C100.338 13.6003 99.9416 12.4264 99.058 11.8843Z" fill="white"/>
</svg>
