<svg width="56" height="56" viewBox="0 0 56 56" fill="none" xmlns="http://www.w3.org/2000/svg">
<path d="M31.8455 42.2426C31.0515 42.6666 30.6768 43.7564 31.5062 44.4095C32.5321 45.2165 33.9514 45.2784 35.2045 45.4703C36.5854 45.6837 37.9654 45.8948 39.3463 46.1082C41.9881 46.5132 44.7727 46.7542 47.3187 47.6226C49.1313 48.2393 51.1749 47.4285 51.5138 45.3799C51.8162 43.5439 50.1939 41.5472 48.2576 41.8474C45.5253 42.2716 42.7317 42.1119 39.9736 42.0463C38.669 42.0135 37.363 41.9839 36.0584 41.9511C34.764 41.9172 33.0201 41.6155 31.8455 42.2426Z" fill="white"/>
<path d="M33.2442 16.8651C31.7105 18.5922 30.677 20.9347 29.494 22.9257C28.3397 24.8712 26.9839 26.7969 26.0546 28.8649C25.0453 31.1122 27.9398 32.8119 29.5347 31.1126C31.0825 29.4629 32.3492 27.4619 33.7032 25.6461C35.1011 23.7691 36.804 21.9406 37.8277 19.8257C39.2287 16.9294 35.285 14.569 33.2442 16.8651Z" fill="white"/>
<path d="M6.30678 9.22833C7.36391 11.9651 8.44606 14.6946 9.54569 17.4154L11.1524 21.3891C11.7173 22.7855 12.1782 24.2565 13.291 25.364C14.2728 26.3401 16.1566 25.6752 16.349 24.4374C16.5672 23.0313 16.018 21.6087 15.6305 20.2428L14.4012 15.9021C13.6033 13.0876 12.7895 10.2747 11.9476 7.47099C10.9027 3.99101 4.96804 5.76296 6.30678 9.22833Z" fill="white"/>
</svg>
