<svg width="48" height="48" viewBox="0 0 48 48" fill="none" xmlns="http://www.w3.org/2000/svg">
<rect x="0.5" y="0.5" width="47" height="47" rx="23.5" stroke="white"/>
<path d="M33.4019 24.2344L33.102 23.9526C32.8879 23.7514 32.588 23.7514 32.3739 23.9526L24.7496 31.1173V15.983C24.7496 15.7415 24.4926 15.5 24.2356 15.5H23.8073C23.5074 15.5 23.2933 15.7415 23.2933 15.983V31.1173L15.6261 23.9526C15.412 23.7514 15.1121 23.7514 14.898 23.9526L14.5981 24.2344C14.384 24.4357 14.384 24.7174 14.5981 24.9187L23.6359 33.4116C23.8501 33.6128 24.1499 33.6128 24.3641 33.4116L33.4019 24.9187C33.616 24.7174 33.616 24.4357 33.4019 24.2344Z" fill="white"/>
</svg>
