<svg width="32" height="32" viewBox="0 0 32 32" fill="none" xmlns="http://www.w3.org/2000/svg">
<path d="M17.418 15.75L21.8438 11.3672L22.7461 10.4648C22.875 10.3359 22.875 10.1211 22.7461 9.94922L21.8008 9.00391C21.6289 8.875 21.4141 8.875 21.2852 9.00391L16 14.332L10.6719 9.00391C10.543 8.875 10.3281 8.875 10.1562 9.00391L9.21094 9.94922C9.08203 10.1211 9.08203 10.3359 9.21094 10.4648L14.5391 15.75L9.21094 21.0781C9.08203 21.207 9.08203 21.4219 9.21094 21.5938L10.1562 22.5391C10.3281 22.668 10.543 22.668 10.6719 22.5391L16 17.2109L20.3828 21.6367L21.2852 22.5391C21.4141 22.668 21.6289 22.668 21.8008 22.5391L22.7461 21.5938C22.875 21.4219 22.875 21.207 22.7461 21.0781L17.418 15.75Z" fill="#373F41"/>
</svg>
