<svg width="140" height="140" viewBox="0 0 140 140" fill="none" xmlns="http://www.w3.org/2000/svg">
<rect width="140" height="140" fill="black"/>
<rect width="140" height="140" fill="url(#paint0_radial)"/>
<path opacity="0.25" fill-rule="evenodd" clip-rule="evenodd" d="M133.536 140H70.5919L34.9193 104.327L37.7902 101.456C41.7972 105.661 47.452 108.281 53.7188 108.281H86.2813C98.4315 108.281 108.281 98.4317 108.281 86.2814V53.7191C108.281 47.4523 105.661 41.7975 101.456 37.7905L104.23 35.0166L140 70.7864V133.536L133.536 140Z" fill="url(#paint1_radial)"/>
<path fill-rule="evenodd" clip-rule="evenodd" d="M63.4375 36.0937H43.75C39.5216 36.0937 36.0938 39.5216 36.0938 43.75V96.2499C36.0938 100.478 39.5216 103.906 43.75 103.906H63.4375V36.0937ZM43.75 31.7188C37.1053 31.7188 31.7188 37.1053 31.7188 43.75V96.2499C31.7188 102.895 37.1053 108.281 43.75 108.281H63.4375H67.8125V103.906V36.0937V31.7188H63.4375H43.75ZM76.5625 36.0937H96.25C100.478 36.0937 103.906 39.5216 103.906 43.75V63.4374H76.5625V36.0937ZM72.1875 31.7188H76.5625H96.25C102.895 31.7188 108.281 37.1053 108.281 43.75V63.4374V67.8124H103.906H76.5625H72.1875V63.4374V36.0937V31.7188ZM76.5625 76.5624H103.906V96.2499C103.906 100.478 100.478 103.906 96.25 103.906H76.5625V76.5624ZM72.1875 72.1874H76.5625H103.906H108.281V76.5624V96.2499C108.281 102.895 102.895 108.281 96.25 108.281H76.5625H72.1875V103.906V76.5624V72.1874ZM45.3906 39.375C42.0683 39.375 39.375 42.0683 39.375 45.3906V94.6093C39.375 97.9316 42.0683 100.625 45.3906 100.625H60.1562V39.375H45.3906ZM80.3906 39.9219H84.7656V59.6093H80.3906V39.9219ZM92.4219 39.9219H88.0469V59.6093H92.4219V39.9219ZM96.7969 39.9219C98.6091 39.9219 100.078 41.3909 100.078 43.2031V59.6093H95.7031V39.9219H96.7969ZM84.7656 80.3905H80.3906V84.7655H84.7656V80.3905ZM95.7031 80.3905H100.078V84.7655H95.7031V80.3905ZM92.4219 80.3905H88.0469V84.7655H92.4219V80.3905ZM80.3906 88.0468H84.7656V92.4218H80.3906V88.0468ZM100.078 88.0468H95.7031V92.4218H100.078V88.0468ZM88.0469 88.0468H92.4219V92.4218H88.0469V88.0468ZM84.7656 96.2499H80.3906V100.625H84.7656V96.2499ZM95.7031 96.2499H100.078V97.3436C100.078 99.1558 98.6091 100.625 96.7969 100.625H95.7031V96.2499ZM92.4219 96.2499H88.0469V100.625H92.4219V96.2499Z" fill="white"/>
<defs>
<radialGradient id="paint0_radial" cx="0" cy="0" r="1" gradientUnits="userSpaceOnUse" gradientTransform="rotate(44.9999) scale(197.99)">
<stop stop-color="#FA966B"/>
<stop offset="1" stop-color="#F9557B"/>
</radialGradient>
<radialGradient id="paint1_radial" cx="0" cy="0" r="1" gradientUnits="userSpaceOnUse" gradientTransform="translate(-1.79639 -2.68263) rotate(45.1785) scale(201.158 201.154)">
<stop/>
<stop offset="1" stop-color="#F9557B"/>
</radialGradient>
</defs>
</svg>
