<svg width="140" height="140" viewBox="0 0 140 140" fill="none" xmlns="http://www.w3.org/2000/svg">
<rect width="140" height="140" fill="black"/>
<rect width="140" height="140" fill="url(#paint0_radial)"/>
<path opacity="0.25" fill-rule="evenodd" clip-rule="evenodd" d="M133.536 140H70.5919L34.9192 104.327L37.7901 101.456C41.7971 105.661 47.4519 108.281 53.7187 108.281H86.2812C98.4315 108.281 108.281 98.4317 108.281 86.2814V53.7191C108.281 47.4523 105.661 41.7975 101.456 37.7905L104.23 35.0166L140 70.7864V133.536L133.536 140Z" fill="url(#paint1_radial)"/>
<path fill-rule="evenodd" clip-rule="evenodd" d="M43.75 36.0937H96.25C100.478 36.0937 103.906 39.5216 103.906 43.75V96.2499C103.906 100.478 100.478 103.906 96.25 103.906H43.75C39.5216 103.906 36.0938 100.478 36.0938 96.2499V43.75C36.0938 39.5216 39.5216 36.0937 43.75 36.0937ZM31.7188 43.75C31.7188 37.1053 37.1053 31.7188 43.75 31.7188H96.25C102.895 31.7188 108.281 37.1053 108.281 43.75V96.2499C108.281 102.895 102.895 108.281 96.25 108.281H43.75C37.1053 108.281 31.7188 102.895 31.7188 96.2499V43.75ZM51.9531 46.2109C51.9531 49.3822 49.3823 51.9531 46.2109 51.9531C43.0396 51.9531 40.4688 49.3822 40.4688 46.2109C40.4688 43.0396 43.0396 40.4687 46.2109 40.4687C49.3823 40.4687 51.9531 43.0396 51.9531 46.2109ZM67.8125 46.2109C67.8125 49.3822 65.2416 51.9531 62.0703 51.9531C58.899 51.9531 56.3281 49.3822 56.3281 46.2109C56.3281 43.0396 58.899 40.4687 62.0703 40.4687C65.2416 40.4687 67.8125 43.0396 67.8125 46.2109ZM77.9297 51.9531C81.101 51.9531 83.6719 49.3822 83.6719 46.2109C83.6719 43.0396 81.101 40.4687 77.9297 40.4687C74.7584 40.4687 72.1875 43.0396 72.1875 46.2109C72.1875 49.3822 74.7584 51.9531 77.9297 51.9531ZM99.5312 46.2109C99.5312 49.3822 96.9604 51.9531 93.7891 51.9531C90.6177 51.9531 88.0469 49.3822 88.0469 46.2109C88.0469 43.0396 90.6177 40.4687 93.7891 40.4687C96.9604 40.4687 99.5312 43.0396 99.5312 46.2109ZM46.2109 67.8124C49.3823 67.8124 51.9531 65.2416 51.9531 62.0703C51.9531 58.8989 49.3823 56.3281 46.2109 56.3281C43.0396 56.3281 40.4688 58.8989 40.4688 62.0703C40.4688 65.2416 43.0396 67.8124 46.2109 67.8124ZM67.8125 62.0703C67.8125 65.2416 65.2416 67.8124 62.0703 67.8124C58.899 67.8124 56.3281 65.2416 56.3281 62.0703C56.3281 58.8989 58.899 56.3281 62.0703 56.3281C65.2416 56.3281 67.8125 58.8989 67.8125 62.0703ZM77.9297 67.8124C81.101 67.8124 83.6719 65.2416 83.6719 62.0703C83.6719 58.8989 81.101 56.3281 77.9297 56.3281C74.7584 56.3281 72.1875 58.8989 72.1875 62.0703C72.1875 65.2416 74.7584 67.8124 77.9297 67.8124ZM99.5312 62.0703C99.5312 65.2416 96.9604 67.8124 93.7891 67.8124C90.6177 67.8124 88.0469 65.2416 88.0469 62.0703C88.0469 58.8989 90.6177 56.3281 93.7891 56.3281C96.9604 56.3281 99.5312 58.8989 99.5312 62.0703ZM46.2109 83.6718C49.3823 83.6718 51.9531 81.1009 51.9531 77.9296C51.9531 74.7583 49.3823 72.1874 46.2109 72.1874C43.0396 72.1874 40.4688 74.7583 40.4688 77.9296C40.4688 81.1009 43.0396 83.6718 46.2109 83.6718ZM67.8125 77.9296C67.8125 81.1009 65.2416 83.6718 62.0703 83.6718C58.899 83.6718 56.3281 81.1009 56.3281 77.9296C56.3281 74.7583 58.899 72.1874 62.0703 72.1874C65.2416 72.1874 67.8125 74.7583 67.8125 77.9296ZM77.9297 83.6718C81.101 83.6718 83.6719 81.1009 83.6719 77.9296C83.6719 74.7583 81.101 72.1874 77.9297 72.1874C74.7584 72.1874 72.1875 74.7583 72.1875 77.9296C72.1875 81.1009 74.7584 83.6718 77.9297 83.6718ZM99.5312 77.9296C99.5312 81.1009 96.9604 83.6718 93.7891 83.6718C90.6177 83.6718 88.0469 81.1009 88.0469 77.9296C88.0469 74.7583 90.6177 72.1874 93.7891 72.1874C96.9604 72.1874 99.5312 74.7583 99.5312 77.9296ZM46.2109 99.5311C49.3823 99.5311 51.9531 96.9603 51.9531 93.7889C51.9531 90.6176 49.3823 88.0468 46.2109 88.0468C43.0396 88.0468 40.4688 90.6176 40.4688 93.7889C40.4688 96.9603 43.0396 99.5311 46.2109 99.5311ZM67.8125 93.7889C67.8125 96.9603 65.2416 99.5311 62.0703 99.5311C58.899 99.5311 56.3281 96.9603 56.3281 93.7889C56.3281 90.6176 58.899 88.0468 62.0703 88.0468C65.2416 88.0468 67.8125 90.6176 67.8125 93.7889ZM77.9297 99.5311C81.101 99.5311 83.6719 96.9603 83.6719 93.7889C83.6719 90.6176 81.101 88.0468 77.9297 88.0468C74.7584 88.0468 72.1875 90.6176 72.1875 93.7889C72.1875 96.9603 74.7584 99.5311 77.9297 99.5311ZM99.5312 93.7889C99.5312 96.9603 96.9604 99.5311 93.7891 99.5311C90.6177 99.5311 88.0469 96.9603 88.0469 93.7889C88.0469 90.6176 90.6177 88.0468 93.7891 88.0468C96.9604 88.0468 99.5312 90.6176 99.5312 93.7889Z" fill="white"/>
<defs>
<radialGradient id="paint0_radial" cx="0" cy="0" r="1" gradientUnits="userSpaceOnUse" gradientTransform="rotate(44.9999) scale(197.99)">
<stop offset="0.0533829" stop-color="#FFDC84"/>
<stop offset="0.948567" stop-color="#FFA95A"/>
</radialGradient>
<radialGradient id="paint1_radial" cx="0" cy="0" r="1" gradientUnits="userSpaceOnUse" gradientTransform="translate(-1.79645 -2.68263) rotate(45.1785) scale(201.158 201.154)">
<stop/>
<stop offset="1" stop-color="#FAB15E"/>
</radialGradient>
</defs>
</svg>
