<svg width="256" height="256" viewBox="0 0 256 256" fill="none" xmlns="http://www.w3.org/2000/svg">
<rect width="256" height="256" fill="black"/>
<rect x="7.62939e-06" width="256" height="256" fill="url(#paint0_radial)"/>
<path opacity="0.25" fill-rule="evenodd" clip-rule="evenodd" d="M201.998 101.001C201.998 95.2036 199.756 89.9302 196.092 86.0005H196.328L255.998 145.671V244.182L244.18 256H145.727L60 170.273V170.102C64.011 174.35 69.695 177.001 75.9981 177.001H179.998C192.148 177.001 201.998 167.151 201.998 155.001V101.001Z" fill="url(#paint1_radial)"/>
<path fill-rule="evenodd" clip-rule="evenodd" d="M76 87H180C187.732 87 194 93.268 194 101V155C194 162.732 187.732 169 180 169H76C68.268 169 62 162.732 62 155V101C62 93.268 68.268 87 76 87ZM54 101C54 88.8497 63.8497 79 76 79H180C192.15 79 202 88.8497 202 101V155C202 167.15 192.15 177 180 177H76C63.8497 177 54 167.15 54 155V101ZM84 101C79.5817 101 76 104.582 76 109V147C76 151.418 79.5817 155 84 155H172C176.418 155 180 151.418 180 147V109C180 104.582 176.418 101 172 101H84ZM104 144C112.837 144 120 136.837 120 128C120 119.163 112.837 112 104 112C95.1634 112 88 119.163 88 128C88 136.837 95.1634 144 104 144ZM168 128C168 136.837 160.837 144 152 144C143.163 144 136 136.837 136 128C136 119.163 143.163 112 152 112C160.837 112 168 119.163 168 128ZM40 114C40 112.895 40.8954 112 42 112H48V144H42C40.8954 144 40 143.105 40 142V114ZM214 144C215.105 144 216 143.105 216 142V114C216 112.895 215.105 112 214 112H208V144H214Z" fill="white"/>
<defs>
<radialGradient id="paint0_radial" cx="0" cy="0" r="1" gradientUnits="userSpaceOnUse" gradientTransform="rotate(45) scale(362.039)">
<stop offset="0.0533829" stop-color="#83DA8B"/>
<stop offset="0.948567" stop-color="#2EBB80"/>
</radialGradient>
<radialGradient id="paint1_radial" cx="0" cy="0" r="1" gradientUnits="userSpaceOnUse" gradientTransform="translate(3.05869 10.5978) rotate(44.1333) scale(352.423 352.262)">
<stop/>
<stop offset="1" stop-color="#498B5D"/>
</radialGradient>
</defs>
</svg>
