<svg width="24" height="17" viewBox="0 0 24 17" fill="none" xmlns="http://www.w3.org/2000/svg">
<path fill-rule="evenodd" clip-rule="evenodd" d="M11.5006 0.5C11.5006 0 11.5005 0 11.5005 0L11.5002 2.98023e-08L11.4992 2.38419e-07L11.4953 1.75834e-06L11.4803 1.39177e-05L11.4218 0.000110328C11.3706 0.000220299 11.2955 0.000439912 11.1993 0.000878543C11.007 0.00175568 10.7305 0.00350896 10.3935 0.00701368C9.71963 0.0140211 8.80263 0.0280395 7.83113 0.0561016C6.86041 0.0841411 5.83138 0.126308 4.93459 0.189891C4.05145 0.252506 3.25534 0.338298 2.77477 0.46323L2.77476 0.463182L2.76799 0.465043C2.2146 0.617231 1.71075 0.909094 1.30799 1.31271C0.905135 1.71642 0.617696 2.2177 0.476366 2.76657C0.473516 2.77764 0.471045 2.78881 0.46896 2.80005C0.14862 4.52676 -0.00817406 6.27844 0.000563592 8.03307C-0.0106729 9.80092 0.146133 11.566 0.468964 13.3057C0.472052 13.3223 0.475983 13.3388 0.480741 13.355C0.63651 13.8867 0.930269 14.3688 1.33207 14.7553C1.73378 15.1418 2.22995 15.4198 2.77205 15.564L2.77477 15.5647C3.25534 15.6896 4.05145 15.7754 4.93459 15.8381C5.83138 15.9016 6.86041 15.9438 7.83113 15.9718C8.80263 15.9999 9.71963 16.0139 10.3935 16.0209C10.7305 16.0244 11.007 16.0262 11.1993 16.0271C11.2955 16.0275 11.3706 16.0277 11.4218 16.0278L11.4803 16.0279L11.4953 16.0279L11.4992 16.0279H11.5002H11.5005C11.5005 16.0279 11.5006 16.0279 11.5006 15.5279C11.5006 16.0279 11.5006 16.0279 11.5007 16.0279H11.5009H11.502L11.5058 16.0279L11.5209 16.0279L11.5793 16.0278C11.6305 16.0277 11.7057 16.0275 11.8018 16.0271C11.9942 16.0262 12.2706 16.0244 12.6076 16.0209C13.2815 16.0139 14.1985 15.9999 15.17 15.9718C16.1407 15.9438 17.1698 15.9016 18.0666 15.8381C18.9497 15.7754 19.7458 15.6896 20.2264 15.5647L20.2264 15.5648L20.2332 15.5629C20.7865 15.4107 21.2904 15.1189 21.6932 14.7152C22.096 14.3115 22.3834 13.8102 22.5248 13.2614L22.527 13.2525C22.5289 13.2443 22.5307 13.2361 22.5322 13.2279C22.8501 11.5141 23.0068 9.77572 23.0006 8.03424C23.0118 6.26623 22.855 4.50102 22.5322 2.76114L22.0406 2.85237L22.5248 2.72769C22.3834 2.17882 22.096 1.67753 21.6932 1.27383C21.2904 0.870212 20.7865 0.578349 20.2332 0.426161C20.2275 0.4246 20.2218 0.423139 20.216 0.421779C19.7394 0.308635 18.9468 0.230462 18.0635 0.17328C17.1676 0.115282 16.1392 0.0768006 15.1688 0.0512066C14.1976 0.0255939 13.2809 0.0127981 12.6072 0.00640166C12.2703 0.00320259 11.9939 0.00160232 11.8016 0.000801712L11.5792 0.000100642L11.5208 1.26958e-05L11.5058 1.60933e-06L11.5019 2.08616e-07L11.5009 2.98023e-08L11.5007 0C11.5006 0 11.5006 0 11.5006 0.5ZM11.5006 0.5L11.5005 1H11.5003L11.4994 1L11.4958 1L11.4813 1.00001L11.424 1.00011C11.3735 1.00022 11.2992 1.00043 11.2039 1.00087C11.0132 1.00174 10.7387 1.00348 10.4039 1.00696C9.73402 1.01393 8.82351 1.02785 7.86001 1.05568C6.89573 1.08354 5.88227 1.12521 5.00531 1.18739C4.11735 1.25034 3.41003 1.33193 3.02977 1.43018C2.643 1.53717 2.29354 1.74079 2.01585 2.01907C1.74137 2.29413 1.54658 2.63245 1.44891 3.00013C1.14206 4.66029 0.991992 6.34421 1.00057 8.03087L1.00059 8.03664L1.00056 8.03664C0.989603 9.73318 1.13915 11.4271 1.44734 13.0971C1.55517 13.4503 1.75342 13.7731 2.02536 14.0347C2.30299 14.3018 2.64799 14.496 3.0277 14.5972C3.40745 14.6957 4.11573 14.7775 5.00531 14.8406C5.88227 14.9027 6.89573 14.9444 7.86001 14.9723C8.82351 15.0001 9.73402 15.014 10.4039 15.021C10.7387 15.0245 11.0132 15.0262 11.2039 15.0271C11.2992 15.0275 11.3735 15.0277 11.424 15.0278L11.4813 15.0279L11.4958 15.0279L11.4994 15.0279H11.5003H11.5005L11.5006 15.5279L11.5006 15.0279H11.5008H11.5017L11.5053 15.0279L11.5198 15.0279L11.5772 15.0278C11.6276 15.0277 11.702 15.0275 11.7973 15.0271C11.9879 15.0262 12.2624 15.0245 12.5972 15.021C13.2671 15.014 14.1776 15.0001 15.1411 14.9723C16.1054 14.9444 17.1189 14.9027 17.9958 14.8406C18.8838 14.7776 19.5911 14.696 19.9714 14.5978C20.3582 14.4908 20.7076 14.2872 20.9853 14.0089C21.2598 13.7338 21.4546 13.3955 21.5522 13.0278C21.8567 11.3802 22.0068 9.70918 22.0006 8.03526L22.0006 8.03019H22.0006C22.0116 6.33077 21.8615 4.63397 21.5522 2.96125C21.4546 2.59357 21.2598 2.25524 20.9853 1.98018C20.7088 1.70313 20.3612 1.50008 19.9765 1.39271C19.5911 1.30264 18.8827 1.2284 17.9989 1.17119C17.1211 1.11437 16.107 1.0763 15.1424 1.05086C14.1785 1.02544 13.2678 1.01272 12.5977 1.00636C12.2628 1.00318 11.9882 1.00159 11.7975 1.00079L11.5773 1.0001L11.5199 1.00001L11.5053 1L11.5017 1L11.5008 1H11.5006L11.5006 0.5ZM9.49239 4.41719C9.33751 4.33157 9.1489 4.3342 8.99647 4.42411C8.84404 4.51402 8.75049 4.67781 8.75049 4.85478V11.212C8.75049 11.389 8.84404 11.5528 8.99647 11.6427C9.1489 11.7326 9.33751 11.7352 9.49239 11.6496L15.2424 8.47099C15.4016 8.38295 15.5005 8.21536 15.5005 8.0334C15.5005 7.85144 15.4016 7.68384 15.2424 7.59581L9.49239 4.41719ZM13.967 8.0334L9.75049 10.3643V5.70249L13.967 8.0334Z" fill="white"/>
</svg>