<svg width="21" height="20" viewBox="0 0 21 20" fill="none" xmlns="http://www.w3.org/2000/svg">
<path fill-rule="evenodd" clip-rule="evenodd" d="M1 2.5C1 1.67157 1.67157 1 2.5 1C3.32843 1 4 1.67157 4 2.5C4 3.32843 3.32843 4 2.5 4C1.67157 4 1 3.32843 1 2.5ZM2.5 0C1.11929 0 0 1.11929 0 2.5C0 3.88071 1.11929 5 2.5 5C3.88071 5 5 3.88071 5 2.5C5 1.11929 3.88071 0 2.5 0ZM14.5 7C13.0413 7 11.6424 7.57946 10.6109 8.61091C9.57946 9.64236 9 11.0413 9 12.5V19H12V12.5C12 11.837 12.2634 11.2011 12.7322 10.7322C13.2011 10.2634 13.837 10 14.5 10C15.163 10 15.7989 10.2634 16.2678 10.7322C16.7366 11.2011 17 11.837 17 12.5V19H20V12.5C20 11.0413 19.4205 9.64236 18.3891 8.61091C17.3576 7.57946 15.9587 7 14.5 7ZM14.5 6C12.7761 6 11.1228 6.68482 9.90381 7.90381C8.68482 9.12279 8 10.7761 8 12.5V19.5C8 19.7761 8.22386 20 8.5 20H12.5C12.7761 20 13 19.7761 13 19.5V12.5C13 12.1022 13.158 11.7206 13.4393 11.4393C13.7206 11.158 14.1022 11 14.5 11C14.8978 11 15.2794 11.158 15.5607 11.4393C15.842 11.7206 16 12.1022 16 12.5V19.5C16 19.7761 16.2239 20 16.5 20H20.5C20.7761 20 21 19.7761 21 19.5V12.5C21 10.7761 20.3152 9.12279 19.0962 7.90381C17.8772 6.68482 16.2239 6 14.5 6ZM0 7.5C0 7.22386 0.223858 7 0.5 7H4.5C4.77614 7 5 7.22386 5 7.5V19.5C5 19.7761 4.77614 20 4.5 20H0.5C0.223858 20 0 19.7761 0 19.5V7.5ZM1 8V19H4V8H1Z" fill="white"/>
</svg>
