<svg width="21" height="21" viewBox="0 0 21 21" fill="none" xmlns="http://www.w3.org/2000/svg">
<path fill-rule="evenodd" clip-rule="evenodd" d="M5.25059 1C2.90306 1 1 2.90306 1 5.25059V14.7518C1 17.0993 2.90306 19.0024 5.25059 19.0024H14.7518C17.0993 19.0024 19.0024 17.0993 19.0024 14.7518V5.25059C19.0024 2.90306 17.0993 1 14.7518 1H5.25059ZM0 5.25059C0 2.35077 2.35077 0 5.25059 0H14.7518C17.6516 0 20.0024 2.35077 20.0024 5.25059V14.7518C20.0024 17.6516 17.6516 20.0024 14.7518 20.0024H5.25059C2.35077 20.0024 0 17.6516 0 14.7518V5.25059ZM10.5264 6.69532C9.83969 6.5935 9.13837 6.71079 8.52217 7.03052C7.90597 7.35025 7.40628 7.85615 7.09417 8.47624C6.78206 9.09633 6.67342 9.79905 6.78371 10.4844C6.894 11.1698 7.2176 11.803 7.70848 12.2939C8.19936 12.7848 8.83253 13.1084 9.51792 13.2187C10.2033 13.3289 10.906 13.2203 11.5261 12.9082C12.1462 12.5961 12.6521 12.0964 12.9718 11.4802C13.2916 10.864 13.4089 10.1627 13.307 9.47597C13.2032 8.77551 12.8768 8.12703 12.3761 7.62631C11.8753 7.12559 11.2269 6.79919 10.5264 6.69532ZM8.0616 6.1429C8.8645 5.72629 9.77832 5.57346 10.6731 5.70614C11.5858 5.84148 12.4307 6.26678 13.0832 6.9192C13.7356 7.57163 14.1609 8.4166 14.2962 9.32929C14.4289 10.2241 14.2761 11.1379 13.8595 11.9408C13.4429 12.7437 12.7837 13.3948 11.9757 13.8014C11.1677 14.2081 10.2521 14.3497 9.35905 14.206C8.46599 14.0623 7.64099 13.6406 7.00137 13.001C6.36176 12.3614 5.94012 11.5364 5.79641 10.6433C5.65271 9.75026 5.79426 8.83462 6.20094 8.02665C6.60761 7.21868 7.2587 6.55951 8.0616 6.1429ZM15.2269 4.27547C14.9507 4.27547 14.7269 4.49932 14.7269 4.77547C14.7269 5.05161 14.9507 5.27547 15.2269 5.27547H15.2369C15.513 5.27547 15.7369 5.05161 15.7369 4.77547C15.7369 4.49932 15.513 4.27547 15.2369 4.27547H15.2269Z" fill="white"/>
</svg>
