<svg width="111" height="79" viewBox="0 0 111 79" fill="none" xmlns="http://www.w3.org/2000/svg">
<path d="M11.6751 11.3906C18.1587 7.4033 25.491 5.00335 33.0876 4.36234C34.25 4.26395 35.3364 5.17439 35.5275 6.29015C35.7366 7.5056 35.0721 8.49726 33.9544 8.96221C30.9456 10.214 27.9372 11.4641 24.9284 12.7159C28.7396 13.4377 32.5072 14.3941 36.2008 15.5786C43.7502 17.9996 51.0127 21.2973 57.7446 25.4825C70.0787 33.1507 80.5259 43.65 88.1737 55.965C90.2355 59.2848 92.0608 62.7466 93.6834 66.2995C95.3318 69.9069 96.9396 73.6669 97.8172 77.5405C98.04 78.5279 96.7253 78.9538 96.3219 78.0247C94.9646 74.8825 93.8065 71.6654 92.3397 68.567C90.8767 65.477 89.2188 62.4854 87.4314 59.5689C83.8694 53.7557 79.6966 48.3223 74.9487 43.4175C64.7752 32.9082 52.0885 24.8666 38.1921 20.2201C34.1534 18.8705 30.0223 17.79 25.8386 16.9947C23.6979 16.5874 21.5286 16.2077 19.3585 15.9968C18.6974 15.9319 18.033 15.8907 17.3689 15.8571C17.0517 15.989 16.7344 16.121 16.419 16.2533C18.4384 19.7592 20.4666 23.2595 22.497 26.7584C23.1291 27.8499 22.8942 29.2767 21.7967 29.9789C20.7758 30.632 19.1911 30.3738 18.5606 29.2752C16.0973 24.9742 13.6345 20.6714 11.1501 16.3808C10.7801 15.7407 10.7183 15.0794 10.8968 14.4928C10.8247 14.3645 10.7618 14.2287 10.7133 14.0792C10.3948 13.1066 10.7915 11.9328 11.6751 11.3906Z" fill="white"/>
</svg>
