<svg width="56" height="56" viewBox="0 0 56 56" fill="none" xmlns="http://www.w3.org/2000/svg">
<path d="M36.3363 22.9713C36.9514 23.6286 38.1011 23.7084 38.5172 22.7382C39.0312 21.5384 38.7237 20.1515 38.5847 18.8914C38.4335 17.5023 38.2801 16.1147 38.1289 14.7256C37.8364 12.0689 37.3484 9.31693 37.5282 6.63294C37.6548 4.72241 36.3427 2.95833 34.2762 3.16117C32.4245 3.3443 30.9157 5.42809 31.7069 7.22073C32.8237 9.75013 33.3926 12.4899 34.043 15.171C34.349 16.4396 34.6585 17.7087 34.9644 18.9774C35.2666 20.2364 35.4266 21.999 36.3363 22.9713Z" fill="white"/>
<path d="M15.9235 23.2432C17.5657 24.8675 19.8492 26.0254 21.7738 27.3137C23.6543 28.571 25.5043 30.0283 27.5195 31.0675C29.7092 32.1961 31.5621 29.3972 29.9509 27.7133C28.3869 26.079 26.4568 24.7066 24.7165 23.2569C22.9174 21.7601 21.1831 19.9614 19.1263 18.8254C16.3094 17.2707 13.7404 21.0819 15.9235 23.2432Z" fill="white"/>
<path d="M13.8805 51.7011C16.5386 50.4593 19.1877 49.1931 21.827 47.9099L25.6815 46.0352C27.036 45.3762 28.472 44.8158 29.5007 43.6298C30.4075 42.5836 29.6153 40.7496 28.3673 40.6424C26.9495 40.5209 25.5678 41.1661 24.2316 41.6461L19.9851 43.1693C17.2317 44.1577 14.4812 45.1621 11.7415 46.1937C8.34116 47.4741 10.5148 53.2737 13.8805 51.7011Z" fill="white"/>
</svg>
