<svg width="88" height="75" viewBox="0 0 88 75" fill="none" xmlns="http://www.w3.org/2000/svg">
<path d="M1.72248 7.3904C8.20609 3.40305 15.5383 1.00311 23.135 0.362097C24.2974 0.263702 25.3837 1.17414 25.5749 2.28991C25.784 3.50535 25.1194 4.49702 24.0018 4.96196C20.993 6.2138 17.9846 7.46384 14.9757 8.71567C18.7869 9.43742 22.5546 10.3939 26.2482 11.5783C33.7975 13.9994 41.06 17.2971 47.792 21.4822C60.126 29.1505 70.5733 39.6498 78.221 51.9648C80.2828 55.2845 82.1082 58.7464 83.7307 62.2993C85.3792 65.9067 86.9869 69.6667 87.8646 73.5402C88.0874 74.5277 86.7727 74.9535 86.3693 74.0245C85.012 70.8823 83.8539 67.6651 82.3871 64.5667C80.9241 61.4767 79.2662 58.4851 77.4788 55.5687C73.9167 49.7555 69.7439 44.3221 64.996 39.4172C54.8226 28.908 42.1359 20.8663 28.2394 16.2199C24.2008 14.8702 20.0697 13.7897 15.886 12.9945C13.7453 12.5872 11.576 12.2074 9.40583 11.9965C8.74475 11.9316 8.0804 11.8905 7.4163 11.8568C7.09904 11.9888 6.7818 12.1207 6.46634 12.2531C8.48579 15.759 10.514 19.2593 12.5444 22.7581C13.1765 23.8496 12.9416 25.2765 11.844 25.9787C10.8231 26.6318 9.23845 26.3736 8.60792 25.2749C6.14468 20.9739 3.68183 16.6711 1.19745 12.3806C0.82743 11.7405 0.765669 11.0791 0.944146 10.4926C0.872094 10.3642 0.809202 10.2285 0.760622 10.0789C0.442155 9.10638 0.838878 7.93253 1.72248 7.3904Z" fill="white"/>
</svg>
