<svg width="57" height="70" viewBox="0 0 57 70" fill="none" xmlns="http://www.w3.org/2000/svg">
<path d="M40.2816 1.42625C39.3549 3.4117 38.1512 5.25935 37.128 7.19913C36.1047 9.13891 35.1679 11.1245 34.2418 13.1124C32.3794 17.1163 30.6368 21.1955 28.9794 25.2876C25.6664 33.4687 22.7526 41.8341 20.0701 50.2423C19.9518 50.6112 19.8335 50.9801 19.7158 51.3514C19.2089 47.7243 18.5413 44.1172 17.6898 40.539C17.2859 38.8411 15.3856 37.8124 13.7338 38.255C11.9962 38.7206 11.0518 40.5064 11.4498 42.211C13.1677 49.6138 14.208 57.1956 14.3198 64.8014C14.3439 66.4069 15.613 67.8066 17.0983 68.106C18.2463 68.8151 19.8013 68.8506 20.9256 67.6885C22.37 66.1953 23.8143 64.7021 25.261 63.2083C29.4476 59.7363 33.2202 55.8157 36.5916 51.4943C36.6099 51.4766 36.6275 51.4566 36.6434 51.4396C36.6403 51.4378 36.6397 51.4354 36.6367 51.4337C36.8154 51.2044 36.9947 50.9775 37.1704 50.7465C38.1835 49.4174 37.4859 47.2618 36.2719 46.3634C34.9566 45.3926 32.9771 45.384 31.8049 46.6535C29.3836 49.277 26.9616 51.8981 24.5403 54.5216C24.6138 54.2337 24.6874 53.9457 24.7664 53.6589C25.8853 49.4735 27.0752 45.3049 28.3348 41.1584C30.8699 32.8102 33.6623 24.5258 36.635 16.3235C37.4611 14.0482 38.3057 11.7756 39.0974 9.48661C39.9354 7.06511 40.5581 4.51735 41.5738 2.16828C41.943 1.30553 40.69 0.547879 40.2816 1.42625Z" fill="white"/>
</svg>
