<svg width="264" height="132" viewBox="0 0 264 132" fill="none" xmlns="http://www.w3.org/2000/svg">
<path d="M140.128 83.4824C139.664 84.9835 138.851 86.1055 137.69 86.8483C136.53 87.5757 135.176 87.9393 133.628 87.9393C132.112 87.9393 130.796 87.6221 129.682 86.9876C128.583 86.3531 127.732 85.4478 127.128 84.2716C126.54 83.0955 126.246 81.6872 126.246 80.0468C126.246 78.4064 126.548 76.9981 127.152 75.822C127.755 74.6459 128.606 73.7405 129.705 73.106C130.804 72.4715 132.096 72.1543 133.582 72.1543C135.145 72.1543 136.483 72.487 137.598 73.1525C138.727 73.8024 139.501 74.7929 139.919 76.1238L137.017 77.3541C136.754 76.4255 136.352 75.7678 135.81 75.3809C135.269 74.9786 134.572 74.7774 133.721 74.7774C132.452 74.7774 131.438 75.2339 130.68 76.147C129.937 77.0446 129.566 78.3445 129.566 80.0468C129.566 81.7337 129.922 83.0336 130.634 83.9467C131.345 84.8597 132.375 85.3162 133.721 85.3162C134.557 85.3162 135.276 85.0918 135.88 84.6431C136.499 84.1943 136.932 83.5133 137.18 82.6003L140.128 83.4824Z" fill="#2B2E34"/>
<path d="M146.572 87.9393C145.798 87.9393 145.102 87.8001 144.483 87.5215C143.864 87.2429 143.369 86.8019 142.997 86.1983C142.641 85.5948 142.463 84.7978 142.463 83.8074V76.1006H145.644V83.0413C145.644 83.9389 145.829 84.5657 146.201 84.9216C146.572 85.2621 147.106 85.4323 147.803 85.4323C148.468 85.4323 149.056 85.1924 149.567 84.7127C150.093 84.2175 150.356 83.4282 150.356 82.3449V76.1006H153.536V87.7072H150.704L150.588 85.6877C150.201 86.446 149.667 87.0108 148.986 87.3822C148.306 87.7536 147.501 87.9393 146.572 87.9393Z" fill="#2B2E34"/>
<path d="M160.063 76.1006V87.7072H156.883V76.1006H160.063Z" fill="#2B2E34"/>
<path d="M168.077 87.9393C166.901 87.9393 165.825 87.7304 164.85 87.3126C163.891 86.8947 163.109 86.3067 162.506 85.5484L164.339 83.6913C164.711 84.2484 165.206 84.705 165.825 85.0609C166.444 85.4168 167.179 85.5948 168.03 85.5948C168.634 85.5948 169.114 85.5097 169.47 85.3395C169.841 85.1537 170.027 84.8675 170.027 84.4806C170.027 84.233 169.942 84.024 169.771 83.8538C169.601 83.6681 169.261 83.5211 168.75 83.4127L166.707 82.9949C165.361 82.7164 164.401 82.2985 163.829 81.7414C163.272 81.1688 162.993 80.4337 162.993 79.5361C162.993 78.9016 163.179 78.3058 163.55 77.7487C163.937 77.1916 164.51 76.7428 165.268 76.4023C166.026 76.0464 166.97 75.8684 168.1 75.8684C170.452 75.8684 172.139 76.588 173.161 78.0273L171.257 79.8843C170.917 79.3427 170.468 78.9326 169.911 78.654C169.369 78.36 168.796 78.213 168.193 78.213C166.831 78.213 166.15 78.5921 166.15 79.3504C166.15 79.598 166.258 79.8147 166.475 80.0004C166.692 80.1706 167.086 80.3176 167.659 80.4414L170.027 80.9289C171.172 81.1611 171.992 81.5557 172.487 82.1128C172.983 82.6544 173.23 83.3122 173.23 84.0859C173.23 85.2002 172.781 86.121 171.884 86.8483C171.002 87.5757 169.733 87.9393 168.077 87.9393Z" fill="#2B2E34"/>
<path d="M178.946 76.1006V87.7072H175.766V76.1006H178.946Z" fill="#2B2E34"/>
<path d="M182.318 87.7072V76.1006H185.173L185.289 78.2826C185.645 77.4779 186.163 76.8743 186.844 76.472C187.541 76.0696 188.338 75.8684 189.235 75.8684C190.442 75.8684 191.44 76.2244 192.23 76.9362C193.019 77.6326 193.414 78.685 193.414 80.0932V87.7072H190.233V80.9986C190.233 80.0081 190.032 79.3272 189.63 78.9558C189.243 78.5689 188.748 78.3755 188.144 78.3755C187.711 78.3755 187.285 78.4838 186.867 78.7004C186.465 78.9016 186.132 79.2344 185.869 79.6986C185.622 80.1629 185.498 80.7819 185.498 81.5557V87.7072H182.318Z" fill="#2B2E34"/>
<path d="M202.075 87.9393C200.249 87.9393 198.787 87.4132 197.688 86.3608C196.589 85.293 196.04 83.8074 196.04 81.9039C196.04 80.6349 196.288 79.5516 196.783 78.654C197.278 77.7564 197.967 77.0678 198.849 76.588C199.746 76.1083 200.768 75.8684 201.913 75.8684C203.089 75.8684 204.087 76.1083 204.907 76.588C205.728 77.0523 206.354 77.6945 206.788 78.5147C207.221 79.3195 207.438 80.2403 207.438 81.2771C207.438 81.5866 207.43 81.8807 207.414 82.1592C207.399 82.4378 207.376 82.6854 207.345 82.9021H199.151C199.274 83.7996 199.584 84.4728 200.079 84.9216C200.59 85.3549 201.247 85.5716 202.052 85.5716C202.733 85.5716 203.283 85.44 203.7 85.177C204.118 84.9139 204.443 84.5502 204.675 84.0859L207.206 85.0609C206.834 85.974 206.184 86.6858 205.256 87.1965C204.327 87.6917 203.267 87.9393 202.075 87.9393ZM201.89 78.213C200.389 78.213 199.483 79.0409 199.174 80.6968H204.397C204.304 79.8921 204.041 79.2808 203.608 78.8629C203.19 78.4296 202.617 78.213 201.89 78.213Z" fill="#2B2E34"/>
<path d="M214.775 87.9393C213.599 87.9393 212.524 87.7304 211.549 87.3126C210.589 86.8947 209.808 86.3067 209.204 85.5484L211.038 83.6913C211.41 84.2484 211.905 84.705 212.524 85.0609C213.143 85.4168 213.878 85.5948 214.729 85.5948C215.333 85.5948 215.812 85.5097 216.168 85.3395C216.54 85.1537 216.725 84.8675 216.725 84.4806C216.725 84.233 216.64 84.024 216.47 83.8538C216.3 83.6681 215.959 83.5211 215.449 83.4127L213.406 82.9949C212.06 82.7164 211.1 82.2985 210.527 81.7414C209.97 81.1688 209.692 80.4337 209.692 79.5361C209.692 78.9016 209.877 78.3058 210.249 77.7487C210.636 77.1916 211.208 76.7428 211.967 76.4023C212.725 76.0464 213.669 75.8684 214.799 75.8684C217.151 75.8684 218.838 76.588 219.859 78.0273L217.956 79.8843C217.615 79.3427 217.166 78.9326 216.609 78.654C216.068 78.36 215.495 78.213 214.892 78.213C213.53 78.213 212.849 78.5921 212.849 79.3504C212.849 79.598 212.957 79.8147 213.174 80.0004C213.39 80.1706 213.785 80.3176 214.358 80.4414L216.725 80.9289C217.871 81.1611 218.691 81.5557 219.186 82.1128C219.681 82.6544 219.929 83.3122 219.929 84.0859C219.929 85.2002 219.48 86.121 218.582 86.8483C217.7 87.5757 216.431 87.9393 214.775 87.9393Z" fill="#2B2E34"/>
<path d="M69.1493 87.9391C67.6172 87.9391 66.3095 87.6219 65.2263 86.9874C64.1584 86.3374 63.4234 85.4089 63.021 84.2018L66.0387 82.8786C66.3482 84.5345 67.3696 85.3624 69.1029 85.3624C69.8767 85.3624 70.4802 85.1613 70.9135 84.7589C71.3623 84.3411 71.5867 83.7917 71.5867 83.1108C71.5867 81.8108 70.782 81.1608 69.1725 81.1608C68.8011 81.1608 68.4142 81.184 68.0119 81.2305V78.8859C68.244 78.9169 68.5071 78.9324 68.8011 78.9324C69.6677 78.9324 70.2868 78.7544 70.6582 78.3985C71.0451 78.0425 71.2385 77.4854 71.2385 76.7271C71.2385 76.0926 71.0451 75.6051 70.6582 75.2647C70.2713 74.9087 69.7374 74.7307 69.0565 74.7307C68.3136 74.7307 67.7256 74.9165 67.2922 75.2879C66.8589 75.6593 66.5572 76.2087 66.3869 76.936L63.5317 75.8682C63.8102 74.7075 64.468 73.7945 65.5048 73.129C66.5417 72.4636 67.7797 72.1309 69.2189 72.1309C70.9213 72.1309 72.2135 72.5177 73.0956 73.2915C73.9777 74.0653 74.4187 75.0557 74.4187 76.2628C74.4187 77.0985 74.2562 77.7794 73.9313 78.3056C73.6063 78.8318 73.2194 79.2264 72.7706 79.4895C72.3218 79.7526 71.9117 79.9073 71.5403 79.9537V80.0234C72.0045 80.0389 72.4843 80.1627 72.9795 80.3948C73.4747 80.6269 73.8926 80.9829 74.233 81.4626C74.5735 81.9424 74.7437 82.5536 74.7437 83.2965C74.7437 84.2405 74.4961 85.0607 74.0009 85.7571C73.5211 86.4535 72.8634 86.9951 72.0278 87.382C71.1921 87.7534 70.2326 87.9391 69.1493 87.9391Z" fill="#2B2E34"/>
<path d="M86.5245 87.7072V85.5252C88.3816 84.2871 89.8672 83.1961 90.9815 82.2521C92.0957 81.2926 92.8927 80.4105 93.3725 79.6058C93.8677 78.801 94.1153 78.0041 94.1153 77.2148C94.1153 76.5029 93.8986 75.9226 93.4653 75.4738C93.032 75.0095 92.4207 74.7774 91.6315 74.7774C90.7648 74.7774 90.0839 75.0714 89.5887 75.6595C89.1089 76.2476 88.8459 77.0833 88.7994 78.1665L86.037 77.1219C86.1299 75.5589 86.6948 74.3441 87.7316 73.4775C88.784 72.5953 90.1458 72.1543 91.8172 72.1543C93.0552 72.1543 94.0766 72.3864 94.8813 72.8507C95.7015 73.2995 96.3128 73.8953 96.7152 74.6381C97.133 75.3809 97.3419 76.1779 97.3419 77.0291C97.3419 78.4993 96.7848 79.8766 95.6706 81.1611C94.5718 82.4301 92.8618 83.7764 90.5404 85.2002V85.2234C90.8809 85.2079 91.3297 85.1924 91.8868 85.177C92.4594 85.146 92.9469 85.1305 93.3492 85.1305H97.5741V87.7072H86.5245Z" fill="#2B2E34"/>
<path d="M113.111 87.7075V78.0043C113.111 77.6484 113.111 77.2847 113.111 76.9133C113.127 76.5264 113.142 76.1318 113.158 75.7294C112.632 76.2247 112.044 76.6502 111.394 77.0062C110.744 77.3466 110.078 77.5865 109.397 77.7258L108.979 75.033C109.32 74.9866 109.715 74.8783 110.163 74.708C110.612 74.5378 111.061 74.3289 111.51 74.0813C111.974 73.8337 112.392 73.5629 112.763 73.2688C113.15 72.9748 113.444 72.6808 113.645 72.3867H116.245V87.7075H113.111Z" fill="#2B2E34"/>
<path d="M238.268 76.1V78.4678H234.74V87.7067H231.56V78.4678H229.54V76.1H231.56V74.7072C231.56 73.3918 231.97 72.4091 232.79 71.7591C233.61 71.1092 234.647 70.7842 235.901 70.7842C236.442 70.7842 236.93 70.8461 237.363 70.9699C237.796 71.0782 238.129 71.2175 238.361 71.3877L237.92 73.5001C237.75 73.3918 237.556 73.3067 237.34 73.2448C237.123 73.1829 236.868 73.1519 236.574 73.1519C235.97 73.1519 235.491 73.2912 235.135 73.5698C234.779 73.8329 234.601 74.2894 234.601 74.9394V76.1H238.268Z" fill="#2B2E34"/>
<path d="M240.177 87.7067V76.1H242.939L243.148 78.3749C243.442 77.5857 243.884 76.9744 244.472 76.5411C245.075 76.0923 245.833 75.8679 246.746 75.8679C247.288 75.8679 247.706 75.953 248 76.1232L247.629 78.7928C247.474 78.7463 247.28 78.7077 247.048 78.6767C246.832 78.6303 246.545 78.6071 246.189 78.6071C245.71 78.6071 245.253 78.7231 244.82 78.9553C244.402 79.1719 244.054 79.5124 243.775 79.9766C243.497 80.4254 243.357 80.998 243.357 81.6944V87.7067H240.177Z" fill="#2B2E34"/>
<rect x="26.317" y="67.5029" width="21.4938" height="21.4938" fill="#CD1719"/>
<rect x="16" y="44.7197" width="21.4938" height="21.4938" fill="#CD1719"/>
<rect x="54.8417" y="43" width="21.4938" height="21.4938" transform="rotate(45 54.8417 43)" fill="#CD1719"/>
<rect x="78.7619" y="79.9697" width="3.43901" height="3.43901" fill="#CD1719"/>
<rect x="101.545" y="79.9697" width="3.43901" height="3.43901" fill="#CD1719"/>
<rect x="159.861" y="69.2227" width="3.43901" height="3.43901" transform="rotate(45 159.861 69.2227)" fill="#2B2E34"/>
<rect x="178.775" y="69.2227" width="3.43901" height="3.43901" transform="rotate(45 178.775 69.2227)" fill="#2B2E34"/>
<rect x="225.202" y="82.9785" width="3.43901" height="3.43901" transform="rotate(45 225.202 82.9785)" fill="#2B2E34"/>
</svg>
