<svg width="264" height="132" viewBox="0 0 264 132" fill="none" xmlns="http://www.w3.org/2000/svg">
<path d="M91.937 78.7676L92.4718 66.7353H90.9566C89.2632 71.9493 86.9459 77.1187 80.7515 77.1187H74.6017V43.6957H79.5483V42.0469H61.589V43.6957H65.3324V77.1187H61.589V78.7676H91.937Z" fill="#1A171B"/>
<path d="M111.189 78.7676V77.1187H106.598V43.6957H111.189V42.0469H93.2739V43.6957H97.3737V77.1187H93.2739V78.7676H111.189Z" fill="#1A171B"/>
<path d="M134.496 43.6506C132.223 42.2691 129.727 41.2441 127.098 41.2441C120.859 41.2441 115.556 45.9679 115.556 52.2069C115.556 60.4958 120.904 62.6794 126.207 64.0609C131.465 65.4424 136.813 65.7989 136.813 70.5672C136.813 74.0432 134.184 77.9203 128.078 77.9203C122.508 77.9203 118.898 73.4639 117.428 68.4282H115.467V79.0789H117.428L120.235 76.9844C122.552 78.7224 124.959 79.5691 127.811 79.5691C136.768 79.5691 140.645 72.9291 140.645 66.5119C140.645 60.1393 137.972 57.2426 134.674 55.8166C132.134 54.7025 127.544 53.6329 124.736 53.009C122.062 52.3851 119.745 51.5384 119.745 48.2852C119.745 44.6756 123.978 42.893 127.009 42.893C131.777 42.893 135.699 47.3048 136.501 51.8058H138.239V42.0909H136.545L134.496 43.6506Z" fill="#1A171B"/>
<path d="M174.603 78.7676L174.915 66.7353H173.222C171.751 73.108 170.191 77.1187 161.68 77.1187H156.287V60.9866C161.68 60.9866 163.15 62.7246 163.908 68.0277H165.735V52.4303H163.908C162.794 57.466 161.635 59.0703 156.287 59.0703V43.6957H161.457C166.938 43.6957 169.345 45.7457 171.662 51.9401H173.534L173.222 42.0469H143.186V43.6957H147.107V77.1187H142.695V78.7676H174.603Z" fill="#1A171B"/>
<path fill-rule="evenodd" clip-rule="evenodd" d="M195.192 41.2441C188.061 41.2441 176.386 47.5722 176.386 60.0501C176.386 70.8792 184.452 79.6137 195.192 79.6137C205.976 79.6137 214.042 70.8792 214.042 60.0501C214.042 47.5722 202.411 41.2441 195.192 41.2441ZM187.304 55.1035C187.304 45.1212 189.176 42.893 195.192 42.893C201.252 42.893 203.169 45.0766 203.169 55.1035V64.3283C203.169 75.7366 202.723 77.9648 195.192 77.9648C187.66 77.9648 187.304 75.7812 187.304 64.3283V55.1035Z" fill="#1A171B"/>
<path fill-rule="evenodd" clip-rule="evenodd" d="M34.2267 45.2105L41.8917 64.5513H26.5171L34.2267 45.2105ZM27.6758 78.7672V77.0292C26.8736 77.0292 22.5955 77.564 22.5955 75.8705C22.5955 75.2466 23.5313 73.2858 24.1552 71.2804L26.1606 66.2447H42.7829L47.1056 77.0738H42.7829V78.8117H60.6531V77.0738H57.2662L39.8417 33H37.3016L20.4564 75.1129C19.8325 77.1629 17.3369 77.0738 16 77.0738V78.8117H27.6758V78.7672Z" fill="#1A171B"/>
<path d="M22.239 98.9987C21.927 99.2215 21.0803 99.8899 19.5651 99.8899C16.8022 99.8899 16 97.4835 16 94.8542C16 92.5369 16.9804 90.4424 19.3869 90.4424C21.3922 90.4424 22.3726 91.8239 22.3726 93.1162H21.4368C21.4368 92.2249 20.9466 91.2 19.3869 91.2C17.4706 91.2 16.8913 93.0271 16.8913 94.8542C16.8913 96.7705 17.2924 99.1324 19.5651 99.1324C20.5901 99.1324 21.3031 98.6867 21.4814 98.553V95.389H19.164V94.676H22.2835V98.9987H22.239Z" fill="#1A171B"/>
<path d="M54.3695 90.6211H58.4248V91.3341H55.1717V94.5873H58.2911V95.3449H55.1717V98.9991H58.5585V99.7567H54.3695V90.6211Z" fill="#1A171B"/>
<path d="M91.0902 94.8992H91.8033C93.0956 94.8992 94.3434 94.4536 94.3434 92.983C94.3434 91.3787 92.7391 91.3787 92.1152 91.3787H91.0902V94.8992ZM90.2881 90.6211H92.2043C93.3184 90.6211 95.1456 90.8885 95.1456 92.983C95.1456 95.0329 93.4967 95.2112 93.3184 95.2558V95.3003C94.5217 95.6123 94.6554 96.3253 94.8336 97.3057L95.3684 99.7567H94.5662L94.1206 97.6176C93.8532 96.3698 93.5858 95.6568 92.2043 95.6568H91.0902V99.8013H90.2881V90.6211Z" fill="#1A171B"/>
<path d="M127.454 90.6211H128.747L131.287 98.5981H131.332L133.872 90.6211H135.164V99.7567H134.451V91.3341H134.406L131.733 99.7567H130.886L128.212 91.3341H128.167V99.7567H127.454V90.6211Z" fill="#1A171B"/>
<path d="M168.409 96.0579H171.35L169.835 91.245H169.79L168.409 96.0579ZM169.389 90.6211H170.414L173.355 99.7567H172.553L171.573 96.8155H168.141L167.206 99.7567H166.403L169.389 90.6211Z" fill="#1A171B"/>
<path d="M204.684 90.6211H205.753L209.63 98.7763V90.6211H210.433V99.7567H209.319L205.486 91.7798V99.7567H204.684V90.6211Z" fill="#1A171B"/>
<path d="M244.39 95.5677L241.627 90.6211H242.519L244.791 94.7656L247.153 90.6211H248L245.192 95.5677V99.7567H244.39V95.5677Z" fill="#1A171B"/>
<path d="M222.42 78.8561C222.108 79.0789 221.262 79.7474 219.746 79.7474C216.983 79.7474 216.181 77.3409 216.181 74.7116C216.181 72.3943 217.162 70.2998 219.568 70.2998C221.574 70.2998 222.554 71.6813 222.554 72.9736H221.618C221.618 72.0824 221.128 71.0574 219.568 71.0574C217.652 71.0574 217.073 72.8845 217.073 74.7116C217.073 76.6279 217.474 78.9898 219.746 78.9898C220.771 78.9898 221.484 78.5441 221.663 78.4104V75.2464H219.345V74.5334H222.465V78.8561H222.42Z" fill="#1A171B"/>
<path d="M225.139 73.33H225.807V74.8897H225.852C226.03 74.2658 226.386 73.1963 227.857 73.1963C229.06 73.1963 229.328 74.1767 229.328 74.7115H229.372C229.551 74.1321 230.041 73.1963 231.155 73.1963C231.868 73.1963 232.804 73.3745 232.804 74.9788V79.6581H232.135V75.6919C232.135 75.0234 232.135 73.8647 231.11 73.8647C230.085 73.8647 229.328 75.5136 229.328 77.1625V79.7026H228.659V75.7364C228.659 75.068 228.659 73.9093 227.857 73.9093C226.698 73.9093 225.852 75.6027 225.852 77.2962V79.7026H225.139V73.33Z" fill="#1A171B"/>
<path d="M237.617 79.1239C238.82 79.1239 239.265 77.787 239.265 76.4946C239.265 75.4251 238.909 73.7762 237.795 73.7762C236.681 73.7762 236.101 75.2914 236.101 76.5838C236.101 77.6979 236.369 79.1239 237.617 79.1239ZM236.101 74.4893C236.28 73.9991 236.725 73.1524 237.884 73.1524C239.444 73.1524 240.068 74.8458 240.068 76.5392C240.068 78.3218 239.31 79.7478 237.617 79.7478C236.101 79.7478 235.433 78.5446 235.433 77.0294V70.4785H236.101V74.4893Z" fill="#1A171B"/>
<path d="M242.474 70.4785H243.276V74.5338H247.198V70.4785H248V79.6141H247.198V75.2469H243.276V79.6141H242.474V70.4785Z" fill="#1A171B"/>
</svg>
