<svg width="264" height="132" viewBox="0 0 264 132" fill="none" xmlns="http://www.w3.org/2000/svg">
<path d="M235.975 63.4862V80.3062H247.884V61.5529C247.884 61.5529 249.121 49.8369 238.179 49.8369H228.899H225.689H217.183V80.2676L228.783 80.2289L228.86 59.6196C233.075 59.6196 232.804 59.6196 232.727 59.6196C232.688 59.6969 235.975 59.9676 235.975 63.4862Z" fill="#005092"/>
<path d="M154.156 80.3449H132.503C132.503 80.3449 123.803 79.5716 123.996 72.7662C124.151 66.5796 130.067 59.7356 130.067 59.7356L137.761 49.8369L154.156 49.8756V80.3449ZM137.336 67.3916C135.403 69.7889 137.877 70.3302 137.877 70.3302L142.827 70.2916V59.5422L137.336 67.3916Z" fill="#005092"/>
<path d="M213.471 80.2678H191.817C191.817 80.2678 183.117 79.4944 183.311 72.6891C183.465 66.5024 189.381 59.6584 189.381 59.6584L197.076 49.7598L213.471 49.7984V80.2678ZM196.651 67.3144C194.717 69.7118 197.231 70.2531 197.231 70.2531L202.18 70.2144V59.4651L196.651 67.3144Z" fill="#005092"/>
<path d="M123.841 59.7747V49.876H112.937C112.937 49.876 101.995 49.7987 101.995 59.968C101.995 59.968 101.067 70.292 110.772 70.292H100.989V80.3067H112.937C112.937 80.3067 122.913 80.7707 122.913 70.176C122.913 60.7027 112.937 59.736 112.937 59.736H123.841V59.7747Z" fill="#005092"/>
<path d="M90.1627 49.876H78.4467V80.3066H90.1627V49.876Z" fill="#005092"/>
<path d="M98.9787 70.3311H78.9107V80.3457H98.9787V70.3311Z" fill="#005092"/>
<path d="M77.7894 80.3453L57.3348 37H39.0841L56.9868 80.3453H77.7894Z" fill="#005092"/>
<path d="M55.4788 80.3453L51.9988 72.032H40.4374L46.6628 59.272L37.4601 37L16.1161 80.3453H36.3774H36.5708H55.4788Z" fill="#005092"/>
<path d="M169.816 72.4186V80.268H158.139V62.52H172.097C172.097 62.52 173.76 62.7133 173.76 61.0506C173.76 59.388 172.213 59.5813 172.213 59.5813H158.139V49.876H173.992C180.217 49.876 185.399 54.4386 185.399 61.2826C185.399 61.2826 185.399 72.4573 173.953 72.4573L169.816 72.4186Z" fill="#005092"/>
<path d="M153.151 92.7188H248" stroke="#666666" stroke-width="1.5089" stroke-miterlimit="10"/>
<path d="M16 86.1064H20.6013V87.1118H17.16V88.8518H20.176V89.8184H17.16V92.7958H16V86.1064Z" fill="#666666"/>
<path d="M25.6667 92.7566H24.6227V92.0992C24.352 92.6019 23.772 92.9112 23.2307 92.9112C21.9547 92.9112 21.4133 92.2926 21.4133 91.0166V87.9619H22.496V90.9392C22.496 91.7899 22.844 92.0992 23.424 92.0992C24.3133 92.0992 24.6227 91.5192 24.6227 90.7846V88.0006H25.7053V92.7566H25.6667Z" fill="#666666"/>
<path d="M27.1747 87.9623H28.18V88.8903C28.296 88.3876 28.9533 87.8076 29.572 87.8076C29.804 87.8076 29.8813 87.8076 29.9587 87.8463V88.8903C29.804 88.8903 29.6493 88.8516 29.4947 88.8516C28.76 88.8516 28.18 89.4316 28.18 90.5143V92.7956H27.1747V87.9623Z" fill="#666666"/>
<path d="M30.8867 87.9623H31.892V88.6583C32.2014 88.1169 32.7427 87.8076 33.4 87.8076C34.444 87.8076 35.1014 88.3489 35.1014 89.4703V92.7956H34.0187V89.741C34.0187 88.9676 33.7094 88.6583 33.0907 88.6583C32.3947 88.6583 31.9307 89.1996 31.9307 89.9343V92.7956H30.848V87.9623H30.8867Z" fill="#666666"/>
<path d="M36.6094 86.1064H37.692V87.1118H36.6094V86.1064ZM36.6094 87.9625H37.692V92.7571H36.6094V87.9625Z" fill="#666666"/>
<path d="M38.736 87.9629H39.548V86.5322H40.6306V87.9629H41.5973V88.7749H40.6306V91.3656C40.6306 91.7909 40.6693 92.0229 41.1333 92.0229C41.288 92.0229 41.4426 92.0229 41.5973 91.9842V92.7962C41.3653 92.7962 41.1333 92.8349 40.9013 92.8349C39.78 92.8349 39.5866 92.4096 39.548 91.5976V88.7362H38.736V87.9629Z" fill="#666666"/>
<path d="M46.9334 92.7566H45.8894V92.0992C45.6187 92.6019 45.0387 92.9112 44.4974 92.9112C43.2214 92.9112 42.6801 92.2926 42.6801 91.0166V87.9619H43.7627V90.9392C43.7627 91.7899 44.1107 92.0992 44.6907 92.0992C45.5801 92.0992 45.8894 91.5192 45.8894 90.7846V88.0006H46.9721V92.7566H46.9334Z" fill="#666666"/>
<path d="M48.4413 87.9623H49.4467V88.8903C49.5627 88.3876 50.22 87.8076 50.8387 87.8076C51.0707 87.8076 51.148 87.8076 51.2253 87.8463V88.8903C51.0707 88.8903 50.916 88.8516 50.7613 88.8516C50.0267 88.8516 49.4467 89.4316 49.4467 90.5143V92.7956H48.4413V87.9623Z" fill="#666666"/>
<path d="M52.8493 90.6303C52.8493 91.4036 53.2747 92.061 54.164 92.061C54.7827 92.061 55.1693 91.7903 55.324 91.2489H56.3293C56.0973 92.2929 55.208 92.9116 54.1253 92.9116C52.6173 92.9116 51.7667 91.8676 51.7667 90.3596C51.7667 88.9676 52.656 87.8076 54.0867 87.8076C55.5947 87.8076 56.5613 89.1996 56.368 90.6303H52.8493ZM55.324 89.9343C55.2853 89.277 54.8213 88.6583 54.1253 88.6583C53.3907 88.6583 52.888 89.1996 52.8493 89.9343H55.324Z" fill="#666666"/>
<path d="M57.528 91.5195H58.8427V92.7955C58.8427 93.5689 58.3013 94.1102 57.5667 94.2649V93.6849C57.992 93.5689 58.1853 93.1822 58.1853 92.7955H57.528V91.5195Z" fill="#666666"/>
<path d="M63.5599 86.1064H68.1613V87.1118H64.7199V88.8518H67.7359V89.8184H64.7199V92.7958H63.5599V86.1064Z" fill="#666666"/>
<path d="M69.1667 86.1064H70.2493V92.7571H69.1667V86.1064Z" fill="#666666"/>
<path d="M71.564 90.3596C71.564 88.8903 72.4534 87.8076 74 87.8076C75.5467 87.8076 76.436 88.8903 76.436 90.3596C76.436 91.8289 75.5467 92.9116 74 92.9116C72.4534 92.9116 71.564 91.8289 71.564 90.3596ZM75.3534 90.3596C75.3534 89.5476 74.928 88.6583 73.9614 88.6583C72.9947 88.6583 72.5694 89.5089 72.5694 90.3596C72.5694 91.2103 72.9947 92.061 73.9614 92.061C74.928 92.061 75.3534 91.2103 75.3534 90.3596Z" fill="#666666"/>
<path d="M77.48 90.3596C77.48 88.8903 78.3693 87.8076 79.916 87.8076C81.4626 87.8076 82.352 88.8903 82.352 90.3596C82.352 91.8289 81.4626 92.9116 79.916 92.9116C78.3693 92.9116 77.48 91.8289 77.48 90.3596ZM81.2693 90.3596C81.2693 89.5476 80.844 88.6583 79.8773 88.6583C78.9106 88.6583 78.4853 89.5089 78.4853 90.3596C78.4853 91.2103 78.9106 92.061 79.8773 92.061C80.844 92.061 81.2693 91.2103 81.2693 90.3596Z" fill="#666666"/>
<path d="M83.5894 87.9623H84.5947V88.8903C84.7107 88.3876 85.368 87.8076 85.9867 87.8076C86.2187 87.8076 86.296 87.8076 86.3734 87.8463V88.8903C86.2187 88.8903 86.064 88.8516 85.9094 88.8516C85.1747 88.8516 84.5947 89.4316 84.5947 90.5143V92.7956H83.512V87.9623H83.5894Z" fill="#666666"/>
<path d="M87.34 86.1064H88.4226V87.1118H87.34V86.1064ZM87.34 87.9625H88.4226V92.7571H87.34V87.9625Z" fill="#666666"/>
<path d="M89.9307 87.9623H90.936V88.6583C91.2454 88.1169 91.7867 87.8076 92.444 87.8076C93.488 87.8076 94.1454 88.3489 94.1454 89.4703V92.7956H93.0627V89.741C93.0627 88.9676 92.7534 88.6583 92.1347 88.6583C91.4387 88.6583 90.9747 89.1996 90.9747 89.9343V92.7956H89.892V87.9623H89.9307Z" fill="#666666"/>
<path d="M100.1 92.5255C100.1 93.9562 99.2494 94.6909 97.7414 94.6909C96.7747 94.6909 95.692 94.3042 95.576 93.1829H96.6587C96.7747 93.8015 97.2774 93.8789 97.8187 93.8789C98.6694 93.8789 99.056 93.4535 99.056 92.6415V91.9069C98.7467 92.4482 98.2054 92.7575 97.6254 92.7575C96.0787 92.7575 95.46 91.5975 95.46 90.2055C95.46 88.8909 96.272 87.7695 97.664 87.7695C98.2827 87.7695 98.824 88.0402 99.0947 88.5815V87.9242H100.177V92.5255H100.1ZM99.056 90.2442C99.056 89.4322 98.6694 88.6589 97.7414 88.6589C96.8134 88.6589 96.4654 89.5482 96.4654 90.3215C96.4654 91.1335 96.852 91.9069 97.7414 91.9069C98.708 91.9455 99.056 91.0562 99.056 90.2442Z" fill="#666666"/>
<path d="M101.492 91.5195H102.807V92.7955C102.807 93.5689 102.265 94.1102 101.531 94.2649V93.6849C101.956 93.5689 102.149 93.1822 102.149 92.7955H101.492V91.5195Z" fill="#666666"/>
<path d="M106.519 86.1064H107.717L108.916 91.2105L110.269 86.1064H111.468L112.783 91.2105L114.02 86.1064H115.219L113.401 92.7571H112.203L110.849 87.6531L109.496 92.7571H108.297L106.519 86.1064Z" fill="#666666"/>
<path d="M115.683 90.3596C115.683 88.8903 116.572 87.8076 118.119 87.8076C119.665 87.8076 120.555 88.8903 120.555 90.3596C120.555 91.8289 119.665 92.9116 118.119 92.9116C116.572 92.9116 115.683 91.8289 115.683 90.3596ZM119.511 90.3596C119.511 89.5476 119.085 88.6583 118.119 88.6583C117.152 88.6583 116.727 89.5089 116.727 90.3596C116.727 91.2103 117.152 92.061 118.119 92.061C119.085 92.061 119.511 91.2103 119.511 90.3596Z" fill="#666666"/>
<path d="M121.831 87.9623H122.836V88.8903C122.952 88.3876 123.609 87.8076 124.228 87.8076C124.46 87.8076 124.537 87.8076 124.615 87.8463V88.8903C124.46 88.8903 124.305 88.8516 124.151 88.8516C123.416 88.8516 122.836 89.4316 122.836 90.5143V92.7956H121.753V87.9623H121.831Z" fill="#666666"/>
<path d="M125.543 86.1064H126.625V89.8958L128.559 87.9625H129.873L128.017 89.7411L130.028 92.7958H128.713L127.244 90.4371L126.625 91.0558V92.7958H125.543V86.1064Z" fill="#666666"/>
<path d="M130.415 87.9629H131.227V86.5322H132.309V87.9629H133.276V88.7749H132.309V91.3656C132.309 91.7909 132.348 92.0229 132.812 92.0229C132.967 92.0229 133.121 92.0229 133.276 91.9842V92.7962C133.044 92.7962 132.812 92.8349 132.58 92.8349C131.459 92.8349 131.265 92.4096 131.227 91.5976V88.7362H130.415V87.9629Z" fill="#666666"/>
<path d="M134.127 90.3596C134.127 88.8903 135.016 87.8076 136.563 87.8076C138.109 87.8076 138.999 88.8903 138.999 90.3596C138.999 91.8289 138.109 92.9116 136.563 92.9116C135.016 92.9116 134.127 91.8289 134.127 90.3596ZM137.916 90.3596C137.916 89.5476 137.491 88.6583 136.524 88.6583C135.557 88.6583 135.132 89.5089 135.132 90.3596C135.132 91.2103 135.557 92.061 136.524 92.061C137.491 92.061 137.916 91.2103 137.916 90.3596Z" fill="#666666"/>
<path d="M140.275 87.9627H141.28V88.62C141.589 88.0787 142.169 87.8467 142.788 87.8467C144.296 87.8467 145.031 89.0067 145.031 90.3987C145.031 91.7133 144.373 92.912 142.943 92.912C142.324 92.912 141.667 92.68 141.319 92.1387V94.536H140.236V87.9627H140.275ZM142.633 88.6587C141.744 88.6587 141.28 89.3547 141.28 90.36C141.28 91.3267 141.783 92.0614 142.633 92.0614C143.6 92.0614 143.987 91.2107 143.987 90.36C143.987 89.4707 143.523 88.6587 142.633 88.6587Z" fill="#666666"/>
<path d="M147.119 91.2103C147.157 91.8289 147.66 92.061 148.201 92.061C148.588 92.061 149.323 91.9836 149.284 91.4423C149.245 90.9009 148.472 90.8236 147.699 90.6303C146.925 90.4756 146.152 90.1663 146.152 89.1996C146.152 88.1556 147.273 87.8076 148.163 87.8076C149.168 87.8076 150.057 88.2329 150.173 89.2769H149.052C148.975 88.7743 148.549 88.6196 148.085 88.6196C147.776 88.6196 147.196 88.6969 147.196 89.1223C147.196 89.6636 147.969 89.7023 148.781 89.8956C149.555 90.0889 150.328 90.3596 150.328 91.2876C150.328 92.4476 149.168 92.8729 148.163 92.8729C146.964 92.8729 146.036 92.3316 146.036 91.2103H147.119Z" fill="#666666"/>
</svg>
