<svg width="264" height="132" viewBox="0 0 264 132" fill="none" xmlns="http://www.w3.org/2000/svg">
<path d="M220.682 62.3412C220.682 60.5119 220.593 58.6784 220.703 56.8574C220.875 53.986 221.802 51.386 224.016 49.3744C225.633 47.9055 227.583 47.0851 229.723 46.6977C233.141 46.0762 236.555 46.0472 239.931 46.9484C244.535 48.179 247.256 51.3094 247.797 55.9624C247.913 56.9527 247.972 57.9533 247.982 58.9498C248.008 61.5726 248.003 64.1954 247.985 66.8181C247.974 68.4133 247.707 69.9733 247.155 71.4795C246.119 74.3115 244.154 76.3252 241.296 77.3134C236.728 78.8941 232.073 78.9335 227.491 77.3652C223.706 76.0704 221.522 73.2943 220.939 69.4596C220.583 67.1206 220.644 64.7195 220.517 62.3474C220.682 62.3412 220.625 62.3432 220.682 62.3412ZM228.569 62.3432H228.573C228.573 63.9633 228.573 65.5855 228.575 67.2055C228.575 67.3423 228.594 67.4811 228.607 67.6178C228.803 69.8242 230.102 71.2205 232.309 71.6307C233.598 71.8689 234.874 71.8855 236.17 71.6452C238.547 71.206 239.954 69.8159 240.022 67.4334C240.118 64.0565 240.104 60.6735 240.026 57.2966C239.975 55.142 238.695 53.6359 236.711 53.1615C235.087 52.774 233.438 52.7616 231.823 53.1842C230.298 53.5841 229.213 54.5101 228.824 56.0618C228.666 56.6896 228.596 57.3504 228.579 57.9968C228.546 59.447 228.569 60.8951 228.569 62.3432Z" fill="#6E6E6E"/>
<path d="M160.598 65.3249C154.729 65.3249 149.017 65.3249 143.179 65.3249C143.078 67.0216 142.945 68.6603 143.817 70.1706C144.394 71.1712 145.39 71.6084 146.488 71.8238C148.328 72.1864 150.196 72.1615 152.037 71.9212C154.282 71.627 156.508 71.1774 158.873 70.7735C159.255 72.58 159.655 74.4797 160.086 76.5286C158.848 76.885 157.696 77.262 156.521 77.5459C153.16 78.3559 149.737 78.5693 146.294 78.3725C144.651 78.2772 143.036 77.9561 141.486 77.3615C138.245 76.1185 136.32 73.7671 135.635 70.4627C135.357 69.1223 135.248 67.7322 135.218 66.3607C135.157 63.5681 135.13 60.7692 135.229 57.9786C135.281 56.5118 135.473 55.0119 135.875 53.6032C136.84 50.2284 139.161 48.0324 142.549 47.0297C146.043 45.9979 149.613 45.9607 153.137 46.8411C157.054 47.821 159.358 50.4231 160.143 54.2765C160.43 55.6852 160.525 57.1437 160.579 58.5856C160.651 60.446 160.596 62.3105 160.596 64.1751C160.598 64.5148 160.598 64.8525 160.598 65.3249ZM143.074 58.9627C146.524 58.9627 149.761 58.9627 153.168 58.9627C153.059 57.7507 153.048 56.6113 152.831 55.5112C152.564 54.1646 151.704 53.2531 150.306 52.8905C149.061 52.5694 147.806 52.5735 146.564 52.8284C144.729 53.2033 143.579 54.3055 143.278 56.1389C143.129 57.0422 143.139 57.9703 143.074 58.9627Z" fill="#6E6E6E"/>
<path d="M195.929 77.7831C193.44 77.7831 191.094 77.7831 188.745 77.781C188.543 77.781 188.341 77.7582 188.088 77.7437C188.088 67.4846 188.088 57.2857 188.088 47.0017C190.041 47.0017 191.985 47.0017 194.034 47.0017C194.28 47.76 194.541 48.5679 194.794 49.351C196.527 48.7274 198.21 48.0624 199.931 47.5196C202.441 46.7303 205.008 46.2373 207.668 46.2911C210.88 46.3574 213.013 47.8345 213.858 50.8675C214.241 52.2473 214.464 53.714 214.475 55.1435C214.534 62.4939 214.502 69.8443 214.5 77.1947C214.5 77.3315 214.481 77.4682 214.46 77.7665C213.19 77.8038 211.908 77.7789 210.629 77.7831C209.332 77.7872 208.035 77.7831 206.605 77.7831C206.59 77.3915 206.565 77.029 206.565 76.6664C206.563 69.9728 206.516 63.277 206.588 56.5833C206.615 54.1284 205.156 53.5338 203.241 53.8321C200.973 54.1864 198.865 55.0068 196.784 55.9308C196.098 56.2353 195.908 56.6434 195.91 57.3519C195.935 63.7017 195.925 70.0515 195.925 76.4013C195.929 76.8115 195.929 77.2217 195.929 77.7831Z" fill="#6E6E6E"/>
<path d="M97.4548 60.4909C97.4548 58.8874 97.5559 57.4372 97.4295 56.0036C97.2674 54.1556 96.286 53.2441 94.4432 52.923C92.5962 52.6019 90.7344 52.6329 88.8853 52.809C87.1099 52.9789 85.3493 53.2855 83.5823 53.5217C83.3485 53.5528 83.1063 53.5258 82.7883 53.5258C82.4724 51.6074 82.1628 49.716 81.8427 47.7706C83.2916 47.2216 84.7406 47.0145 86.1769 46.7762C89.1633 46.279 92.1749 46.2107 95.1929 46.3515C96.7746 46.4261 98.3246 46.7058 99.8178 47.2258C102.629 48.2036 104.339 50.1821 104.957 53.0224C105.226 54.2613 105.397 55.5478 105.405 56.8136C105.447 63.5094 105.426 70.2051 105.426 76.9009C105.426 77.1391 105.426 77.3794 105.426 77.7565C104.314 77.8186 103.24 77.7772 102.17 77.7855C101.119 77.7938 100.068 77.7875 98.967 77.7875C98.7521 77.1495 98.55 76.5425 98.3204 75.8567C98.0087 76.01 97.7665 76.1178 97.5348 76.2462C94.4874 77.9367 91.2062 78.6929 87.7333 78.3718C84.6732 78.09 82.4134 76.53 81.3583 73.1863C80.5959 70.7728 80.6275 68.2846 81.1793 65.8255C81.8174 62.9852 83.6897 61.3569 86.556 60.8555C87.7565 60.6463 88.9885 60.5406 90.2079 60.5075C92.2065 60.4515 94.2073 60.493 96.208 60.493C96.5892 60.4909 96.9704 60.4909 97.4548 60.4909ZM97.4632 66.186C95.1424 66.186 92.9352 66.1777 90.7302 66.1964C90.4227 66.1984 90.1089 66.3062 89.812 66.4035C89.1591 66.6169 88.7126 67.0789 88.6263 67.7315C88.5252 68.5084 88.5294 69.3019 88.542 70.087C88.561 71.1643 89.2202 72.0842 90.8165 72.2167C93.1859 72.4156 95.3867 71.819 97.4611 70.6733C97.4632 69.1921 97.4632 67.7522 97.4632 66.186Z" fill="#6E6E6E"/>
<path d="M114.92 53.1136C113.28 53.1136 111.812 53.1136 110.266 53.1136C110.266 51.0564 110.266 49.0737 110.266 46.9585C111.759 46.9585 113.246 46.9585 114.872 46.9585C114.986 44.3378 114.865 41.8331 114.948 39.2124C117.559 38.8602 120.137 38.5101 122.845 38.1455C122.845 41.1267 122.845 43.9463 122.845 46.9067C125.564 46.9067 128.174 46.9067 130.865 46.9067C130.688 49.0365 130.524 51.0149 130.353 53.0825C127.858 53.0825 125.45 53.0825 122.921 53.0825C122.896 53.4989 122.86 53.8262 122.86 54.1515C122.856 59.1567 122.883 64.164 122.845 69.1693C122.831 71.1353 123.844 72.0469 125.998 71.9101C126.971 71.848 127.931 71.616 128.898 71.4668C129.1 71.4357 129.307 71.4295 129.587 71.4067C129.886 73.3376 130.179 75.2332 130.48 77.1764C129.49 77.7171 128.418 77.8725 127.365 78.0631C125.215 78.4526 123.058 78.5935 120.887 78.2061C117.216 77.5514 115.276 75.2311 114.983 71.5683C114.88 70.2984 114.922 69.016 114.922 67.7398C114.916 63.2856 114.92 58.8335 114.92 54.3794C114.92 54.0085 114.92 53.6356 114.92 53.1136Z" fill="#6E6E6E"/>
<path d="M181.983 46.2607C182.253 48.7281 182.501 51.0174 182.754 53.3418C181.537 53.9571 180.345 54.5227 179.188 55.1525C177.87 55.8693 176.6 56.6711 175.275 57.3754C174.633 57.7173 174.431 58.1502 174.433 58.8567C174.46 64.7238 174.448 70.5908 174.448 76.46C174.448 76.8681 174.448 77.2741 174.448 77.732C171.788 77.732 169.242 77.732 166.626 77.732C166.626 67.4957 166.626 57.2677 166.626 46.9817C168.816 46.9817 170.973 46.9817 173.197 46.9817C173.38 48.059 173.557 49.1031 173.746 50.2239C176.377 48.7074 178.927 47.1433 181.983 46.2607Z" fill="#6E6E6E"/>
<path d="M218.361 87.2197C218.34 87.545 218.319 87.8392 218.3 88.1251C217.792 88.1251 217.346 88.1189 216.899 88.1272C216.017 88.1437 215.804 88.3509 215.772 89.2417C215.76 89.6105 215.77 89.9813 215.77 90.4081C217.154 90.4081 218.434 90.4081 219.812 90.4081C219.839 90.116 219.894 89.8218 219.892 89.5297C219.86 87.3192 220.934 86.822 222.872 86.9815C223.146 87.0043 223.411 87.1058 223.681 87.17C223.719 87.2923 223.773 87.3896 223.771 87.4829C223.769 87.6817 223.737 87.8786 223.721 88.0733C223.563 88.1168 223.466 88.1644 223.369 88.1644C223.125 88.1644 222.88 88.1354 222.634 88.1313C221.583 88.1147 221.343 88.3426 221.309 89.3847C221.299 89.6892 221.307 89.9958 221.307 90.4102C222.063 90.4102 222.743 90.4102 223.489 90.4102C223.489 90.8349 223.489 91.1477 223.489 91.5434C222.769 91.5807 222.116 91.6159 221.332 91.6553C221.332 93.8471 221.332 95.9996 221.332 98.2101C220.831 98.2101 220.46 98.2101 219.932 98.2101C219.919 97.1329 219.904 96.0473 219.898 94.9617C219.892 93.8989 219.896 92.8341 219.896 91.6863C218.506 91.6863 217.202 91.6863 215.775 91.6863C215.775 93.8616 215.775 96.0162 215.775 98.2184C215.278 98.2184 214.903 98.2184 214.387 98.2184C214.387 96.0556 214.387 93.872 214.387 91.6718C213.873 91.62 213.498 91.5807 213.041 91.5351C213.041 91.1912 213.041 90.8742 213.041 90.5075C213.445 90.4785 213.822 90.4537 214.363 90.4143C214.363 89.9544 214.349 89.4862 214.366 89.018C214.414 87.661 215.08 87.0043 216.457 86.9608C216.807 86.9484 217.16 86.9504 217.506 86.9919C217.775 87.0271 218.039 87.1327 218.361 87.2197Z" fill="#6E6E6E"/>
<path d="M103.465 92.2812C103.465 94.3487 103.465 96.2361 103.465 98.198C102.989 98.198 102.596 98.198 102.075 98.198C102.075 97.6635 102.075 97.1559 102.075 96.6462C102.075 95.3017 102.094 93.9551 102.065 92.6106C102.046 91.7612 101.802 91.5312 100.957 91.67C100.211 91.7943 99.4912 92.0698 98.693 92.2977C98.693 94.3031 98.693 96.2215 98.693 98.2062C98.196 98.2062 97.798 98.2062 97.3367 98.2062C97.3367 95.6477 97.3367 93.114 97.3367 90.5824C98.2465 90.4353 98.2465 90.4353 98.5983 90.9863C99.3649 90.7812 100.127 90.5658 100.898 90.3752C101.808 90.1514 102.646 90.2281 103.217 91.005C104.112 90.7688 104.944 90.5036 105.797 90.3358C107.374 90.0271 108.261 90.8165 108.202 92.3226C108.126 94.2493 108.183 96.1801 108.183 98.1917C107.736 98.1917 107.338 98.1917 106.837 98.1917C106.816 97.9245 106.776 97.6282 106.774 97.3299C106.768 95.743 106.78 94.1561 106.765 92.5712C106.759 91.757 106.572 91.5478 105.769 91.67C105.022 91.784 104.299 92.0533 103.465 92.2812Z" fill="#6E6E6E"/>
<path d="M233.927 95.5563C232.863 94.5494 232.793 93.323 233.095 92.0199C233.284 91.2036 233.817 90.6899 234.624 90.4827C235.06 90.3708 235.521 90.2714 235.967 90.2879C237.182 90.3377 238.393 90.4516 239.602 90.5386C240.028 91.2699 239.259 91.2782 239.008 91.5103C239.063 92.1525 239.15 92.7263 239.152 93.3023C239.162 94.9265 238.282 95.8443 236.612 95.9872C236.298 96.0141 235.982 95.9976 235.666 95.9976C235.062 95.9955 234.798 96.327 234.712 97.0168C235.19 97.1121 235.645 97.224 236.106 97.2903C236.73 97.3794 237.364 97.4022 237.981 97.512C238.962 97.6881 239.364 98.1687 239.411 99.1279C239.489 100.707 239.059 101.231 237.469 101.506C236.254 101.715 234.428 101.577 233.133 101.15C233.162 100.881 233.196 100.591 233.234 100.261C233.461 100.242 233.627 100.207 233.792 100.218C234.662 100.28 235.531 100.359 236.403 100.421C236.612 100.435 236.824 100.421 237.033 100.396C237.793 100.298 238.149 99.9752 238.145 99.4055C238.141 98.8772 237.865 98.639 237.056 98.5396C236.327 98.4505 235.59 98.4194 234.862 98.3282C233.377 98.1418 232.907 97.1764 233.678 95.923C233.75 95.8028 233.832 95.693 233.927 95.5563ZM235.993 94.8312C237.315 94.8374 237.907 94.3609 237.871 93.178C237.84 92.1628 237.656 91.4377 236.073 91.4398C234.761 91.4419 234.299 91.8873 234.299 93.1655C234.299 94.4251 234.704 94.825 235.993 94.8312Z" fill="#6E6E6E"/>
<path d="M163.46 90.462C163.46 89.6561 163.456 88.9724 163.46 88.2908C163.467 87.1411 163.481 87.1307 164.806 87.2301C164.806 90.8639 164.806 94.5018 164.806 98.1335C163.892 98.3158 163.892 98.3158 163.524 97.7813C162.9 97.9781 162.291 98.2371 161.658 98.3614C159.79 98.724 158.72 97.9181 158.629 96.0722C158.574 94.9721 158.576 93.8637 158.631 92.7616C158.718 91.0317 159.556 90.2693 161.312 90.2838C161.971 90.288 162.628 90.3895 163.46 90.462ZM163.454 91.7195C162.622 91.6366 161.967 91.5165 161.312 91.5186C160.501 91.5227 160.114 91.8397 160.07 92.6166C160.002 93.814 160.006 95.0197 160.063 96.2193C160.097 96.9195 160.442 97.1412 161.18 97.166C161.87 97.1888 162.496 96.9775 163.039 96.586C163.235 96.4451 163.427 96.1509 163.433 95.923C163.473 94.5578 163.454 93.1904 163.454 91.7195Z" fill="#6E6E6E"/>
<path d="M187.537 87.2526C187.998 87.207 188.341 87.1718 188.838 87.1221C188.838 88.4169 188.838 89.6661 188.838 90.9899C189.735 90.7496 190.464 90.5176 191.212 90.3622C192.829 90.0245 193.657 90.6647 193.67 92.264C193.686 94.2239 193.674 96.1837 193.674 98.2098C193.198 98.2098 192.798 98.2098 192.326 98.2098C192.305 97.8908 192.267 97.5925 192.265 97.2921C192.258 95.7051 192.273 94.1203 192.256 92.5334C192.248 91.7751 192.056 91.5576 191.317 91.6736C190.603 91.7834 189.898 92.0237 189.23 92.3055C189.036 92.3863 188.899 92.8047 188.893 93.072C188.859 94.3813 188.876 95.6927 188.876 97.002C188.876 97.377 188.876 97.752 188.876 98.2015C188.4 98.2015 188.004 98.2015 187.537 98.2015C187.537 94.574 187.537 90.9713 187.537 87.2526Z" fill="#6E6E6E"/>
<path d="M247.519 94.9001C245.897 94.9001 244.436 94.9001 243.006 94.9001C242.53 96.3751 243.033 97.2038 244.442 97.2328C245.305 97.2494 246.173 97.0712 247.133 96.9718C247.209 97.2349 247.298 97.5519 247.414 97.9559C245.923 98.4489 244.495 98.6395 243.041 98.2169C242.21 97.9766 241.599 97.3965 241.542 96.5264C241.453 95.1922 241.424 93.8477 241.502 92.5156C241.571 91.3533 242.304 90.6407 243.484 90.4252C243.894 90.3506 244.316 90.276 244.728 90.2885C246.51 90.3444 247.426 91.2373 247.517 92.99C247.544 93.5659 247.519 94.1501 247.519 94.9001ZM246.11 93.7793C246.175 92.9009 246.285 92.1302 245.514 91.691C244.836 91.3036 244.071 91.3015 243.421 91.747C242.734 92.2172 242.728 92.9423 242.846 93.7213C243.151 93.7441 243.389 93.7731 243.627 93.7752C244.429 93.7834 245.228 93.7793 246.11 93.7793Z" fill="#6E6E6E"/>
<path d="M229.398 93.9883C229.594 91.7675 229.11 91.2889 227.086 91.494C226.538 91.5499 225.993 91.6162 225.378 91.6846C225.34 91.3013 225.311 91.0092 225.275 90.6591C226.684 90.2634 228.048 90.0832 229.426 90.5079C230.138 90.7275 230.62 91.2143 230.742 91.9726C230.801 92.3455 230.875 92.7225 230.879 93.0975C230.894 94.7777 230.885 96.4599 230.885 98.1442C230.251 98.3721 229.777 98.3182 229.481 97.9764C228.607 98.14 227.829 98.3824 227.042 98.4135C225.673 98.4694 224.953 97.6946 224.906 96.2962C224.858 94.8212 225.532 94.0484 226.96 93.9925C227.754 93.9635 228.552 93.9883 229.398 93.9883ZM229.472 95.1796C228.594 95.1796 227.836 95.1568 227.078 95.1879C226.578 95.2086 226.349 95.5504 226.324 96.0165C226.298 96.4682 226.281 96.9384 226.831 97.1332C227.661 97.4253 228.417 97.1456 229.127 96.7624C229.731 96.435 229.394 95.8487 229.472 95.1796Z" fill="#6E6E6E"/>
<path d="M152.557 97.9764C151.243 98.3638 150.051 98.5709 148.817 98.3472C147.395 98.0903 146.698 97.3984 146.601 96C146.526 94.9372 146.521 93.8578 146.604 92.795C146.713 91.3614 147.425 90.6032 148.882 90.3753C149.518 90.2758 150.213 90.3235 150.847 90.4582C151.955 90.6964 152.524 91.3718 152.616 92.4843C152.68 93.2342 152.629 93.9925 152.629 94.873C151.098 94.873 149.609 94.873 148.006 94.873C148.006 95.3308 147.968 95.6664 148.015 95.9917C148.105 96.6298 148.432 97.1353 149.143 97.1456C150.009 97.158 150.875 97.071 151.74 97.0151C151.909 97.0047 152.075 96.9384 152.315 96.8804C152.389 97.2368 152.463 97.5579 152.557 97.9764ZM148.027 93.6962C149.16 93.6962 150.22 93.6962 151.266 93.6962C151.433 92.1072 151.014 91.4982 149.79 91.4567C148.446 91.4111 147.937 92.0347 148.027 93.6962Z" fill="#6E6E6E"/>
<path d="M202.092 98.372C201.51 98.227 201.083 98.1213 200.609 98.0033C199.922 98.1358 199.145 98.3782 198.358 98.4135C196.98 98.4777 196.289 97.7857 196.214 96.4391C196.115 94.732 196.793 94.0049 198.509 93.9862C199.2 93.9779 199.891 93.9842 200.554 93.9842C201.041 91.6804 200.205 91.3344 198.343 91.496C197.825 91.5416 197.309 91.6203 196.721 91.6928C196.624 91.3759 196.54 91.0962 196.466 90.8538C196.561 90.7461 196.595 90.6632 196.652 90.6466C197.943 90.2717 199.246 90.0997 200.569 90.4726C201.523 90.7419 202.064 91.3614 202.083 92.3413C202.119 94.268 202.092 96.1926 202.092 98.372ZM200.617 95.1692C199.899 95.1692 199.242 95.1505 198.585 95.1733C197.829 95.2023 197.612 95.4509 197.618 96.2029C197.625 96.9177 197.892 97.2077 198.612 97.2409C198.817 97.2512 199.029 97.2119 199.232 97.1704C200.634 96.8949 200.75 96.7395 200.617 95.1692Z" fill="#6E6E6E"/>
<path d="M115.028 93.9882C115.141 93.8473 115.177 93.8245 115.179 93.7976C115.438 91.8233 114.903 91.2888 112.875 91.498C112.357 91.5519 111.843 91.6244 111.26 91.6969C111.163 91.3696 111.081 91.0857 110.965 90.6942C112.545 90.2633 114.063 89.9898 115.579 90.6735C116.226 90.9635 116.586 91.5374 116.592 92.2459C116.611 94.2036 116.599 96.1614 116.599 98.1606C116.066 98.3408 115.588 98.3947 115.293 97.9555C114.474 98.1254 113.735 98.3636 112.983 98.4154C111.567 98.5149 110.799 97.7815 110.752 96.4266C110.696 94.7526 111.306 94.0296 112.837 93.9903C113.602 93.9716 114.362 93.9882 115.028 93.9882ZM115.19 95.1836C114.39 95.1836 113.596 95.1483 112.808 95.2064C112.595 95.2209 112.311 95.4798 112.222 95.6911C111.936 96.381 112.231 97.046 112.829 97.2076C113.68 97.4376 115.135 96.8575 115.23 96.2505C115.24 96.1821 115.238 96.1138 115.236 96.0433C115.226 95.803 115.211 95.5648 115.19 95.1836Z" fill="#6E6E6E"/>
<path d="M89.1254 93.9886C89.2391 93.8498 89.2749 93.8249 89.2791 93.798C89.5382 91.8195 89.0075 91.2891 86.9815 91.4984C86.4634 91.5522 85.9474 91.6248 85.3556 91.6993C85.2756 91.3679 85.2082 91.084 85.1134 90.6925C86.6887 90.2533 88.2051 90.0005 89.7277 90.6842C90.309 90.9452 90.6712 91.4611 90.6818 92.0764C90.7197 94.1025 90.6965 96.1286 90.6965 98.2211C90.1721 98.2687 89.6877 98.451 89.4308 97.9621C88.5863 98.1278 87.8112 98.3806 87.0257 98.4158C85.5683 98.48 84.8733 97.7321 84.8544 96.2488C84.8354 94.7365 85.4672 94.0404 86.9351 93.9948C87.6954 93.9679 88.4599 93.9886 89.1254 93.9886ZM89.3171 95.1715C88.5168 95.1715 87.8218 95.1218 87.1394 95.1943C86.8509 95.2254 86.4297 95.4657 86.3539 95.6998C86.2401 96.0561 86.2401 96.572 86.4339 96.8703C86.7435 97.351 87.3332 97.3261 87.8597 97.1728C88.4051 97.0153 89.1022 97.0526 89.3002 96.3586C89.3908 96.0458 89.3171 95.6832 89.3171 95.1715Z" fill="#6E6E6E"/>
<path d="M172.55 90.5C172.969 90.5 173.348 90.5 173.795 90.5C173.795 93.0668 173.795 95.6005 173.795 98.1922C173.218 98.3601 172.723 98.3725 172.512 97.7696C171.516 98.0016 170.612 98.2855 169.684 98.4118C168.494 98.5734 167.738 97.9913 167.702 96.8187C167.639 94.7864 167.698 92.7499 167.71 90.7155C167.71 90.6554 167.771 90.5953 167.818 90.5104C168.18 90.5104 168.553 90.5104 169.037 90.5104C169.037 91.1982 169.037 91.8445 169.037 92.4909C169.037 93.6635 169.022 94.8382 169.041 96.0107C169.058 96.9948 169.374 97.2351 170.351 97.0611C170.455 97.0424 170.551 96.9989 170.655 96.9741C172.451 96.5266 172.451 96.5266 172.453 94.7263C172.455 93.4149 172.459 92.1035 172.466 90.7942C172.468 90.7279 172.502 90.6637 172.55 90.5Z" fill="#6E6E6E"/>
<path d="M209.56 97.7609C208.61 97.995 207.807 98.2477 206.986 98.3865C205.617 98.6165 204.804 98.0861 204.745 96.7582C204.653 94.703 204.72 92.6396 204.72 90.5244C205.185 90.5244 205.586 90.5244 206.099 90.5244C206.099 91.3676 206.099 92.1859 206.099 93.0042C206.099 94.038 206.083 95.0718 206.106 96.1056C206.127 96.9695 206.434 97.2285 207.296 97.0689C207.841 96.9695 208.368 96.7582 208.903 96.6028C209.381 96.464 209.532 96.1553 209.522 95.6726C209.494 94.3281 209.513 92.9835 209.513 91.6411C209.513 91.2992 209.513 90.9574 209.513 90.5431C209.966 90.5431 210.366 90.5431 210.848 90.5431C210.848 93.0478 210.848 95.5794 210.848 98.1773C210.311 98.3472 209.81 98.4176 209.56 97.7609Z" fill="#6E6E6E"/>
<path d="M139.23 97.9995C139.3 97.6432 139.357 97.3469 139.42 97.0217C140.307 97.1004 141.162 97.233 142.017 97.233C142.811 97.233 143.135 96.856 143.131 96.1764C143.127 95.6709 142.91 95.3187 142.398 95.1779C141.861 95.0287 141.315 94.9023 140.782 94.7366C139.675 94.3906 139.388 94.0115 139.35 92.87C139.34 92.5613 139.35 92.2505 139.369 91.9419C139.42 91.1588 139.847 90.676 140.608 90.4647C141.823 90.127 143.017 90.2555 144.306 90.5911C144.268 90.9454 144.232 91.2665 144.188 91.6725C143.79 91.627 143.451 91.5731 143.11 91.5524C142.587 91.5213 142.063 91.4737 141.543 91.5047C141.084 91.5317 140.785 91.7678 140.753 92.2899C140.707 93.0606 140.795 93.3568 141.357 93.5516C141.949 93.7567 142.566 93.8893 143.169 94.0654C143.994 94.3057 144.502 94.8132 144.489 95.6979C144.481 96.2096 144.462 96.7296 144.359 97.2268C144.245 97.7779 143.819 98.1176 143.282 98.2523C141.926 98.59 140.593 98.4532 139.23 97.9995Z" fill="#6E6E6E"/>
<path d="M127.607 97.077C127.67 97.4665 127.719 97.7627 127.771 98.0921C126.927 98.434 126.126 98.5334 125.282 98.3283C124.669 98.1792 124.286 97.8311 124.204 97.2158C124.14 96.7393 124.094 96.2587 124.09 95.778C124.075 94.4418 124.086 93.1055 124.086 91.7071C123.612 91.6657 123.241 91.6346 122.82 91.5973C122.82 91.2306 122.82 90.9033 122.82 90.5138C123.208 90.4828 123.578 90.4538 124.023 90.4185C124.063 89.8115 124.1 89.2397 124.143 88.5851C124.549 88.5146 124.945 88.4442 125.427 88.3613C125.474 89.0885 125.514 89.7245 125.562 90.462C126.306 90.462 126.992 90.462 127.765 90.462C127.721 90.9012 127.687 91.2244 127.647 91.5973C126.925 91.6326 126.274 91.6657 125.495 91.703C125.495 92.6083 125.495 93.4598 125.495 94.3113C125.495 94.9328 125.478 95.5522 125.501 96.1737C125.535 97.1039 125.811 97.3339 126.739 97.2345C126.977 97.2075 127.211 97.1495 127.607 97.077Z" fill="#6E6E6E"/>
<path d="M184.997 97.154C185.024 97.4959 185.049 97.7962 185.077 98.136C183.883 98.5503 182.712 98.5441 181.56 98.2106C180.563 97.9226 180.119 97.1271 180.073 96.1679C180.016 94.9642 180.01 93.7543 180.075 92.5528C180.14 91.3553 180.789 90.7089 181.989 90.4189C183.002 90.1744 183.992 90.2304 185.049 90.5701C185.035 90.9037 185.02 91.231 185.001 91.6371C184.422 91.5873 183.912 91.5148 183.4 91.5045C181.876 91.4734 181.467 91.8774 181.461 93.3794C181.456 94.1708 181.442 94.9642 181.467 95.7556C181.496 96.692 181.85 97.0794 182.785 97.1437C183.48 97.1913 184.18 97.154 184.997 97.154Z" fill="#6E6E6E"/>
<path d="M80.907 87.2698C81.3304 87.2242 81.7305 87.1807 82.2002 87.1289C82.2002 90.8621 82.2002 94.5042 82.2002 98.2084C81.7621 98.2084 81.3641 98.2084 80.907 98.2084C80.907 94.5705 80.907 90.9636 80.907 87.2698Z" fill="#6E6E6E"/>
<path d="M129.999 90.4934C130.383 90.4934 130.692 90.4934 131.057 90.4934C131.135 90.7503 131.21 90.9989 131.312 91.3263C131.985 90.9886 132.622 90.6675 133.35 90.3008C133.439 90.74 133.51 91.088 133.592 91.4941C133.045 91.8297 132.531 92.1757 131.988 92.4699C131.505 92.733 131.309 93.0769 131.331 93.6321C131.373 94.7984 131.343 95.969 131.343 97.1374C131.343 97.4751 131.343 97.8107 131.343 98.2105C130.861 98.2105 130.463 98.2105 129.997 98.2105C129.999 95.6541 129.999 93.1287 129.999 90.4934Z" fill="#6E6E6E"/>
<path d="M119.423 90.5117C119.842 90.5117 120.215 90.5117 120.672 90.5117C120.672 93.0723 120.672 95.6205 120.672 98.2226C120.246 98.2226 119.876 98.2226 119.423 98.2226C119.423 95.6806 119.423 93.1552 119.423 90.5117Z" fill="#6E6E6E"/>
<path d="M135.311 90.5146C135.785 90.5146 136.158 90.5146 136.591 90.5146C136.591 93.0856 136.591 95.611 136.591 98.1986C136.372 98.2255 136.174 98.267 135.977 98.269C135.776 98.2711 135.574 98.2338 135.309 98.209C135.311 95.6421 135.311 93.1167 135.311 90.5146Z" fill="#6E6E6E"/>
<path d="M118.393 89.6606C118.185 89.3644 118.05 89.1717 117.879 88.9272C118.614 88.4072 119.313 87.9142 120.038 87.4004C120.733 87.8893 121.407 88.3617 122.138 88.8775C122.015 89.124 121.902 89.3519 121.737 89.6855C121.15 89.3395 120.623 89.0287 120.057 88.6952C119.541 88.9935 119.008 89.3043 118.393 89.6606Z" fill="#6E6E6E"/>
<path d="M135.33 87.3691C135.787 87.3691 136.158 87.3691 136.589 87.3691C136.589 87.9575 136.589 88.4961 136.589 89.1259C136.204 89.1259 135.81 89.1259 135.33 89.1259C135.33 88.5852 135.33 88.0238 135.33 87.3691Z" fill="#6E6E6E"/>
<path d="M58.5633 40.2943C58.3653 40.1845 58.1652 40.0788 57.9694 39.9669C53.652 37.5037 48.5406 38.1335 45.0151 41.5911C39.1245 47.3691 33.257 53.1657 27.3559 58.9334C26.8336 59.443 26.6546 59.9547 26.6609 60.6591C26.6883 64.9745 26.6756 69.2898 26.6756 73.6052C26.6756 73.9801 26.6756 74.3551 26.6756 74.8876C25.8753 74.7985 25.153 74.7695 24.4538 74.6307C19.6225 73.6756 16.0148 69.3375 16.0022 64.4959C15.998 62.9069 16.0064 61.32 16.0001 59.731C15.9896 56.8347 16.9668 54.3052 19.0391 52.2521C25.1972 46.153 31.3553 40.0539 37.5807 34.0211C41.6833 30.0476 47.9951 29.9979 52.2241 33.8471C54.3596 35.7924 56.3709 37.8704 58.4369 39.8903C58.5233 39.9731 58.5822 40.0829 58.6538 40.1803C58.6244 40.2197 58.5949 40.257 58.5633 40.2943Z" fill="#D4101E"/>
<path d="M54.7471 88.1851C55.7475 87.806 56.5562 87.5781 57.2933 87.2093C61.1642 85.2702 63.2661 82.1295 63.344 77.8721C63.4493 72.0403 63.3608 66.2064 63.3861 60.3745C63.3882 59.7468 63.1229 59.3573 62.7101 58.9533C57.8156 54.1532 52.9317 49.3406 48.0351 44.5426C47.7656 44.2794 47.4054 44.1034 47.02 43.8423C48.7828 42.0876 50.6445 41.1367 52.8032 40.772C56.3603 40.1692 59.5047 41.0849 62.0888 43.5481C65.1868 46.5003 68.2216 49.5209 71.229 52.5642C73.1519 54.5095 73.9985 56.9396 74.0132 59.6225C74.0448 65.6615 74.0322 71.7026 74.0195 77.7416C74.0069 83.5776 69.3399 88.2016 63.4261 88.2431C60.9347 88.2597 58.4432 88.2514 55.9539 88.2472C55.6232 88.2452 55.2947 88.2141 54.7471 88.1851Z" fill="#EA721C"/>
<path d="M60.3154 77.806C60.3491 83.2587 55.8885 88.179 50.0463 88.2184C42.1212 88.2723 34.1962 88.2743 26.2711 88.2122C21.2166 88.1728 16.9435 84.4044 16.1811 79.4841C16.0821 78.8398 16.0273 78.1831 16.0231 77.5325C16.0063 74.7047 16.0168 71.8768 16.0947 69.0303C16.1958 69.4032 16.2969 69.7782 16.4022 70.1511C17.6595 74.6011 21.8969 77.7977 26.6144 77.8019C37.4142 77.8143 48.2161 77.806 59.0159 77.806C59.4287 77.806 59.8394 77.806 60.3154 77.806Z" fill="#FFCE12"/>
</svg>
