<svg width="264" height="132" viewBox="0 0 264 132" fill="none" xmlns="http://www.w3.org/2000/svg">
<path d="M103.348 87.3143V93.985H117.02V100.593H103.348V114.238H93.5111V80.7295H117.908V87.3143H103.348Z" fill="#044595"/>
<path d="M76.5167 87.3143V93.985H90.189V100.593H76.5167V114.238H66.6799V80.7295H91.0766V87.3143H76.5167Z" fill="#044595"/>
<path d="M135.232 107.97C136.259 107.97 137.095 107.84 137.738 107.579C138.398 107.318 138.911 106.981 139.279 106.567C139.647 106.153 139.9 105.685 140.038 105.164C140.176 104.643 140.245 104.517 140.245 103.981C140.245 103.367 140.161 103.219 139.992 102.728C139.839 102.238 139.563 101.824 139.164 101.486C138.781 101.149 138.267 100.888 137.624 100.704C136.98 100.521 136.167 100.429 135.186 100.429H129.758V107.97H135.232ZM129.758 86.9515V94.4239H133.806C134.664 94.4239 135.439 94.3626 136.129 94.24C136.819 94.1173 137.401 93.9027 137.876 93.596C138.367 93.2894 138.735 92.8677 138.98 92.3311C139.241 91.7945 139.371 91.1199 139.371 90.7107C139.371 90.3169 139.272 89.6577 139.072 89.1364C138.873 88.5997 138.566 88.1704 138.152 87.8485C137.738 87.5265 137.21 87.2965 136.566 87.1585C135.937 87.0205 135.186 86.9515 134.312 86.9515H129.758ZM136.127 80.7295C138.443 80.7295 140.413 80.9441 142.038 81.3734C143.663 81.8027 144.989 82.4084 146.017 83.1903C147.044 83.9722 147.788 84.9228 148.247 86.0421C148.723 87.1613 148.96 88.4109 148.96 89.7908C148.96 90.5421 148.853 91.2704 148.638 91.9756C148.424 92.6656 148.087 93.3172 147.627 93.9305C147.167 94.5284 146.576 95.0804 145.856 95.5864C145.135 96.0923 144.269 96.5293 143.257 96.8973C145.465 97.4339 147.098 98.3002 148.156 99.4961C149.213 100.692 149.742 102.241 149.742 104.142C149.742 105.568 149.466 106.894 148.914 108.12C148.362 109.347 147.55 110.42 146.477 111.34C145.419 112.245 144.108 112.958 142.544 113.479C140.98 113.985 139.194 114.238 137.185 114.238H120.573V80.7295H136.127Z" fill="#044595"/>
<path fill-rule="evenodd" clip-rule="evenodd" d="M148.946 44.0068C148.846 44.0154 148.745 44.024 148.644 44.0326C77.7929 50.0848 33.1478 86.0952 16.2017 106.168C16.1346 106.248 16.0673 106.328 16 106.407V114.051L16.2019 113.834C59.0713 67.737 122.014 56.8767 148.644 57.3474C148.744 57.3237 148.845 57.2999 148.946 57.276V44.0068Z" fill="#009144"/>
<path fill-rule="evenodd" clip-rule="evenodd" d="M60.5844 17L33.5513 36.1652V84.1266C41.1186 78.0654 50.1565 71.7928 60.5844 65.9139V17Z" fill="#044595"/>
<path fill-rule="evenodd" clip-rule="evenodd" d="M93.0644 37.9809L67.04 25.6748V62.4216C75.003 58.2918 83.6881 54.4329 93.0644 51.0755V37.9809Z" fill="#044595"/>
<path d="M157.419 80.749H248V114.036H157.419V80.749Z" fill="#044595"/>
<path d="M174.566 86.1283V87.766H176.776V88.9244H174.566V91.4409H173.057V84.9743H177.22V86.1283H174.566Z" fill="white"/>
<path d="M180.126 86.1283V87.6373H182.159V88.7469H180.126V90.2869H182.78V91.4409H178.617V84.9743H182.78V86.1283H180.126Z" fill="white"/>
<path d="M190.105 88.2054C190.105 88.6729 190.024 89.1049 189.861 89.5014C189.701 89.8949 189.475 90.2366 189.182 90.5266C188.889 90.8136 188.536 91.0385 188.121 91.2012C187.71 91.361 187.253 91.4409 186.75 91.4409H184.238V84.9743H186.75C187.253 84.9743 187.71 85.0557 188.121 85.2184C188.536 85.3812 188.889 85.606 189.182 85.8931C189.475 86.1801 189.701 86.5218 189.861 86.9183C190.024 87.3118 190.105 87.7408 190.105 88.2054ZM188.57 88.2054C188.57 87.8858 188.528 87.5973 188.445 87.3399C188.362 87.0825 188.243 86.865 188.086 86.6875C187.932 86.507 187.743 86.3694 187.518 86.2747C187.293 86.1771 187.037 86.1283 186.75 86.1283H185.747V90.2869H186.75C187.037 90.2869 187.293 90.2396 187.518 90.1449C187.743 90.0473 187.932 89.9097 188.086 89.7321C188.243 89.5517 188.362 89.3327 188.445 89.0753C188.528 88.8179 188.57 88.5279 188.57 88.2054Z" fill="white"/>
<path d="M193.032 86.1283V87.6373H195.065V88.7469H193.032V90.2869H195.686V91.4409H191.523V84.9743H195.686V86.1283H193.032Z" fill="white"/>
<path d="M199.248 88.0145C199.452 88.0145 199.625 87.9894 199.767 87.9391C199.912 87.8858 200.031 87.8133 200.122 87.7216C200.214 87.6299 200.281 87.5234 200.322 87.4021C200.363 87.2778 200.384 87.1446 200.384 87.0026C200.384 86.7186 200.291 86.4967 200.104 86.3369C199.921 86.1771 199.636 86.0972 199.248 86.0972H198.644V88.0145H199.248ZM202.435 91.4409H201.076C200.825 91.4409 200.644 91.3462 200.535 91.1568L199.461 89.2794C199.411 89.1996 199.354 89.1419 199.292 89.1064C199.23 89.0679 199.141 89.0487 199.026 89.0487H198.644V91.4409H197.144V84.9743H199.248C199.715 84.9743 200.113 85.0232 200.442 85.1208C200.773 85.2155 201.042 85.3486 201.25 85.5202C201.46 85.6919 201.612 85.8945 201.707 86.1283C201.801 86.362 201.849 86.6165 201.849 86.8917C201.849 87.1017 201.821 87.3 201.764 87.4864C201.708 87.6728 201.625 87.8459 201.516 88.0057C201.406 88.1625 201.27 88.303 201.108 88.4273C200.948 88.5516 200.763 88.6537 200.553 88.7335C200.65 88.7838 200.742 88.8475 200.828 88.9244C200.914 88.9984 200.991 89.0871 201.059 89.1907L202.435 91.4409Z" fill="white"/>
<path d="M206.928 88.9688L206.329 87.1979C206.285 87.0855 206.237 86.9538 206.187 86.8029C206.137 86.649 206.086 86.4833 206.036 86.3058C205.992 86.4863 205.944 86.6535 205.894 86.8073C205.844 86.9612 205.796 87.0943 205.752 87.2068L205.157 88.9688H206.928ZM209.311 91.4409H208.149C208.018 91.4409 207.913 91.4113 207.834 91.3521C207.754 91.29 207.693 91.2116 207.652 91.1169L207.27 89.9896H204.811L204.429 91.1169C204.397 91.1997 204.338 91.2752 204.252 91.3432C204.169 91.4083 204.065 91.4409 203.941 91.4409H202.769L205.273 84.9743H206.808L209.311 91.4409Z" fill="white"/>
<path d="M214.368 86.1638H212.548V91.4409H211.048V86.1638H209.228V84.9743H214.368V86.1638Z" fill="white"/>
<path d="M217.172 91.4409H215.663V84.9743H217.172V91.4409Z" fill="white"/>
<path d="M225.299 88.2054C225.299 88.6729 225.217 89.1078 225.055 89.5102C224.895 89.9126 224.668 90.2633 224.376 90.5621C224.083 90.858 223.729 91.0903 223.315 91.2589C222.904 91.4276 222.446 91.5119 221.943 91.5119C221.44 91.5119 220.982 91.4276 220.568 91.2589C220.153 91.0903 219.798 90.858 219.502 90.5621C219.209 90.2633 218.982 89.9126 218.819 89.5102C218.659 89.1078 218.579 88.6729 218.579 88.2054C218.579 87.7379 218.659 87.3029 218.819 86.9005C218.982 86.4981 219.209 86.149 219.502 85.8531C219.798 85.5572 220.153 85.325 220.568 85.1563C220.982 84.9876 221.44 84.9033 221.943 84.9033C222.446 84.9033 222.904 84.9891 223.315 85.1607C223.729 85.3294 224.083 85.5617 224.376 85.8575C224.668 86.1534 224.895 86.5026 225.055 86.905C225.217 87.3074 225.299 87.7408 225.299 88.2054ZM223.763 88.2054C223.763 87.8858 223.722 87.5988 223.639 87.3444C223.556 87.0869 223.436 86.8695 223.279 86.6919C223.125 86.5144 222.936 86.3783 222.711 86.2836C222.486 86.1889 222.23 86.1416 221.943 86.1416C221.653 86.1416 221.394 86.1889 221.167 86.2836C220.942 86.3783 220.751 86.5144 220.594 86.6919C220.44 86.8695 220.322 87.0869 220.239 87.3444C220.156 87.5988 220.115 87.8858 220.115 88.2054C220.115 88.5279 220.156 88.8179 220.239 89.0753C220.322 89.3297 220.44 89.5457 220.594 89.7233C220.751 89.9008 220.942 90.0369 221.167 90.1316C221.394 90.2233 221.653 90.2692 221.943 90.2692C222.23 90.2692 222.486 90.2233 222.711 90.1316C222.936 90.0369 223.125 89.9008 223.279 89.7233C223.436 89.5457 223.556 89.3297 223.639 89.0753C223.722 88.8179 223.763 88.5279 223.763 88.2054Z" fill="white"/>
<path d="M232.36 84.9743V91.4409H231.578C231.463 91.4409 231.365 91.4231 231.285 91.3876C231.209 91.3492 231.132 91.2841 231.055 91.1923L228.006 87.3355C228.017 87.4509 228.025 87.5633 228.028 87.6728C228.034 87.7793 228.037 87.8799 228.037 87.9746V91.4409H226.714V84.9743H227.504C227.569 84.9743 227.624 84.9773 227.668 84.9832C227.713 84.9891 227.753 85.001 227.788 85.0187C227.824 85.0335 227.858 85.0557 227.89 85.0853C227.923 85.1149 227.96 85.1548 228.001 85.2051L231.077 89.0886C231.062 88.9643 231.052 88.8445 231.046 88.7291C231.04 88.6107 231.037 88.4998 231.037 88.3962V84.9743H232.36Z" fill="white"/>
<path d="M178.234 95.61V97.2477H180.444V98.4061H178.234V100.923H176.725V94.4561H180.888V95.61H178.234Z" fill="white"/>
<path d="M184.389 97.4963C184.593 97.4963 184.767 97.4711 184.909 97.4208C185.054 97.3676 185.172 97.2951 185.264 97.2034C185.355 97.1116 185.422 97.0051 185.463 96.8838C185.505 96.7595 185.525 96.6264 185.525 96.4844C185.525 96.2003 185.432 95.9784 185.246 95.8186C185.062 95.6588 184.777 95.579 184.389 95.579H183.786V97.4963H184.389ZM187.576 100.923H186.218C185.966 100.923 185.786 100.828 185.676 100.639L184.602 98.7612C184.552 98.6813 184.496 98.6236 184.434 98.5881C184.372 98.5496 184.283 98.5304 184.167 98.5304H183.786V100.923H182.286V94.4561H184.389C184.857 94.4561 185.255 94.5049 185.583 94.6025C185.915 94.6972 186.184 94.8304 186.391 95.002C186.601 95.1736 186.753 95.3763 186.848 95.61C186.943 95.8438 186.99 96.0982 186.99 96.3734C186.99 96.5835 186.962 96.7817 186.906 96.9681C186.85 97.1545 186.767 97.3276 186.657 97.4874C186.548 97.6442 186.412 97.7848 186.249 97.909C186.089 98.0333 185.904 98.1354 185.694 98.2153C185.792 98.2656 185.883 98.3292 185.969 98.4061C186.055 98.4801 186.132 98.5689 186.2 98.6724L187.576 100.923Z" fill="white"/>
<path d="M192.069 98.4505L191.47 96.6796C191.426 96.5672 191.379 96.4355 191.328 96.2846C191.278 96.1308 191.228 95.9651 191.177 95.7875C191.133 95.968 191.086 96.1352 191.035 96.2891C190.985 96.4429 190.938 96.5761 190.893 96.6885L190.299 98.4505H192.069ZM194.453 100.923H193.29C193.16 100.923 193.055 100.893 192.975 100.834C192.895 100.772 192.834 100.693 192.793 100.599L192.411 99.4713H189.952L189.571 100.599C189.538 100.681 189.479 100.757 189.393 100.825C189.31 100.89 189.207 100.923 189.083 100.923H187.911L190.414 94.4561H191.95L194.453 100.923Z" fill="white"/>
<path d="M201.141 94.4561V100.923H200.36C200.244 100.923 200.147 100.905 200.067 100.869C199.99 100.831 199.913 100.766 199.836 100.674L196.787 96.8172C196.799 96.9326 196.806 97.0451 196.809 97.1545C196.815 97.2611 196.818 97.3617 196.818 97.4563V100.923H195.495V94.4561H196.285C196.35 94.4561 196.405 94.459 196.449 94.4649C196.494 94.4709 196.534 94.4827 196.569 94.5005C196.605 94.5152 196.639 94.5374 196.671 94.567C196.704 94.5966 196.741 94.6366 196.782 94.6869L199.858 98.5703C199.843 98.4461 199.833 98.3262 199.827 98.2108C199.821 98.0925 199.818 97.9815 199.818 97.878V94.4561H201.141Z" fill="white"/>
<path d="M208.09 99.964C207.862 100.263 207.581 100.498 207.246 100.67C206.915 100.838 206.529 100.942 206.088 100.98L206.044 101.145C206.186 101.18 206.303 101.221 206.394 101.269C206.489 101.316 206.563 101.368 206.616 101.424C206.672 101.483 206.712 101.547 206.736 101.615C206.76 101.683 206.771 101.754 206.771 101.828C206.771 101.932 206.742 102.025 206.683 102.108C206.626 102.19 206.547 102.261 206.443 102.321C206.339 102.38 206.214 102.424 206.066 102.454C205.921 102.486 205.76 102.503 205.582 102.503C205.461 102.503 205.348 102.497 205.245 102.485C205.144 102.473 205.038 102.455 204.925 102.432L205.049 102.019C205.067 101.939 205.117 101.899 205.2 101.899C205.245 101.899 205.288 101.903 205.329 101.912C205.37 101.924 205.422 101.93 205.484 101.93C205.561 101.93 205.616 101.917 205.649 101.89C205.681 101.864 205.697 101.834 205.697 101.801C205.697 101.736 205.652 101.689 205.56 101.659C205.471 101.63 205.319 101.599 205.103 101.566L205.307 100.971C204.878 100.927 204.493 100.813 204.153 100.63C203.816 100.446 203.529 100.21 203.292 99.9196C203.058 99.6296 202.879 99.2953 202.755 98.9165C202.631 98.5378 202.568 98.128 202.568 97.6871C202.568 97.2048 202.647 96.7625 202.804 96.3601C202.96 95.9547 203.181 95.6056 203.465 95.3127C203.749 95.0197 204.089 94.7919 204.486 94.6292C204.882 94.4664 205.319 94.3851 205.795 94.3851C206.038 94.3851 206.266 94.4073 206.479 94.4516C206.695 94.4931 206.896 94.5522 207.082 94.6292C207.269 94.7031 207.44 94.7934 207.597 94.8999C207.754 95.0064 207.893 95.1218 208.014 95.2461L207.508 95.9251C207.476 95.9666 207.437 96.005 207.393 96.0405C207.348 96.0731 207.286 96.0894 207.206 96.0894C207.153 96.0894 207.103 96.0775 207.056 96.0538C207.008 96.0302 206.958 96.0021 206.905 95.9695C206.851 95.934 206.792 95.897 206.727 95.8586C206.665 95.8171 206.59 95.7802 206.501 95.7476C206.415 95.7121 206.313 95.6825 206.195 95.6588C206.079 95.6352 205.943 95.6233 205.786 95.6233C205.538 95.6233 205.31 95.6692 205.103 95.7609C204.899 95.8526 204.721 95.9873 204.57 96.1648C204.422 96.3394 204.307 96.5554 204.224 96.8128C204.144 97.0672 204.104 97.3587 204.104 97.6871C204.104 98.0185 204.148 98.3129 204.237 98.5703C204.329 98.8278 204.452 99.0452 204.606 99.2228C204.762 99.3973 204.944 99.5305 205.152 99.6222C205.359 99.7139 205.581 99.7598 205.817 99.7598C205.953 99.7598 206.078 99.7539 206.19 99.742C206.303 99.7272 206.408 99.7051 206.505 99.6755C206.603 99.6429 206.695 99.6015 206.78 99.5512C206.866 99.4979 206.953 99.4314 207.042 99.3515C207.078 99.3219 207.116 99.2982 207.158 99.2805C207.199 99.2598 207.242 99.2494 207.286 99.2494C207.322 99.2494 207.357 99.2568 207.393 99.2716C207.428 99.2834 207.462 99.3056 207.495 99.3382L208.09 99.964Z" fill="white"/>
<path d="M212.695 98.4505L212.095 96.6796C212.051 96.5672 212.004 96.4355 211.953 96.2846C211.903 96.1308 211.853 95.9651 211.802 95.7875C211.758 95.968 211.711 96.1352 211.66 96.2891C211.61 96.4429 211.563 96.5761 211.518 96.6885L210.924 98.4505H212.695ZM215.078 100.923H213.915C213.785 100.923 213.68 100.893 213.6 100.834C213.52 100.772 213.459 100.693 213.418 100.599L213.036 99.4713H210.577L210.196 100.599C210.163 100.681 210.104 100.757 210.018 100.825C209.935 100.89 209.832 100.923 209.708 100.923H208.536L211.039 94.4561H212.575L215.078 100.923Z" fill="white"/>
<path d="M217.629 100.923H216.12V94.4561H217.629V100.923Z" fill="white"/>
<path d="M222.982 95.7698C222.938 95.8408 222.891 95.8941 222.84 95.9296C222.793 95.9651 222.731 95.9828 222.654 95.9828C222.586 95.9828 222.512 95.9621 222.432 95.9207C222.355 95.8763 222.266 95.8275 222.166 95.7742C222.068 95.721 221.956 95.6736 221.828 95.6322C221.701 95.5878 221.556 95.5656 221.393 95.5656C221.112 95.5656 220.902 95.6263 220.763 95.7476C220.627 95.866 220.559 96.0272 220.559 96.2314C220.559 96.3616 220.6 96.4696 220.683 96.5554C220.766 96.6412 220.874 96.7151 221.007 96.7773C221.143 96.8394 221.297 96.8971 221.469 96.9504C221.643 97.0007 221.821 97.0584 222.001 97.1235C222.182 97.1856 222.358 97.2596 222.53 97.3454C222.704 97.4312 222.858 97.5407 222.991 97.6738C223.127 97.807 223.237 97.9697 223.32 98.162C223.402 98.3514 223.444 98.5807 223.444 98.85C223.444 99.1488 223.392 99.4284 223.289 99.6888C223.185 99.9492 223.034 100.177 222.836 100.372C222.641 100.565 222.398 100.717 222.108 100.829C221.821 100.939 221.494 100.994 221.127 100.994C220.926 100.994 220.72 100.973 220.51 100.931C220.303 100.89 220.102 100.832 219.907 100.758C219.711 100.681 219.528 100.591 219.356 100.488C219.185 100.384 219.035 100.269 218.908 100.141L219.352 99.4402C219.387 99.3899 219.433 99.3485 219.489 99.316C219.549 99.2805 219.612 99.2627 219.68 99.2627C219.769 99.2627 219.858 99.2908 219.947 99.347C220.038 99.4033 220.14 99.4654 220.253 99.5334C220.368 99.6015 220.5 99.6636 220.648 99.7198C220.796 99.7761 220.97 99.8042 221.171 99.8042C221.444 99.8042 221.655 99.745 221.806 99.6266C221.957 99.5053 222.033 99.3145 222.033 99.0541C222.033 98.9032 221.991 98.7804 221.908 98.6857C221.825 98.5911 221.716 98.5126 221.58 98.4505C221.447 98.3884 221.294 98.3336 221.123 98.2863C220.951 98.2389 220.775 98.1872 220.595 98.131C220.414 98.0718 220.238 98.0008 220.066 97.9179C219.895 97.8321 219.741 97.7212 219.605 97.585C219.472 97.446 219.364 97.2744 219.281 97.0702C219.198 96.8631 219.157 96.6086 219.157 96.3068C219.157 96.0642 219.205 95.8275 219.303 95.5967C219.401 95.3659 219.544 95.1603 219.733 94.9798C219.923 94.7993 220.155 94.6558 220.43 94.5493C220.705 94.4398 221.021 94.3851 221.376 94.3851C221.574 94.3851 221.766 94.4013 221.953 94.4339C222.142 94.4635 222.321 94.5093 222.49 94.5715C222.658 94.6306 222.815 94.7031 222.96 94.7889C223.108 94.8718 223.24 94.9665 223.355 95.073L222.982 95.7698Z" fill="white"/>
<path d="M226.366 95.61V97.119H228.399V98.2286H226.366V99.7687H229.02V100.923H224.857V94.4561H229.02V95.61H226.366Z" fill="white"/>
<path d="M176.014 107.169C176.014 107.636 175.932 108.068 175.77 108.465C175.61 108.858 175.384 109.2 175.091 109.49C174.798 109.777 174.444 110.002 174.03 110.165C173.619 110.324 173.161 110.404 172.658 110.404H170.146V103.938H172.658C173.161 103.938 173.619 104.019 174.03 104.182C174.444 104.345 174.798 104.57 175.091 104.857C175.384 105.144 175.61 105.485 175.77 105.882C175.932 106.275 176.014 106.704 176.014 107.169ZM174.478 107.169C174.478 106.849 174.437 106.561 174.354 106.303C174.271 106.046 174.151 105.829 173.994 105.651C173.84 105.47 173.651 105.333 173.426 105.238C173.201 105.141 172.945 105.092 172.658 105.092H171.655V109.25H172.658C172.945 109.25 173.201 109.203 173.426 109.108C173.651 109.011 173.84 108.873 173.994 108.696C174.151 108.515 174.271 108.296 174.354 108.039C174.437 107.781 174.478 107.491 174.478 107.169Z" fill="white"/>
<path d="M180.13 109.219C180.331 109.219 180.51 109.187 180.667 109.122C180.827 109.054 180.962 108.957 181.071 108.833C181.181 108.709 181.263 108.558 181.32 108.381C181.379 108.2 181.408 107.996 181.408 107.768V103.938H182.909V107.768C182.909 108.165 182.843 108.528 182.713 108.86C182.586 109.191 182.403 109.477 182.163 109.716C181.923 109.956 181.632 110.142 181.289 110.276C180.945 110.409 180.559 110.475 180.13 110.475C179.698 110.475 179.311 110.409 178.967 110.276C178.624 110.142 178.333 109.956 178.093 109.716C177.853 109.477 177.67 109.191 177.543 108.86C177.415 108.528 177.352 108.165 177.352 107.768V103.938H178.852V107.764C178.852 107.991 178.88 108.196 178.936 108.376C178.995 108.554 179.08 108.706 179.189 108.833C179.299 108.957 179.432 109.054 179.589 109.122C179.748 109.187 179.929 109.219 180.13 109.219Z" fill="white"/>
<path d="M189.756 109.273C189.955 109.273 190.116 109.247 190.24 109.197C190.367 109.147 190.467 109.082 190.538 109.002C190.609 108.922 190.657 108.832 190.684 108.731C190.711 108.631 190.724 108.528 190.724 108.425C190.724 108.307 190.708 108.2 190.675 108.105C190.646 108.011 190.592 107.931 190.515 107.866C190.441 107.801 190.342 107.75 190.218 107.715C190.094 107.679 189.937 107.662 189.748 107.662H188.7V109.273H189.756ZM188.7 105.061V106.658H189.481C189.647 106.658 189.796 106.647 189.93 106.623C190.063 106.599 190.175 106.558 190.267 106.499C190.362 106.44 190.433 106.358 190.48 106.255C190.53 106.151 190.555 106.021 190.555 105.864C190.555 105.71 190.536 105.583 190.498 105.482C190.459 105.379 190.4 105.296 190.32 105.234C190.24 105.172 190.138 105.127 190.014 105.101C189.893 105.074 189.748 105.061 189.579 105.061H188.7ZM189.579 103.938C190.026 103.938 190.406 103.979 190.72 104.062C191.033 104.145 191.289 104.262 191.487 104.413C191.686 104.564 191.829 104.747 191.918 104.963C192.01 105.179 192.055 105.42 192.055 105.686C192.055 105.831 192.035 105.972 191.993 106.108C191.952 106.241 191.887 106.367 191.798 106.485C191.709 106.601 191.595 106.707 191.456 106.805C191.317 106.903 191.15 106.987 190.955 107.058C191.381 107.161 191.696 107.329 191.9 107.559C192.104 107.79 192.206 108.089 192.206 108.456C192.206 108.731 192.153 108.987 192.047 109.224C191.94 109.46 191.783 109.668 191.576 109.845C191.372 110.02 191.119 110.157 190.817 110.258C190.515 110.356 190.171 110.404 189.783 110.404H187.2V103.938H189.579Z" fill="white"/>
<path d="M196.984 107.932L196.385 106.161C196.34 106.049 196.293 105.917 196.243 105.766C196.192 105.613 196.142 105.447 196.092 105.269C196.047 105.45 196 105.617 195.95 105.771C195.9 105.925 195.852 106.058 195.808 106.17L195.213 107.932H196.984ZM199.367 110.404H198.204C198.074 110.404 197.969 110.375 197.889 110.316C197.809 110.253 197.749 110.175 197.707 110.08L197.326 108.953H194.867L194.485 110.08C194.453 110.163 194.394 110.239 194.308 110.307C194.225 110.372 194.121 110.404 193.997 110.404H192.825L195.329 103.938H196.864L199.367 110.404Z" fill="white"/>
<path d="M204.424 105.127H202.604V110.404H201.104V105.127H199.284V103.938H204.424V105.127Z" fill="white"/>
<path d="M207.228 110.404H205.719V103.938H207.228V110.404Z" fill="white"/>
<path d="M216.278 103.938V110.404H214.955V106.685C214.955 106.599 214.957 106.506 214.96 106.405C214.965 106.305 214.974 106.203 214.986 106.099L213.269 109.424C213.215 109.527 213.143 109.605 213.051 109.659C212.962 109.712 212.86 109.739 212.745 109.739H212.541C212.425 109.739 212.322 109.712 212.23 109.659C212.141 109.605 212.07 109.527 212.017 109.424L210.299 106.09C210.308 106.197 210.316 106.302 210.322 106.405C210.327 106.506 210.33 106.599 210.33 106.685V110.404H209.008V103.938H210.153C210.218 103.938 210.274 103.939 210.322 103.942C210.372 103.945 210.416 103.954 210.455 103.969C210.493 103.984 210.527 104.007 210.557 104.04C210.589 104.069 210.62 104.112 210.65 104.169L212.314 107.448C212.374 107.561 212.43 107.678 212.483 107.799C212.539 107.92 212.592 108.045 212.643 108.172C212.693 108.042 212.745 107.914 212.798 107.79C212.854 107.666 212.914 107.548 212.976 107.435L214.636 104.169C214.665 104.112 214.695 104.069 214.724 104.04C214.757 104.007 214.792 103.984 214.831 103.969C214.869 103.954 214.912 103.945 214.96 103.942C215.01 103.939 215.068 103.938 215.133 103.938H216.278Z" fill="white"/>
<path d="M219.571 105.092V106.601H221.603V107.71H219.571V109.25H222.225V110.404H218.062V103.938H222.225V105.092H219.571Z" fill="white"/>
<path d="M229.328 103.938V110.404H228.547C228.431 110.404 228.334 110.387 228.254 110.351C228.177 110.313 228.1 110.248 228.023 110.156L224.974 106.299C224.986 106.414 224.993 106.527 224.996 106.636C225.002 106.743 225.005 106.843 225.005 106.938V110.404H223.683V103.938H224.473C224.538 103.938 224.592 103.941 224.637 103.947C224.681 103.953 224.721 103.964 224.757 103.982C224.792 103.997 224.826 104.019 224.859 104.049C224.891 104.078 224.928 104.118 224.97 104.169L228.045 108.052C228.031 107.928 228.02 107.808 228.014 107.693C228.008 107.574 228.005 107.463 228.005 107.36V103.938H229.328Z" fill="white"/>
<path d="M235.762 105.127H233.942V110.404H232.442V105.127H230.623V103.938H235.762V105.127Z" fill="white"/>
</svg>
