<svg width="264" height="132" viewBox="0 0 264 132" fill="none" xmlns="http://www.w3.org/2000/svg">
<path d="M75.297 80.4755C74.1619 80.4755 73.1953 80.5199 72.2353 80.4642C71.0722 80.3972 70.1158 79.5554 69.8417 78.4087C69.7406 77.9869 69.7041 77.5396 69.7041 77.1035C69.6966 67.7671 69.6985 58.4297 69.6985 49.0933C69.6985 48.7847 69.6985 48.4761 69.6985 48.1099C70.0064 48.0806 70.244 48.0391 70.4817 48.0391C73.9738 48.0344 77.466 47.9985 80.9572 48.0495C83.1496 48.0816 85.3064 48.4534 87.3304 49.35C88.1211 49.7001 88.894 50.1437 89.5817 50.6684C91.0358 51.7773 91.7685 53.2948 91.7751 55.1464C91.7797 56.5922 91.7835 58.039 91.7732 59.4848C91.761 61.3581 91.0106 62.8889 89.6182 64.111C88.5159 65.0784 87.2218 65.6777 85.8398 66.1108C85.6086 66.1835 85.3794 66.2618 85.0612 66.3666C88.6937 72.2244 92.2832 78.0133 95.9437 83.9164C95.546 83.9476 95.3074 83.9815 95.0698 83.9834C94.1658 83.99 93.2601 83.9523 92.3571 83.9929C90.3247 84.0854 88.9295 83.152 87.9433 81.407C86.1551 78.2398 84.323 75.0972 82.5095 71.9451C80.9768 69.2818 79.4422 66.6195 77.9114 63.9553C77.7579 63.6892 77.6213 63.4127 77.4098 63.0144C77.8346 62.9955 78.1575 62.9833 78.4803 62.9672C79.8464 62.8993 81.2154 62.8625 82.5778 62.7436C83.0607 62.7011 83.5444 62.4982 83.9973 62.2991C85.4861 61.645 86.2824 60.5144 86.259 58.8402C86.2459 57.8663 86.2562 56.8914 86.2562 55.9165C86.2562 54.4131 85.5628 53.3552 84.2434 52.6767C83.1327 52.1057 81.935 51.9037 80.7167 51.8707C79.0342 51.8245 77.3499 51.8603 75.6666 51.866C75.5786 51.866 75.4906 51.9075 75.297 51.9566C75.297 61.4157 75.297 70.889 75.297 80.4755Z" fill="#856E5A"/>
<path d="M210.859 48.1665C213.224 47.6314 214.972 48.4402 216.382 50.1361C216.762 50.5929 217.126 51.0657 217.469 51.5517C221.719 57.5671 225.965 63.5863 230.212 69.6036C230.442 69.9292 230.683 70.2463 231.02 70.5464C231.126 69.0412 231.12 67.5548 231.12 66.0684C231.121 64.5905 231.12 63.1135 231.12 61.6356C231.12 60.1266 231.12 58.6175 231.12 57.1085C231.12 55.6306 231.12 54.1536 231.12 52.6757C231.12 51.1714 231.12 49.668 231.12 48.0797C232.112 48.0797 233.043 47.9976 233.954 48.1014C234.968 48.2175 235.627 49.0329 235.761 50.1078C235.792 50.356 235.778 50.6099 235.778 50.8619C235.779 60.388 235.779 69.9141 235.779 79.4403C235.779 79.7479 235.779 80.0565 235.779 80.4001C233.973 80.6728 232.349 80.5322 231.042 79.1949C230.453 78.5928 229.868 77.9718 229.382 77.2866C225.007 71.1287 220.656 64.9538 216.297 58.7855C216.101 58.5081 215.892 58.24 215.703 57.9843C215.621 58.0107 215.591 58.0145 215.567 58.0286C215.543 58.0437 215.506 58.0683 215.506 58.089C215.503 65.5069 215.503 72.9237 215.503 80.4538C214.446 80.4916 213.457 80.5954 212.486 80.3906C211.57 80.1981 211.003 79.4742 210.894 78.5173C210.858 78.2059 210.86 77.8897 210.86 77.5754C210.858 68.0804 210.858 58.5864 210.858 49.0914C210.859 48.7818 210.859 48.4714 210.859 48.1665Z" fill="#856E5A"/>
<path d="M177.721 62.965C178.958 62.965 180.013 62.964 181.068 62.965C182.235 62.9659 183.362 62.7602 184.428 62.2666C185.871 61.5985 186.647 60.4971 186.616 58.8578C186.598 57.8839 186.601 56.909 186.616 55.9341C186.638 54.375 185.903 53.2879 184.539 52.6499C183.924 52.362 183.255 52.1327 182.587 52.0317C180.328 51.692 178.054 51.9043 175.653 51.8505C175.595 54.3024 175.633 56.6778 175.626 59.0522C175.62 61.4097 175.624 63.7681 175.624 66.1256C175.624 68.5151 175.624 70.9038 175.624 73.2933C175.624 75.6479 175.624 78.0026 175.624 80.4724C174.454 80.478 173.336 80.6026 172.238 80.4016C171.018 80.1789 170.185 79.1181 170.107 77.8648C170.091 77.6138 170.097 77.3618 170.097 77.1108C170.097 67.7734 170.097 58.4369 170.096 49.0995C170.096 48.7881 170.096 48.4767 170.096 48.1058C170.389 48.0784 170.628 48.0378 170.866 48.0378C174.328 48.034 177.789 48.0001 181.249 48.0473C183.474 48.0775 185.655 48.4644 187.717 49.3515C188.315 49.6091 188.901 49.9206 189.442 50.282C191.011 51.3277 192.024 52.7697 192.102 54.7016C192.173 56.4871 192.16 58.2821 192.078 60.0677C191.997 61.8353 191.096 63.2132 189.75 64.3061C188.691 65.1667 187.473 65.7141 186.182 66.1152C185.951 66.1869 185.725 66.2709 185.429 66.3719C188.001 71.068 190.54 75.7017 193.125 80.4233C191.446 80.4233 189.889 80.5488 188.362 80.3855C186.987 80.2393 186.003 79.3068 185.367 78.063C184.04 75.4658 182.725 72.863 181.405 70.262C180.37 68.2207 179.336 66.1784 178.302 64.1352C178.132 63.8059 177.971 63.4718 177.721 62.965Z" fill="#856E5A"/>
<path d="M63.5545 64.3352C63.5545 66.2208 63.5573 68.1063 63.5536 69.9919C63.5498 71.9795 63.0689 73.8537 62.1369 75.5949C60.403 78.8339 57.5752 80.3089 54.0344 80.4618C51.8879 80.5543 49.7329 80.5364 47.5845 80.4675C42.6925 80.3108 39.2163 77.2408 38.2637 72.2786C38.1112 71.4821 38.0251 70.6601 38.0195 69.8485C37.9942 66.1094 38.0045 62.3693 38.0101 58.6302C38.0129 56.5125 38.536 54.5231 39.5737 52.6884C41.0101 50.1488 43.2146 48.687 46.0564 48.2368C47.0352 48.082 48.0411 48.0443 49.0349 48.048C51.0579 48.0537 53.0968 47.982 55.1021 48.1981C59.0275 48.62 61.5614 50.9114 62.8714 54.6146C63.3346 55.9236 63.5713 57.2797 63.5582 58.6802C63.5414 60.564 63.5554 62.4496 63.5545 64.3352ZM58.4099 64.2606C58.4099 62.3448 58.4239 60.429 58.4024 58.5132C58.3949 57.8252 58.3472 57.1306 58.2368 56.453C57.796 53.7369 56.0734 51.9089 53.3878 51.4021C51.6979 51.0831 49.9706 51.0869 48.2797 51.3842C45.6017 51.8551 43.9698 53.5048 43.4065 56.1803C43.2465 56.9419 43.1772 57.7356 43.1725 58.5151C43.1491 62.2523 43.1557 65.9905 43.1679 69.7277C43.1697 70.4166 43.2109 71.1093 43.296 71.7926C43.6507 74.6389 45.3949 76.5878 48.1908 77.12C49.9088 77.4466 51.6699 77.439 53.3907 77.12C55.9405 76.6472 57.5387 75.0749 58.131 72.5268C58.3004 71.8002 58.3846 71.0395 58.3987 70.2921C58.4333 68.2809 58.4099 66.2708 58.4099 64.2606Z" fill="#856E5A"/>
<path d="M118.53 48.0361C118.121 49.3649 117.755 50.5587 117.357 51.8545C117.04 51.8545 116.737 51.8545 116.435 51.8545C114.533 51.8545 112.63 51.813 110.729 51.8724C109.804 51.9017 108.853 52.0093 107.969 52.2707C104.825 53.2012 102.902 55.7465 102.623 59.2553C102.554 60.1311 102.574 61.0144 102.572 61.894C102.567 64.629 102.55 67.3649 102.583 70.0999C102.593 70.9417 102.656 71.8052 102.857 72.6187C103.462 75.0734 105.029 76.589 107.494 77.1119C108.943 77.4195 110.424 77.4101 111.865 77.1845C115.013 76.6928 116.883 74.5836 117.134 71.2625C117.249 69.7346 117.154 68.1897 117.154 66.5457C114.829 66.5457 112.508 66.5457 110.039 66.5457C110.457 65.1905 110.83 63.975 111.217 62.7188C111.531 62.7 111.806 62.6698 112.081 62.6688C114.576 62.665 117.071 62.666 119.565 62.6669C119.721 62.6669 119.878 62.6622 120.033 62.6764C121.13 62.7736 121.832 63.471 121.845 64.5724C121.868 66.5844 121.919 68.6002 121.822 70.6076C121.728 72.5753 121.154 74.4382 120.114 76.1285C118.499 78.7549 116.086 80.1356 113.097 80.3829C110.554 80.5943 107.985 80.6717 105.446 80.2857C102.407 79.8232 100.152 78.1792 98.7397 75.4188C97.8404 73.6606 97.3903 71.775 97.3847 69.7931C97.3754 66.1777 97.3763 62.5622 97.3847 58.9467C97.3875 57.6509 97.5784 56.3769 97.9864 55.1463C99.0447 51.9573 101.286 49.9632 104.357 48.8505C105.861 48.306 107.419 48.0191 109.029 48.0285C111.835 48.0446 114.641 48.0333 117.448 48.0333C117.758 48.0361 118.068 48.0361 118.53 48.0361Z" fill="#856E5A"/>
<path d="M21.5938 51.8577C21.5938 54.9135 21.5938 57.8287 21.5938 60.8761C25.0223 60.9138 28.4302 60.8714 31.9888 60.9016C31.5892 62.2313 31.2243 63.4468 30.8341 64.7464C27.7565 64.7464 24.7173 64.7464 21.5835 64.7464C21.5835 70.0162 21.5835 75.1851 21.5835 80.4484C20.3848 80.5012 19.2676 80.6022 18.1737 80.4031C16.961 80.1822 16.146 79.1545 16.015 77.872C15.9926 77.6539 16.0038 77.4322 16.0038 77.2123C16.0019 67.8164 16.0019 58.4205 16.0019 49.0255C16.0019 48.7462 16.0019 48.4668 16.0019 48.2054C16.7084 48.0016 35.1253 47.9468 36.3408 48.1403C35.9609 49.3672 35.5838 50.5836 35.1899 51.8577C30.6544 51.8577 26.177 51.8577 21.5938 51.8577Z" fill="#856E5A"/>
<path d="M127.492 48.0424C128.598 48.0424 129.562 47.9952 130.521 48.0537C131.934 48.1396 132.992 49.2759 133.074 50.7085C133.088 50.9586 133.08 51.2105 133.08 51.4616C133.08 60.7565 133.08 70.0524 133.08 79.3473C133.08 79.6861 133.08 80.0249 133.08 80.4269C131.893 80.4269 130.772 80.5345 129.682 80.3986C128.427 80.2419 127.564 79.1057 127.495 77.8194C127.484 77.6004 127.492 77.3796 127.492 77.1597C127.492 67.8327 127.492 58.5066 127.492 49.1796C127.492 48.8417 127.492 48.502 127.492 48.0424Z" fill="#856E5A"/>
<path d="M198.586 48.0418C199.701 48.0418 200.666 47.9965 201.627 48.0522C203.048 48.1352 204.108 49.2639 204.188 50.6956C204.201 50.9145 204.194 51.1354 204.194 51.3553C204.194 60.6851 204.194 70.0159 204.194 79.3457C204.194 79.6855 204.194 80.0252 204.194 80.4263C203.01 80.4263 201.889 80.532 200.797 80.398C199.58 80.2489 198.727 79.1683 198.607 77.9122C198.577 77.6007 198.588 77.2846 198.588 76.9703C198.587 67.7028 198.587 58.4362 198.587 49.1686C198.586 48.8308 198.586 48.491 198.586 48.0418Z" fill="#856E5A"/>
<path d="M242.434 48.0607C243.537 48.0607 244.595 47.9805 245.635 48.0805C246.975 48.2089 247.926 49.3442 247.994 50.7088C248.006 50.9278 247.998 51.1486 247.998 51.3685C247.998 60.6993 247.998 70.0301 247.998 79.3618C247.998 79.7006 247.998 80.0394 247.998 80.4462C246.838 80.4462 245.745 80.5547 244.683 80.4169C243.545 80.2697 242.788 79.5071 242.519 78.3511C242.427 77.9585 242.39 77.5442 242.39 77.1393C242.384 67.7453 242.385 58.3513 242.387 48.9582C242.387 48.6817 242.416 48.4071 242.434 48.0607Z" fill="#856E5A"/>
<path d="M165.833 80.468C164.597 80.468 163.474 80.5209 162.359 80.4548C161.022 80.3746 159.981 79.7121 159.357 78.5041C159.028 77.8671 158.773 77.1857 158.546 76.5034C155.544 67.4821 152.552 58.4571 149.56 49.4321C149.482 49.1981 149.425 48.9584 149.362 48.7356C151.365 47.2861 154.122 48.0628 154.976 50.3287C155.916 52.8239 156.793 55.3428 157.698 57.8512C160.294 65.052 162.889 72.2537 165.484 79.4545C165.588 79.7451 165.685 80.0396 165.833 80.468Z" fill="#856E5A"/>
<path d="M147.356 66.3095C148.721 66.3095 150.018 66.3095 151.393 66.3095C151.769 67.4363 152.132 68.5235 152.533 69.7249C150.354 69.7249 148.283 69.7249 146.194 69.7249C146.06 70.0486 145.941 70.2996 145.851 70.5601C145.019 72.96 144.193 75.3628 143.363 77.7637C142.697 79.6899 141.622 80.4666 139.591 80.4854C138.719 80.4939 137.848 80.4864 136.975 80.4864C137.015 79.7842 146.289 54.8742 147.059 53.3896C147.168 53.6567 147.271 53.87 147.346 54.0927C147.955 55.9057 148.546 57.7252 149.173 59.5315C149.347 60.0336 149.35 60.4819 149.169 60.983C148.633 62.4562 148.136 63.9445 147.628 65.428C147.537 65.6923 147.463 65.9612 147.356 66.3095Z" fill="#856E5A"/>
</svg>
