<svg width="264" height="132" viewBox="0 0 264 132" fill="none" xmlns="http://www.w3.org/2000/svg">
<path d="M66.2235 116H197.432L132.176 50.7451L66.2235 116Z" fill="#7BB51C"/>
<path d="M63.7164 112.791L73.9388 102.819L70.5339 99.3265L64.1133 105.593L52.8027 93.9961L49 97.706L63.7164 112.791Z" fill="black"/>
<path d="M76.1825 100.547L86.6568 90.3257L83.7804 87.3792L77.1297 93.867L73.936 90.5928L79.2654 85.3931L76.2555 82.3102L70.926 87.5071L68.1897 84.7026L74.6217 78.426L71.7471 75.4805L61.306 85.6678L76.1825 100.547Z" fill="black"/>
<path d="M110.466 52.0919C106.241 47.7617 98.9135 48.2797 95.3846 51.7235C91.8546 55.1672 90.0532 62.0339 95.0379 67.1437C100.513 72.7554 107.028 70.7172 110.558 67.2753C115.762 62.1978 113.909 55.6219 110.466 52.0919ZM107.361 64.3099C105.024 66.5896 102.168 65.9711 98.9041 62.6249C96.1612 59.8138 96.326 56.9895 98.3206 55.0432C99.6921 53.7049 102.478 52.5077 105.792 55.9051C109.573 59.7807 109.698 62.0301 107.361 64.3099Z" fill="black"/>
<path d="M122.247 55.6881L126.111 51.9166L120.298 45.9582L116.818 31.4805L112.388 35.8032L114.693 44.0166L106.907 41.1497L102.73 45.2242L116.003 49.4863L122.247 55.6881Z" fill="black"/>
<path d="M101.643 75.8121C101.643 75.8121 92.2382 72.6032 91.7911 72.6809C91.6462 72.7046 93.8113 66.9432 88.9469 64.3898C88.9469 64.3898 85.3374 62.4358 81.7251 65.7176L74.0259 73.3051L88.8683 88.2526L92.7951 84.4215L84.7634 76.1909L97.7467 79.6139L101.643 75.8121ZM87.0763 73.7597C84.8942 75.885 84.5996 76.0527 84.5996 76.0527C84.5996 76.0527 81.1786 72.5464 81.0573 72.4223C80.9361 72.2983 83.5038 70.0971 83.9082 69.7022C84.0796 69.5345 85.6784 68.4918 87.0015 69.8471C87.0015 69.8471 89.2576 71.6305 87.0763 73.7597Z" fill="black"/>
<path d="M121.048 34.3335L117.614 30.8708L132.607 16L137.514 20.9468L132.112 31.5774L143.124 26.604L147.846 31.3652L132.853 46.2361L129.234 42.5877L137.148 34.7389L126.321 39.6507L124.083 37.3937L129.115 26.5775L121.048 34.3335Z" fill="black"/>
<path d="M147.081 60.5803L136.685 50.1003L151.679 35.2295L162.104 45.7407L159.075 48.745L152.544 42.1606L150.101 44.5824L155.252 49.7764L152.098 52.9038L146.978 47.741L143.701 50.9906L150.171 57.5135L147.081 60.5803Z" fill="black"/>
<path d="M181.36 65.1553L185.223 69.0517L173.878 80.3036L180.224 86.7005L176.576 90.3214L166.366 80.0271L181.36 65.1553Z" fill="black"/>
<path d="M179.274 93.0417L194.268 78.1709L198.04 81.9727L183.046 96.8425L179.274 93.0417Z" fill="black"/>
<path d="M189.883 103.739L186.356 100.182L201.351 85.3125L206.472 90.4724L202.096 105.912L212.021 96.0681L215.456 99.5308L200.463 114.401L195.985 109.889L199.84 93.6794L189.883 103.739Z" fill="black"/>
<path d="M174.584 58.324L165.478 49.1416L150.452 63.9821L154.316 67.8767L162.507 59.7523L159.559 73.1636L163.514 77.1519C163.514 77.1519 166.632 67.5585 166.728 67.1588C166.728 67.1588 170.106 69.0199 173.813 65.8328C173.813 65.8328 177.369 62.3682 174.584 58.324ZM169.024 62.6732C169.024 62.6732 167.109 63.9584 165.423 62.2583L162.788 59.4757C162.788 59.4757 165.971 56.318 166.373 55.9192C166.373 55.9192 168.826 58.3931 169.133 58.7019C169.438 59.0107 171.373 60.4654 169.024 62.6732Z" fill="black"/>
</svg>
