<svg width="264" height="132" viewBox="0 0 264 132" fill="none" xmlns="http://www.w3.org/2000/svg">
<path d="M248 79.4707H63.85V86.6766H248V79.4707Z" fill="#006AB9"/>
<path d="M248 89.6855H63.7162V90.9996H248V89.6855Z" fill="#006AB9"/>
<path d="M77.3643 56.448L75.0249 55.9782C74.6992 55.9111 73.0606 55.518 73.0606 54.5496C73.0606 53.3991 74.5708 53.284 75.1631 53.2744C75.9231 53.2648 80.1874 53.284 83.2868 55.796L83.3362 48.2888C80.6809 46.9273 77.9565 46.3232 74.9163 46.3232C68.8457 46.3232 62.4 49.6406 62.4 55.7864C62.4 59.3723 65.154 61.8556 69.971 62.613L72.3301 62.9965C73.2284 63.1403 74.2352 63.3129 74.2352 64.2142C74.2352 65.2113 72.7546 65.5373 71.7379 65.566C70.7212 65.6044 67.2664 65.8057 63.1798 62.3637L63.2193 70.3408C63.2193 70.3408 66.8419 72.6035 72.5276 72.6035C78.4303 72.6035 84.7773 69.7463 84.7773 63.4759C84.7872 58.5382 80.8191 57.1287 77.3643 56.448Z" fill="#006AB9"/>
<path d="M99.2568 46.3232C90.8719 46.3232 84.7773 51.8766 84.7773 59.5305C84.7773 67.2324 90.7282 72.6035 99.2568 72.6035C107.785 72.6035 113.736 67.2228 113.736 59.5305C113.736 51.8766 107.642 46.3232 99.2568 46.3232ZM99.2568 64.4605C96.5736 64.4605 94.705 62.3791 94.705 59.4154C94.705 56.4517 96.6215 54.2937 99.2568 54.2937C101.902 54.2937 103.818 56.4517 103.818 59.4154C103.809 62.3887 101.94 64.4605 99.2568 64.4605Z" fill="#006AB9"/>
<path d="M128.338 46.3232H115.052V72.6035H125.345V64.7867H130.491C136.398 64.7867 140.062 61.4324 140.062 56.02C140.062 47.4314 133.8 46.3232 128.338 46.3232ZM126.214 57.9396H125.345V53.1011H126.175C128.032 53.1011 129.849 53.2792 129.849 55.3868C129.849 57.6329 128.012 57.9396 126.214 57.9396Z" fill="#006AB9"/>
<path d="M161.791 61.6303C164.445 60.532 165.699 58.5926 165.699 55.4956C165.699 47.4117 159.711 46.3232 153.85 46.3232H141.379V72.6035H151.653V64.2623H152.751V64.2722C152.751 64.4998 156.027 72.5145 156.027 72.5145L166.389 72.6035C166.389 72.6035 161.888 61.8777 161.791 61.6303ZM151.643 53.1011H152.46C154.287 53.1011 156.076 53.2792 156.076 55.3868C156.076 57.6428 154.258 57.9396 152.499 57.9396H151.643V53.1011Z" fill="#006AB9"/>
<path d="M176.109 65.9246V62.7187H184.017V56.1487H176.109V53.012H184.518V46.3232H166.389V72.6035H184.817V65.9246H176.109Z" fill="#006AB9"/>
<path d="M205.742 46.3232C205.742 46.3232 203.009 56.7582 202.942 56.9758H202.232C202.175 56.7582 199.442 46.3232 199.442 46.3232H186.133V72.5936H196.144V60.5761H196.777C196.834 60.7937 199.97 72.6035 199.97 72.6035H205.205C205.205 72.6035 208.34 60.8036 208.398 60.5761H209.031V72.6035H219.041V46.3331H205.742V46.3232Z" fill="#006AB9"/>
<path d="M240.168 46.3232H228.19L220.357 72.6035H230.356C230.356 72.6035 231.097 68.6358 231.144 68.4082H237.204C237.251 68.6358 237.992 72.6035 237.992 72.6035H248L240.168 46.3232ZM232.457 61.9469C232.523 61.6105 233.611 55.9903 233.611 55.9903C233.724 55.4066 233.855 55.0701 234.174 55.0701H234.183C234.502 55.0701 234.634 55.3868 234.746 55.9903C234.746 55.9903 235.731 61.0762 235.9 61.9469H232.457Z" fill="#006AB9"/>
<path d="M30.8845 49.8041C31.2529 49.3298 33.0103 47.7197 33.0103 47.7197C33.0103 47.7197 34.5819 48.1941 35.6905 47.9101C36.1535 48.8554 37.9077 51.6981 38.4652 52.0755C36.3394 51.6981 33.1962 51.3173 30.8845 49.8041Z" fill="#999999"/>
<path fill-rule="evenodd" clip-rule="evenodd" d="M29.0357 62.0192C28.8302 62.5871 30.0921 65.0756 30.8811 66.6122C31.0996 67.0364 31.2235 67.2702 31.4191 67.5575C27.9988 69.8323 24.3633 69.2143 21.6375 67.5107H16C16.013 67.2134 16.0293 66.9128 16.0522 66.6122C16.5413 59.9749 19.3844 53.2241 19.792 52.9268C19.886 52.8584 20.0221 52.8453 20.2579 52.8226C20.8398 52.7665 22.029 52.6519 24.6926 51.5038C25.3181 51.235 25.9383 50.8096 26.4982 50.4254C27.1699 49.9645 27.7549 49.5631 28.1586 49.5631C28.4012 49.5631 28.8969 49.8104 29.6121 50.1673C31.069 50.8942 33.4366 52.0755 36.4306 52.546C42.7626 53.5414 46.0459 52.1686 46.1372 50.8424C46.1918 50.0494 45.1155 49.9003 43.8605 49.7263C43.0169 49.6094 42.0925 49.4813 41.3768 49.1389C40.1411 48.5476 39.1792 47.3351 39.3423 46.6436C39.3918 46.439 39.6871 46.4706 40.1333 46.5185C40.5392 46.562 41.07 46.6189 41.654 46.5234C42.1613 46.4401 42.5177 46.1766 42.8134 45.958C43.0516 45.7819 43.2504 45.6349 43.4571 45.6349C43.6332 45.6349 43.6996 45.7657 43.7854 45.9347C43.9363 46.2319 44.1472 46.6472 45.1199 46.677C45.4279 46.6858 45.7209 46.6281 46.0223 46.5689C46.643 46.4468 47.2991 46.3177 48.1946 46.7472C47.6632 44.7597 46.1601 43.5772 44.057 42.2979C48.0805 40.9617 52.2834 44.2353 52.2866 49.8236C52.2866 49.8236 52.6322 50.6053 52.8116 50.9961C54.1517 49.8838 54.4092 45.7317 52.7007 43.3634C58.8925 46.5601 56.6297 54.1594 52.4464 56.3607L52.4298 56.3869C51.7749 57.4212 51.5822 57.7256 49.2347 59.5574C47.2994 61.066 45.0615 60.9137 44.0484 60.8448C43.7268 60.8229 43.5286 60.8094 43.5027 60.8601C43.3625 61.1307 43.4342 61.4046 43.9298 61.5115C43.8181 64.1639 39.9361 63.2485 37.8967 62.7675C37.1982 62.6028 36.7159 62.4891 36.6751 62.5871C36.5121 62.9779 44.4385 66.1846 44.9243 61.6752C45.5732 61.6752 47.5001 61.5917 48.9087 60.5962C51.2563 61.7854 53.0952 63.8932 54.3864 66.6456C57.21 72.6682 57.4057 81.7673 54.5494 90.9967H47.6306L47.6143 85.4116C47.2686 85.3882 45.7655 85.0575 45.4656 84.8671C45.4656 84.8671 45.9286 89.0826 44.8428 91H36.7306C36.7795 84.4162 33.1961 81.6237 33.1961 81.6237C33.1961 81.6237 30.2845 84.8905 29.9617 91H22.4754C22.0809 83.1168 26.0327 77.7422 26.0327 77.7422C26.2186 77.0073 24.6013 69.692 24.6013 69.692C28.2075 70.8511 31.9506 68.77 32.782 67.7746C32.6928 67.7189 32.5398 67.4892 32.3296 67.1738C32.2248 67.0165 32.1058 66.8379 31.9734 66.6489C31.9636 66.6356 31.9571 66.6255 31.9473 66.6122C30.9594 65.2159 29.4921 62.8877 29.0357 62.0192ZM34.4385 57.4229C34.4385 57.8872 34.07 58.2614 33.6201 58.2614C33.1669 58.2614 32.8017 57.8872 32.8017 57.4229C32.8017 56.9586 33.1701 56.5845 33.6201 56.5845C34.0733 56.5845 34.4385 56.9586 34.4385 57.4229Z" fill="#999999"/>
<path d="M42.2539 57.0214C41.9898 57.3521 42.0257 57.9968 42.1496 58.3943C42.3909 59.1626 42.9223 59.1626 43.1538 59.1526C43.3169 59.1425 51.403 56.9747 51.4976 50.2272C51.5498 46.3223 49.4402 42.344 45.5112 42.5878C48.9348 44.4751 49.5869 47.742 49.3032 50.0401C48.6805 55.1041 42.3713 56.8811 42.2539 57.0214Z" fill="white"/>
<path d="M53.0691 52.0046C54.3864 50.8455 55.0581 48.4071 54.3408 45.374C56.4471 47.7991 56.2612 52.3486 52.8605 55.0343C53.0463 54.2059 53.2322 52.8798 53.0691 52.0046Z" fill="white"/>
<path d="M39.4956 45.6351C38.0577 45.0105 36.4763 44.6631 34.8167 44.6631C30.4964 44.6631 26.711 47.0013 24.6014 50.5087L25.71 49.9709C27.7837 47.1349 31.0931 45.2978 34.8167 45.2978C36.0557 45.2978 37.249 45.5015 38.3642 45.8756L39.4956 45.6351Z" fill="#006AB9"/>
<path d="M42.8995 44.5267C40.5845 42.9434 37.8033 42.0215 34.8133 42.0215C28.5824 42.0215 23.2612 46.0299 21.1777 51.665L21.9016 51.5181C23.9883 46.3172 28.9835 42.6561 34.8133 42.6561C37.575 42.6561 40.1509 43.4779 42.3159 44.8975L42.8995 44.5267Z" fill="#006AB9"/>
<path d="M41.5984 45.1903C39.6127 43.9844 37.2912 43.293 34.8165 43.293C29.417 43.293 24.7642 46.5832 22.6677 51.3131L23.4795 51.0526C25.5793 46.8237 29.867 43.9276 34.8132 43.9276C36.9163 43.9276 38.8987 44.4521 40.6463 45.3773L41.5984 45.1903Z" fill="#006AB9"/>
</svg>
