<svg width="264" height="132" viewBox="0 0 264 132" fill="none" xmlns="http://www.w3.org/2000/svg">
<path d="M86.6794 44.8477L98.2852 69.452L109.195 44.8477H111.632L97.5888 76.5315H96.3122L81.1086 44.8477H86.6794Z" fill="#58585A"/>
<path d="M139.138 44.8477V46.8206H122.889V57.8462H133.799V59.9352H122.889V73.7461H139.138V75.8352H117.667V44.8477H139.138Z" fill="#58585A"/>
<path d="M146.913 44.8477H152.136V73.7461H167.804V75.8352H146.913V44.8477Z" fill="#58585A"/>
<path d="M173.491 44.8477H178.713V64.9257C178.713 66.2023 178.945 67.479 179.41 68.6396C179.874 69.8001 180.454 70.8447 181.383 71.6571C182.195 72.5855 183.24 73.1658 184.4 73.7461C185.561 74.2103 186.953 74.5585 188.346 74.5585C189.855 74.5585 191.132 74.3264 192.408 73.7461C193.569 73.2819 194.613 72.5855 195.426 71.6571C196.238 70.7286 196.934 69.8001 197.283 68.6396C197.747 67.479 197.979 66.2023 197.979 64.9257V44.8477H200.3V64.9257C200.3 66.5505 200.068 68.0593 199.488 69.452C199.024 70.8447 198.211 72.1213 197.051 73.1658C196.006 74.2103 194.497 75.0227 192.872 75.7191C191.132 76.2994 189.159 76.6476 186.721 76.6476C184.632 76.6476 182.659 76.2994 181.034 75.7191C179.41 75.1388 178.017 74.2103 176.856 73.1658C175.696 72.1213 174.883 70.8447 174.303 69.452C173.723 68.0593 173.491 66.5505 173.491 64.9257V44.8477Z" fill="#58585A"/>
<path d="M238.948 44.8477L227.11 68.6396H226.877L214.807 44.8477H209.585V75.8352H211.79V50.5345H212.138L225.021 75.8352H226.065L238.831 50.4184H238.948V75.8352H244.17V44.8477H238.948Z" fill="#58585A"/>
<path d="M87.0274 85.584H87.9559V91.619H91.0895V92.5475H86.9114V85.584H87.0274Z" fill="#005398"/>
<path d="M93.2947 88.0212H92.4823L93.1786 85.584H94.1071L93.2947 88.0212Z" fill="#005398"/>
<path d="M96.312 85.584H100.722V86.5125H97.2405V88.6015H100.49V89.53H97.2405V91.7351H100.954V92.6635H96.312V85.584Z" fill="#005398"/>
<path d="M107.802 87.0933C107.57 86.8611 107.338 86.629 107.105 86.513C106.757 86.3969 106.525 86.2808 106.177 86.2808C105.829 86.2808 105.481 86.3969 105.133 86.513C104.784 86.629 104.552 86.8611 104.32 87.0933C104.088 87.3254 103.972 87.6735 103.74 88.0217C103.624 88.3699 103.508 88.7181 103.508 89.0662C103.508 89.4144 103.624 89.7626 103.74 90.1108C103.856 90.4589 103.972 90.691 104.204 90.9232C104.436 91.1553 104.668 91.3874 105.016 91.5035C105.365 91.6195 105.713 91.7356 106.061 91.7356C106.409 91.7356 106.757 91.6195 107.105 91.5035C107.454 91.3874 107.686 91.1553 107.918 90.8071L108.73 91.3874C108.73 91.5035 108.614 91.6195 108.498 91.7356C108.382 91.8516 108.15 91.9677 108.034 92.0837C107.802 92.1998 107.57 92.3159 107.222 92.4319C106.873 92.548 106.525 92.548 106.177 92.548C105.597 92.548 105.133 92.4319 104.668 92.1998C104.204 91.9677 103.856 91.7356 103.508 91.3874C103.16 91.0392 102.927 90.6911 102.811 90.2268C102.695 89.7626 102.579 89.4144 102.579 88.9502C102.579 88.3699 102.695 87.9057 102.811 87.4414C102.927 86.9772 103.276 86.629 103.508 86.2808C103.856 85.9327 104.204 85.7006 104.668 85.4684C105.133 85.2363 105.597 85.2363 106.177 85.2363C106.641 85.2363 107.105 85.3524 107.57 85.4684C108.034 85.7006 108.382 85.9327 108.614 86.2808L107.802 87.0933Z" fill="#005398"/>
<path d="M110.587 85.584H111.516V91.619H114.649V92.5475H110.471V85.584H110.587Z" fill="#005398"/>
<path d="M118.595 85.584H119.408L122.425 92.5475H121.381L120.684 90.8066H117.435L116.738 92.5475H115.694L118.595 85.584ZM120.22 89.9942L118.944 86.8606L117.667 89.9942H120.22Z" fill="#005398"/>
<path d="M124.05 85.584H124.978V92.5475H124.05V85.584Z" fill="#005398"/>
<path d="M127.532 85.584H129.969C130.433 85.584 130.781 85.7 131.014 85.8161C131.246 85.9322 131.478 86.0482 131.71 86.2803C131.826 86.5124 131.942 86.6285 132.058 86.8606C132.174 87.0927 132.174 87.3249 132.174 87.557C132.174 87.7891 132.174 88.0212 132.058 88.2533C131.942 88.4854 131.826 88.6015 131.71 88.8336C131.594 88.9497 131.362 89.1818 131.13 89.2978C130.898 89.4139 130.665 89.53 130.433 89.53L132.406 92.6635H131.246L129.505 89.53H128.46V92.5475H127.532V85.584ZM128.46 88.7176H129.737C129.969 88.7176 130.085 88.7176 130.317 88.7176C130.549 88.7176 130.665 88.6015 130.781 88.6015C130.898 88.4854 131.014 88.3694 131.13 88.2533C131.246 88.1373 131.246 87.9051 131.246 87.673C131.246 87.4409 131.246 87.2088 131.13 87.0927C131.014 86.9767 130.898 86.8606 130.781 86.7446C130.665 86.6285 130.433 86.6285 130.317 86.6285C130.085 86.6285 129.969 86.6285 129.737 86.6285H128.46V88.7176Z" fill="#005398"/>
<path d="M136.352 85.584H137.165L140.182 92.5475H139.138L138.441 90.8066H135.192L134.495 92.5475H133.451L136.352 85.584ZM138.093 89.9942L136.816 86.8606L135.54 89.9942H138.093Z" fill="#005398"/>
<path d="M147.726 88.7182V92.0839C147.61 92.2 147.378 92.316 147.146 92.316C146.913 92.4321 146.681 92.4321 146.449 92.5481C146.217 92.5481 145.985 92.6642 145.753 92.6642C145.521 92.6642 145.289 92.6642 145.057 92.6642C144.476 92.6642 143.896 92.5481 143.432 92.316C142.967 92.0839 142.619 91.8518 142.271 91.5036C141.923 91.1554 141.691 90.8073 141.575 90.343C141.459 89.8788 141.343 89.4146 141.343 88.9503C141.343 88.4861 141.459 87.9058 141.575 87.5576C141.807 87.0934 142.039 86.7452 142.271 86.3971C142.619 86.0489 142.967 85.8168 143.432 85.5847C143.896 85.3525 144.36 85.3525 144.94 85.3525C145.637 85.3525 146.101 85.4686 146.449 85.5847C146.797 85.7007 147.146 85.9328 147.494 86.281L146.797 86.9774C146.565 86.7452 146.217 86.5131 145.869 86.3971C145.521 86.281 145.173 86.281 144.824 86.281C144.476 86.281 144.012 86.3971 143.78 86.5131C143.548 86.6292 143.2 86.8613 142.967 87.0934C142.735 87.3255 142.619 87.6737 142.387 88.0219C142.271 88.37 142.155 88.7182 142.155 89.0664C142.155 89.4146 142.271 89.8788 142.387 90.1109C142.503 90.4591 142.735 90.6912 142.967 91.0394C143.2 91.2715 143.548 91.5036 143.78 91.6197C144.128 91.7357 144.476 91.8518 144.824 91.8518C145.173 91.8518 145.521 91.8518 145.753 91.7357C146.101 91.6197 146.333 91.6197 146.565 91.5036V89.5306H145.057V88.6022H147.726V88.7182Z" fill="#005398"/>
<path d="M150.163 85.584H154.689V86.5125H151.207V88.6015H154.457V89.53H151.207V91.7351H154.921V92.6635H150.279V85.584H150.163Z" fill="#005398"/>
<path d="M160.376 85.584H162.813C163.278 85.584 163.626 85.7 163.858 85.8161C164.09 85.9322 164.322 86.0482 164.554 86.2803C164.67 86.5124 164.786 86.6285 164.902 86.8606C165.019 87.0927 165.019 87.3249 165.019 87.557C165.019 87.7891 165.019 88.0212 164.902 88.2533C164.786 88.4854 164.67 88.7176 164.554 88.8336C164.438 89.0657 164.206 89.1818 163.858 89.2978C163.626 89.4139 163.162 89.53 162.813 89.53H161.305V92.5475H160.376V85.584ZM161.305 88.7176H162.581C162.813 88.7176 162.929 88.7176 163.162 88.7176C163.394 88.7176 163.51 88.6015 163.626 88.6015C163.742 88.4854 163.858 88.3694 163.974 88.2533C164.09 88.1373 164.09 87.9051 164.09 87.673C164.09 87.4409 164.09 87.2088 163.974 87.0927C163.858 86.9767 163.742 86.8606 163.626 86.7446C163.51 86.6285 163.278 86.6285 163.162 86.6285C162.929 86.6285 162.813 86.6285 162.581 86.6285H161.305V88.7176Z" fill="#005398"/>
<path d="M166.875 85.584H169.313C169.777 85.584 170.125 85.7 170.357 85.8161C170.589 85.9322 170.821 86.0482 171.054 86.2803C171.286 86.5124 171.286 86.6285 171.402 86.8606C171.518 87.0927 171.518 87.3249 171.518 87.557C171.518 87.7891 171.518 88.0212 171.402 88.2533C171.286 88.4854 171.17 88.6015 171.054 88.8336C170.938 88.9497 170.705 89.1818 170.473 89.2978C170.241 89.4139 170.009 89.53 169.777 89.53L171.75 92.6635H170.589L168.848 89.646H167.804V92.6635H166.875V85.584ZM167.804 88.7176H169.081C169.313 88.7176 169.429 88.7176 169.661 88.7176C169.893 88.7176 170.009 88.6015 170.125 88.6015C170.241 88.4854 170.357 88.3694 170.473 88.2533C170.589 88.1373 170.589 87.9051 170.589 87.673C170.589 87.4409 170.589 87.2088 170.473 87.0927C170.357 86.9767 170.241 86.8606 170.125 86.7446C170.009 86.6285 169.777 86.6285 169.661 86.6285C169.429 86.6285 169.313 86.6285 169.081 86.6285H167.804V88.7176Z" fill="#005398"/>
<path d="M176.74 92.7796C176.16 92.7796 175.696 92.6635 175.232 92.5475C174.767 92.3154 174.419 92.0832 174.071 91.7351C173.723 91.3869 173.491 91.0387 173.375 90.5745C173.143 90.1103 173.143 89.646 173.143 89.1818C173.143 88.7175 173.259 88.1373 173.375 87.7891C173.607 87.3249 173.839 86.9767 174.071 86.6285C174.419 86.2803 174.767 86.0482 175.232 85.8161C175.696 85.584 176.16 85.584 176.74 85.584C177.321 85.584 177.785 85.7 178.249 85.8161C178.713 86.0482 179.062 86.2803 179.41 86.6285C179.758 86.9767 179.99 87.3249 180.106 87.7891C180.338 88.2533 180.338 88.7175 180.338 89.1818C180.338 89.646 180.222 90.2263 180.106 90.5745C179.874 91.0387 179.642 91.3869 179.41 91.7351C179.062 92.0832 178.713 92.3154 178.249 92.5475C177.785 92.6635 177.321 92.7796 176.74 92.7796ZM176.74 91.8511C177.089 91.8511 177.553 91.7351 177.785 91.619C178.133 91.5029 178.365 91.2708 178.597 91.0387C178.829 90.8066 178.945 90.4584 179.178 90.1102C179.294 89.7621 179.41 89.4139 179.41 89.0657C179.41 88.7176 179.294 88.3694 179.178 88.0212C179.062 87.673 178.829 87.4409 178.597 87.0927C178.365 86.8606 178.133 86.6285 177.785 86.5125C177.437 86.3964 177.089 86.2803 176.74 86.2803C176.392 86.2803 175.928 86.3964 175.696 86.5125C175.464 86.6285 175.116 86.8606 174.883 87.0927C174.651 87.3249 174.535 87.673 174.303 88.0212C174.071 88.3694 174.071 88.7176 174.071 89.0657C174.071 89.4139 174.187 89.7621 174.303 90.1102C174.419 90.4584 174.651 90.6905 174.883 91.0387C175.116 91.2708 175.348 91.5029 175.696 91.619C176.044 91.7351 176.392 91.8511 176.74 91.8511Z" fill="#005398"/>
<path d="M182.427 85.584H186.837V86.5125H183.472V88.7176H186.605V89.53H183.472V92.5475H182.543V85.584H182.427Z" fill="#005398"/>
<path d="M188.81 85.584H193.337V86.5125H189.855V88.6015H193.105V89.53H189.855V91.7351H193.569V92.6635H188.926V85.584H188.81Z" fill="#005398"/>
<path d="M195.774 91.1549C195.89 91.387 196.122 91.6192 196.47 91.7352C196.818 91.8513 197.05 91.9673 197.283 91.9673C197.399 91.9673 197.631 91.9673 197.747 91.8513C197.863 91.8513 198.095 91.7352 198.211 91.6192C198.327 91.5031 198.443 91.387 198.559 91.271C198.675 91.1549 198.675 90.9228 198.675 90.8068C198.675 90.5746 198.559 90.3425 198.443 90.2265C198.327 90.1104 198.095 89.9943 197.863 89.8783C197.631 89.7622 197.283 89.6462 197.05 89.6462C196.702 89.5301 196.47 89.4141 196.238 89.298C196.006 89.1819 195.774 88.9498 195.658 88.7177C195.542 88.4856 195.426 88.1374 195.426 87.6732C195.426 87.4411 195.426 87.209 195.542 86.9768C195.658 86.7447 195.774 86.5126 196.006 86.3966C196.238 86.1644 196.47 86.0484 196.702 85.9323C197.05 85.8163 197.399 85.7002 197.747 85.7002C198.095 85.7002 198.443 85.7002 198.791 85.8163C199.139 85.9323 199.488 86.1644 199.72 86.3966L198.907 87.0929C198.791 86.8608 198.675 86.7447 198.443 86.6287C198.211 86.5126 197.979 86.5126 197.747 86.5126C197.515 86.5126 197.283 86.5126 197.05 86.6287C196.934 86.7447 196.702 86.7447 196.586 86.8608C196.47 86.9768 196.354 87.0929 196.354 87.209C196.354 87.325 196.238 87.4411 196.238 87.5571C196.238 87.9053 196.354 88.0214 196.47 88.2535C196.586 88.3695 196.818 88.4856 197.05 88.6016C197.283 88.7177 197.631 88.8338 197.863 88.8338C198.211 88.9498 198.443 89.0659 198.675 89.1819C198.907 89.298 199.139 89.5301 199.256 89.7622C199.372 89.9943 199.488 90.3425 199.488 90.6907C199.488 91.0389 199.372 91.271 199.256 91.6192C199.139 91.8513 198.907 92.0834 198.791 92.3155C198.559 92.5476 198.327 92.6637 197.979 92.7797C197.631 92.8958 197.399 92.8958 197.05 92.8958C196.586 92.8958 196.238 92.7797 195.774 92.6637C195.426 92.5476 195.077 92.3155 194.845 91.9673L195.774 91.1549Z" fill="#005398"/>
<path d="M201.925 91.1549C202.041 91.387 202.273 91.6192 202.621 91.7352C202.969 91.8513 203.202 91.9673 203.434 91.9673C203.55 91.9673 203.782 91.9673 203.898 91.8513C204.014 91.8513 204.246 91.7352 204.362 91.6192C204.478 91.5031 204.594 91.387 204.71 91.271C204.826 91.1549 204.826 90.9228 204.826 90.8068C204.826 90.5746 204.71 90.3425 204.594 90.2265C204.478 90.1104 204.246 89.9943 204.014 89.8783C203.782 89.7622 203.434 89.6462 203.202 89.6462C202.853 89.5301 202.621 89.4141 202.389 89.298C202.157 89.1819 201.925 88.9498 201.809 88.7177C201.693 88.4856 201.577 88.1374 201.577 87.6732C201.577 87.4411 201.577 87.209 201.693 86.9768C201.809 86.7447 201.925 86.5126 202.157 86.3966C202.389 86.1644 202.621 86.0484 202.853 85.9323C203.202 85.8163 203.55 85.7002 203.898 85.7002C204.246 85.7002 204.594 85.7002 204.942 85.8163C205.291 85.9323 205.639 86.1644 205.871 86.3966L205.058 87.0929C204.942 86.8608 204.826 86.7447 204.594 86.6287C204.362 86.5126 204.13 86.5126 203.898 86.5126C203.666 86.5126 203.434 86.5126 203.202 86.6287C203.086 86.7447 202.853 86.7447 202.737 86.8608C202.621 86.9768 202.505 87.0929 202.505 87.209C202.505 87.325 202.389 87.4411 202.389 87.5571C202.389 87.9053 202.505 88.0214 202.621 88.2535C202.737 88.3695 202.969 88.4856 203.202 88.6016C203.434 88.7177 203.782 88.8338 204.014 88.8338C204.362 88.9498 204.594 89.0659 204.826 89.1819C205.058 89.298 205.291 89.5301 205.407 89.7622C205.523 89.9943 205.639 90.3425 205.639 90.6907C205.639 91.0389 205.523 91.271 205.407 91.6192C205.291 91.8513 205.059 92.0834 204.942 92.3155C204.71 92.5476 204.478 92.6637 204.13 92.7797C203.782 92.8958 203.55 92.8958 203.202 92.8958C202.737 92.8958 202.389 92.7797 201.925 92.6637C201.577 92.5476 201.229 92.3155 200.996 91.9673L201.925 91.1549Z" fill="#005398"/>
<path d="M207.844 85.584H208.772V92.5475H207.844V85.584Z" fill="#005398"/>
<path d="M214.575 92.7796C213.995 92.7796 213.531 92.6635 213.067 92.5475C212.602 92.3154 212.254 92.0832 211.906 91.7351C211.558 91.3869 211.326 91.0387 211.21 90.5745C210.978 90.1103 210.978 89.646 210.978 89.1818C210.978 88.7175 211.094 88.1373 211.21 87.7891C211.442 87.3249 211.674 86.9767 211.906 86.6285C212.254 86.2803 212.602 86.0482 213.067 85.8161C213.531 85.584 213.995 85.584 214.575 85.584C215.156 85.584 215.62 85.7 216.084 85.8161C216.548 86.0482 216.896 86.2803 217.245 86.6285C217.593 86.9767 217.825 87.3249 217.941 87.7891C218.173 88.2533 218.173 88.7175 218.173 89.1818C218.173 89.646 218.057 90.2263 217.941 90.5745C217.709 91.0387 217.477 91.3869 217.245 91.7351C216.896 92.0832 216.548 92.3154 216.084 92.5475C215.504 92.6635 215.04 92.7796 214.575 92.7796ZM214.575 91.8511C214.924 91.8511 215.388 91.7351 215.62 91.619C215.968 91.5029 216.2 91.2708 216.432 91.0387C216.664 90.8066 216.78 90.4584 217.013 90.1102C217.129 89.7621 217.245 89.4139 217.245 89.0657C217.245 88.7176 217.129 88.3694 217.013 88.0212C216.896 87.673 216.664 87.4409 216.432 87.0927C216.2 86.8606 215.968 86.6285 215.62 86.5125C215.272 86.3964 214.924 86.2803 214.575 86.2803C214.227 86.2803 213.763 86.3964 213.531 86.5125C213.299 86.6285 212.951 86.8606 212.718 87.0927C212.486 87.3249 212.37 87.673 212.138 88.0212C212.022 88.3694 211.906 88.7176 211.906 89.0657C211.906 89.4139 212.022 89.7621 212.138 90.1102C212.254 90.4584 212.486 90.6905 212.718 91.0387C212.951 91.2708 213.183 91.5029 213.531 91.619C213.763 91.7351 214.111 91.8511 214.575 91.8511Z" fill="#005398"/>
<path d="M220.262 85.584H221.539L225.369 91.2708V85.584H226.297V92.5475H225.137L221.307 86.8606V92.5475H220.262V85.584Z" fill="#005398"/>
<path d="M228.734 85.584H230.011L233.841 91.2708V85.584H234.769V92.5475H233.609L229.779 86.8606V92.5475H228.85V85.584H228.734Z" fill="#005398"/>
<path d="M237.323 85.584H241.849V86.5125H238.367V88.6015H241.617V89.53H238.367V91.7351H242.081V92.6635H237.439V85.584H237.323Z" fill="#005398"/>
<path d="M243.938 85.584H244.866V91.619H248V92.5475H243.822V85.584H243.938Z" fill="#005398"/>
<path d="M48.4963 94.6363C62.3072 92.5473 72.8684 80.8254 72.8684 66.5503C72.8684 62.8364 72.1721 59.3547 70.8955 56.1051L48.4963 94.6363ZM53.7189 46.3562L54.067 55.1766H33.4087C33.4087 55.1766 25.981 54.8284 29.927 62.9525C32.4802 68.059 41.4167 87.0926 41.4167 87.0926L64.8604 46.5883C59.7539 41.2496 52.5583 38 44.5503 38C35.2656 38 27.0255 42.4102 21.8029 49.2576C25.6328 46.4722 30.6233 46.2401 30.6233 46.2401C42.8094 46.1241 53.7189 46.3562 53.7189 46.3562ZM17.7409 56.6853C16.5803 59.7029 16 62.9525 16 66.4342C16 78.3882 23.3117 88.7174 33.8729 92.8955C31.0875 87.2086 24.1241 73.5138 21.2226 68.2911C18.2051 62.8364 17.6248 58.8904 17.7409 56.6853Z" fill="#005398"/>
</svg>
