<svg width="264" height="132" viewBox="0 0 264 132" fill="none" xmlns="http://www.w3.org/2000/svg">
<path d="M170.971 65.4796L161.53 65.4581C161.53 65.4581 163.721 54.5327 163.983 53.2663L155.09 53.2448L152.221 65.4581L142.934 65.4796L142.846 65.4581L149.33 35.043H159.055L156.93 44.9166H165.582L168.079 35.0215H177.235L170.971 65.4796Z" fill="#E4010B"/>
<path d="M41.2991 54.1044L48.5932 35.1298H58.2309L44.0371 65.4806C44.0371 65.4806 35.3193 65.4806 35.0565 65.4806L34.487 49.1032L28.5948 65.4806H19.6799L16 35.1942H25.1778C25.1778 35.1942 25.8349 52.9024 25.9444 54.1044C26.2292 53.117 32.5594 35.0439 32.5594 35.0439C32.5594 35.0439 38.5173 35.1727 41.4306 35.1298L41.2991 54.1044Z" fill="#E4010B"/>
<path d="M246.759 45.8395C248.226 48.0503 247.985 50.2826 247.985 50.2826C245.466 50.2826 242.575 50.2611 239.968 50.1967C240.034 49.6816 240.1 49.0806 239.815 48.6298C239.048 47.7283 237.734 47.6639 236.573 47.8357C235.763 47.9644 234.799 48.4581 234.58 49.3167C234.514 49.6601 234.711 49.9392 234.996 50.1538C236.661 51.1197 238.786 51.0124 240.626 51.6349C243.079 52.15 246.102 53.2662 246.671 56.0565C246.824 58.9757 246.211 62.0022 243.67 63.8696C239.508 66.7673 233.069 66.4883 228.315 65.3292C226.322 64.6853 224.044 63.3759 223.628 61.1651C223.431 59.9845 223.431 58.8255 223.716 57.6878L232.214 57.7522C232.017 58.2459 231.908 58.8899 232.127 59.3835C232.499 60.4353 233.572 60.8431 234.58 60.9504C235.807 61.0792 237.011 60.9504 237.844 60.0489C238.15 59.684 238.194 59.126 238.063 58.6967C237.778 58.203 237.187 57.9454 236.683 57.7308C234.164 57.0439 231.513 56.8078 229.148 55.8204C226.979 54.9833 225.709 52.9227 225.687 50.6904C225.753 49.5743 226.125 48.3079 226.125 48.3079C227.921 43.972 232.981 42.9418 237.559 42.9632C240.998 43.0276 244.371 43.4354 246.759 45.8395Z" fill="#E4010B"/>
<path d="M146.154 43.1998L144.511 50.6909C143.153 50.3904 141.335 50.2617 140.108 50.9914C137.962 51.9788 137.326 54.254 136.866 56.2717L134.961 65.4585H126.09L130.295 46.5912L130.952 43.6077H138.487C138.422 44.7453 138.268 45.9258 138.29 47.0634C139.276 45.7112 140.305 44.1657 141.97 43.4574C143.175 42.8993 144.905 42.7276 146.154 43.1998Z" fill="#E4010B"/>
<path d="M208.47 56.0996C208.317 57.2157 208.12 58.5036 209.04 59.3407C209.763 60.0276 210.967 59.9846 211.844 59.7056C213.99 58.8041 214.494 56.5503 214.932 54.64L217.276 43.4355H225.818L224.657 48.6729L223.015 56.443L222.861 57.1728L221.175 65.4366L213.508 65.3937L213.377 63.419C211.274 65.4796 208.492 66.3167 205.448 66.0806C203.345 65.9303 201.22 65.2864 200.037 63.3975C198.614 61.4228 199.249 58.5895 199.687 56.3572L202.534 43.4355H211.143L208.47 56.0996Z" fill="#E4010B"/>
<path d="M96.7383 43.1136C93.4746 42.2121 90.0576 43.135 87.6043 45.2815L87.5386 45.2171C88.2614 41.7828 89.05 38.4558 89.7509 35C87.2539 35 83.9244 35 81.1645 35L80.9674 35.0859L74.6371 65.4581H82.9826L83.7711 62.6892H83.8368C85.6987 64.6854 88.0205 65.8444 90.7366 65.8874C94.8327 65.9088 98.7097 63.2687 100.177 59.6197C101.557 55.8849 102.762 51.592 101.535 47.4065C100.834 45.3673 98.8849 43.6502 96.7383 43.1136ZM92.2918 56.2498C91.7661 57.4518 91.0871 58.7826 89.7509 59.3407C88.6776 59.6412 87.4291 59.6197 86.6405 58.8256C85.1292 57.3445 85.5673 55.0478 86.0053 53.2448C86.2025 52.5365 86.9253 51.1198 86.9253 51.1198C87.6919 50.0037 88.7871 48.9519 90.1452 48.8017C91.1747 48.7158 92.1604 48.9519 92.7518 49.8105C93.8689 51.8281 92.9927 54.2536 92.2918 56.2498Z" fill="#E4010B"/>
<path d="M199.118 51.8929C199.424 49.8967 199.84 47.5785 198.482 45.9043C197.322 44.5091 195.679 43.994 194.036 43.5647C189.874 42.8349 184.705 42.7061 180.915 44.4662C178.375 45.5823 176.732 48.201 176.469 50.8197H176.6L184.968 50.7553L185.493 49.682C186.085 48.7161 187.092 48.0722 188.209 48.0078C189.217 47.8576 190.203 48.1366 190.882 48.8449C191.145 49.1884 191.298 49.5747 191.166 50.0255C191.013 50.9484 189.94 51.1631 189.173 51.3563L180.937 52.6012C179.076 53.009 177.148 53.4598 175.68 54.7906C173.643 56.5721 173.293 59.5772 174.147 61.9812C174.87 63.9559 176.929 65.4584 178.966 65.8662C182.295 66.7034 185.734 65.8662 188.1 63.6125C188.166 64.1276 188.012 64.8789 188.1 65.5013L196.862 65.4799L197.081 65.4155C196.555 64.3423 196.73 62.9471 196.927 61.8095L199.118 51.8929ZM186.786 60.0494C185.647 60.6718 184.004 60.9723 182.843 60.264C182.252 59.9206 181.989 59.341 181.967 58.7186C181.967 57.7097 182.777 56.937 183.632 56.5292C185.559 55.8209 187.684 55.6921 189.655 55.0696C189.48 57.0014 188.735 59.062 186.786 60.0494Z" fill="#E4010B"/>
<path d="M120.219 43.4575C114.831 42.4272 109.136 43.3716 105.675 47.686C102.521 51.5496 101.294 57.2162 103.791 61.7452C106.507 66.2527 112.356 66.4888 117.372 65.8234C121.139 65.2654 125.104 62.4964 126.199 58.7402L117.788 58.7187C117.197 59.4914 116.364 60.071 115.488 60.2427C113.889 60.5217 112.224 60.1783 111.261 58.8904C110.888 58.2679 110.801 57.4094 111.042 56.7225L127.031 56.744C127.031 56.744 127.754 50.7339 126.615 48.1796C125.608 45.4966 122.87 43.9941 120.219 43.4575ZM119.256 51.9789H112.027C112.312 50.5193 113.517 49.2099 115.028 48.8665C116.342 48.5231 117.919 48.6519 118.861 49.6392C119.299 50.2832 119.431 51.1847 119.256 51.9789Z" fill="#E4010B"/>
<path d="M64.583 59.9419C63.1593 60.5644 61.2755 60.3712 60.0489 59.4482C59.1947 58.7399 59.0194 57.6237 59.3261 56.6793L75.2503 56.6578C75.9512 53.7601 76.0169 50.1112 74.5274 47.471C73.0161 44.5733 69.8619 43.6074 66.883 43.1781C61.3412 42.4913 55.5586 44.3158 52.7549 49.3814C50.5426 53.0303 49.8636 58.4179 52.3387 62.1957C55.3615 66.51 61.4727 66.5529 66.3792 65.6729C69.9057 65.029 73.4541 62.1742 74.396 58.697H65.9849C65.6344 59.1262 65.0868 59.6629 64.583 59.9419ZM62.3488 49.1667C63.7945 48.5228 66.0068 48.2652 67.1239 49.6604C67.6058 50.3043 67.6934 51.1415 67.4963 51.8713C65.043 51.9356 62.765 51.9571 60.2899 51.9356C60.4432 50.841 61.2755 49.7892 62.3488 49.1667Z" fill="#E4010B"/>
<path d="M82.2685 82.4013C82.2685 83.0166 82.1796 83.6729 82.0239 84.3703C81.8683 85.0677 81.6459 85.7446 81.3569 86.4214C81.0679 87.0983 80.7344 87.7137 80.3564 88.3085C79.9784 88.9033 79.556 89.3956 79.1113 89.7853C78.7333 90.1135 78.3331 90.4006 77.9329 90.6262C77.5327 90.8519 77.1103 91.0365 76.6434 91.2006C76.1987 91.3441 75.6873 91.4672 75.1537 91.5287C74.6201 91.5903 74.0198 91.6313 73.375 91.6313H69.3729L72.6858 77.2119H76.1097C76.7101 77.2119 77.2214 77.2324 77.6883 77.2735C78.1553 77.3145 78.5555 77.376 78.9334 77.4581C79.2892 77.5401 79.6227 77.6632 79.934 77.8273C80.2452 77.9708 80.5343 78.1759 80.8011 78.4221C81.2902 78.8323 81.6459 79.3656 81.8905 80.022C82.1573 80.6373 82.2685 81.4372 82.2685 82.4013ZM79.9117 82.5448C79.9117 81.95 79.8672 81.4577 79.7783 81.0475C79.6894 80.6373 79.556 80.2886 79.3336 79.9809C79.0001 79.4887 78.5999 79.181 78.133 79.0169C77.6661 78.8733 77.0658 78.7913 76.3098 78.7913H74.5311L71.9965 89.9083H73.6418C75.5539 89.9083 76.9102 89.4161 77.7328 88.411C78.1108 87.9393 78.4443 87.447 78.7111 86.9137C78.9779 86.3804 79.2225 85.8266 79.4003 85.2933C79.5782 84.76 79.7116 84.2473 79.8005 83.755C79.8672 83.3243 79.9117 82.8935 79.9117 82.5448Z" fill="black"/>
<path d="M86.3597 91.6109H84.1807L86.582 81.1707L88.8277 80.863L86.3597 91.6109ZM89.9394 77.9299C89.9394 78.3196 89.806 78.6478 89.517 78.9145C89.2279 79.1811 88.8722 79.3042 88.4497 79.3042C88.0272 79.3042 87.6715 79.1606 87.3602 78.9145C87.0712 78.6478 86.9155 78.3196 86.9155 77.9299C86.9155 77.5402 87.0712 77.212 87.3602 76.9454C87.6493 76.6787 88.005 76.5352 88.4497 76.5352C88.8722 76.5352 89.2279 76.6787 89.517 76.9454C89.806 77.212 89.9394 77.5402 89.9394 77.9299Z" fill="black"/>
<path d="M100.789 83.5708C100.789 84.0015 100.701 84.4117 100.523 84.7809C100.345 85.1501 100.078 85.4783 99.7445 85.7655C99.2553 86.1757 98.6327 86.5039 97.8545 86.709C97.0763 86.9141 96.0757 87.0167 94.8751 87.0167C94.6083 87.0167 94.3637 86.9961 94.1191 86.9756C93.8745 86.9551 93.6522 86.9346 93.4743 86.9346C93.4298 87.1192 93.3854 87.3243 93.3631 87.5499C93.3409 87.7756 93.3186 87.9807 93.3186 88.1653C93.3186 88.8832 93.5188 89.396 93.9412 89.7652C94.3637 90.1138 94.8751 90.2984 95.4976 90.2984C96.1647 90.2984 96.7428 90.2164 97.2542 90.0318C97.7656 89.8472 98.277 89.56 98.8106 89.1293L99.5666 90.319C99.2553 90.5856 98.944 90.8112 98.6327 90.9958C98.2992 91.1804 97.9657 91.3445 97.5877 91.4676C97.2319 91.5907 96.8317 91.6932 96.387 91.7547C95.9646 91.8163 95.4754 91.8573 94.9418 91.8573C93.8078 91.8573 92.874 91.5291 92.1402 90.8522C91.4065 90.1959 91.0507 89.2524 91.0507 88.0217C91.0507 87.5089 91.1174 86.9756 91.2286 86.4423C91.3398 85.909 91.4954 85.3963 91.7178 84.8835C91.9401 84.3707 92.1847 83.8989 92.5182 83.4682C92.8295 83.017 93.1852 82.6067 93.5855 82.2581C94.1636 81.7453 94.7639 81.3761 95.3865 81.1505C96.009 80.9043 96.6761 80.8018 97.3876 80.8018C98.4771 80.8018 99.322 81.0479 99.9223 81.5196C100.5 82.0119 100.789 82.7093 100.789 83.5708ZM98.6772 83.6733C98.6772 83.3041 98.566 82.9759 98.3214 82.7093C98.0769 82.4427 97.6544 82.3196 97.0763 82.3196C96.387 82.3196 95.7422 82.6067 95.1641 83.1605C94.5638 83.7143 94.1191 84.5143 93.83 85.5604C93.9412 85.5809 94.1191 85.5809 94.3414 85.6014C94.5416 85.6014 94.7417 85.6014 94.9418 85.6014C95.8312 85.6014 96.4982 85.5398 97.0096 85.4168C97.4988 85.2937 97.899 85.1091 98.188 84.8425C98.4993 84.4938 98.6772 84.1041 98.6772 83.6733Z" fill="black"/>
<path d="M111.417 88.6581C111.195 88.9248 110.972 89.1504 110.772 89.3555C110.572 89.5401 110.372 89.7452 110.216 89.9503C110.439 89.9298 110.639 89.9298 110.861 89.9298C111.083 89.9298 111.328 89.9093 111.595 89.9093H117.531L116.797 91.6323H107.37V90.1555L116.219 80.2075C116.442 79.9614 116.686 79.6947 116.909 79.4486C117.153 79.2025 117.353 78.9974 117.509 78.8333C117.331 78.8538 117.131 78.8538 116.864 78.8743C116.597 78.8743 116.264 78.8743 115.908 78.8743H110.372L111.128 77.1719H120.177V78.5871L111.417 88.6581Z" fill="black"/>
<path d="M129.271 88.514C129.16 88.9652 129.115 89.3549 129.115 89.7036C129.115 90.1754 129.249 90.6061 129.538 90.9958L127.826 92.0214C127.559 91.7753 127.381 91.5086 127.247 91.242C127.114 90.9548 127.047 90.6061 127.047 90.1959V89.9498C126.403 90.6266 125.758 91.1189 125.068 91.4471C124.379 91.7753 123.69 91.9394 122.978 91.9394C122.2 91.9394 121.578 91.7753 121.133 91.4266C120.688 91.0779 120.466 90.5446 120.466 89.8267C120.466 89.3139 120.533 88.7806 120.644 88.2473L122.289 81.212L124.424 80.8633L122.823 87.8371C122.689 88.4114 122.623 88.8627 122.623 89.2114C122.623 89.6216 122.712 89.9087 122.867 90.0728C123.023 90.2369 123.29 90.3395 123.645 90.3395C123.912 90.3395 124.201 90.2779 124.513 90.1754C124.824 90.0728 125.135 89.9087 125.469 89.7036C125.802 89.4985 126.114 89.2524 126.425 88.9447C126.736 88.637 127.025 88.3089 127.292 87.9191L128.848 81.212L130.983 80.8633L129.271 88.514Z" fill="black"/>
<path d="M138.053 76.124C138.142 76.4112 138.186 76.7804 138.186 77.2727C138.186 77.6008 138.164 77.9905 138.12 78.4008C138.075 78.811 137.986 79.2622 137.875 79.734L135.118 91.61H133.028L135.696 79.9596C135.874 79.2007 135.963 78.5033 135.963 77.888C135.963 77.4778 135.918 77.1496 135.83 76.8624L138.053 76.124ZM138.876 85.6822L142.544 91.3638L140.321 91.8561L136.608 85.5387L141.944 80.7596L143.834 81.4569L138.876 85.6822Z" fill="black"/>
<path d="M153.372 88.514C153.261 88.9652 153.216 89.3549 153.216 89.7036C153.216 90.1754 153.372 90.6061 153.639 90.9958L151.927 92.0214C151.66 91.7753 151.482 91.5086 151.349 91.242C151.215 90.9548 151.149 90.6061 151.149 90.1959V89.9498C150.504 90.6266 149.859 91.1189 149.148 91.4471C148.458 91.7753 147.769 91.9394 147.08 91.9394C146.302 91.9394 145.679 91.7753 145.234 91.4266C144.79 91.0779 144.567 90.5446 144.567 89.8267C144.567 89.3139 144.634 88.7806 144.745 88.2473L146.39 81.212L148.525 80.8633L146.924 87.8371C146.791 88.4114 146.724 88.8627 146.724 89.2114C146.724 89.6216 146.813 89.9087 146.969 90.0728C147.124 90.2369 147.391 90.3395 147.747 90.3395C148.014 90.3395 148.303 90.2779 148.614 90.1754C148.925 90.0728 149.236 89.9087 149.57 89.7036C149.904 89.4985 150.215 89.2524 150.526 88.9447C150.837 88.637 151.126 88.3089 151.393 87.9191L152.95 81.212L155.084 80.8633L153.372 88.514Z" fill="black"/>
<path d="M167.602 82.9554C167.602 83.2221 167.557 83.5092 167.491 83.8374L165.69 91.6112H163.622L165.245 84.5758C165.312 84.3297 165.356 84.1041 165.378 83.94C165.401 83.7759 165.423 83.6118 165.423 83.4887C165.423 82.8529 165.089 82.5452 164.4 82.5452C163.955 82.5452 163.422 82.7093 162.799 83.058C162.177 83.3862 161.51 83.9605 160.82 84.7809L159.242 91.6317H157.174L158.908 84.2271C159.064 83.5708 159.13 83.0375 159.13 82.6273C159.13 82.2581 159.086 81.9094 158.975 81.5812L160.931 80.7812C160.998 80.9864 161.065 81.171 161.132 81.3966C161.176 81.6017 161.221 81.8478 161.221 82.094C161.221 82.3196 161.176 82.6067 161.109 82.9554C161.687 82.2786 162.354 81.7453 163.088 81.3966C163.844 81.0479 164.6 80.8633 165.378 80.8633C166.09 80.8633 166.646 81.0479 167.046 81.4376C167.402 81.8068 167.602 82.2991 167.602 82.9554Z" fill="black"/>
<path d="M178.385 78.2581C177.896 77.971 177.385 77.8274 176.829 77.8274C176.362 77.8274 175.962 77.971 175.628 78.2581C175.295 78.5453 175.072 78.9555 174.961 79.4888L174.65 81.0887H177.74L176.829 82.504H174.383L172.382 91.8161C172.16 92.8006 171.893 93.621 171.559 94.2979C171.226 94.9748 170.826 95.5491 170.336 96.0414L168.78 95.0978C169.136 94.6876 169.425 94.2159 169.692 93.6621C169.958 93.1083 170.159 92.4519 170.336 91.693L172.293 82.4834H171.137L171.426 81.0682H172.56L172.849 79.6529C173.005 78.935 173.227 78.3607 173.538 77.9094C173.849 77.4582 174.227 77.1095 174.694 76.8224C175.006 76.6377 175.339 76.5147 175.695 76.4326C176.073 76.3506 176.473 76.3096 176.896 76.3096C177.874 76.3096 178.63 76.4942 179.208 76.8634L178.385 78.2581Z" fill="black"/>
<path d="M183.721 82.5037H181.387L180.03 88.4314C179.986 88.657 179.941 88.8622 179.919 89.0262C179.897 89.2108 179.875 89.3749 179.875 89.5185C179.875 89.8877 179.964 90.1339 180.141 90.2774C180.319 90.421 180.608 90.4825 180.986 90.4825C181.209 90.4825 181.431 90.462 181.609 90.421C181.809 90.38 181.987 90.339 182.165 90.2569V91.4466C181.453 91.7337 180.72 91.8978 179.941 91.8978C179.208 91.8978 178.674 91.7337 178.318 91.4261C177.962 91.1184 177.762 90.6877 177.762 90.1544C177.762 89.9082 177.762 89.6621 177.785 89.4365C177.807 89.2108 177.851 88.9442 177.918 88.6776L179.341 82.5037H177.962L178.251 81.0884H179.652C179.763 80.6372 179.897 80.1859 180.03 79.7552C180.164 79.3039 180.297 78.8937 180.43 78.4835L182.698 78.0117L182.454 78.7091C182.365 78.9552 182.276 79.2219 182.187 79.4885C182.098 79.7552 182.031 80.0423 181.942 80.309C181.876 80.5756 181.809 80.8423 181.765 81.0679H184.522L183.721 82.5037Z" fill="black"/>
<path d="M195.016 76.124C195.105 76.4112 195.149 76.7804 195.149 77.2316C195.149 77.6419 195.127 78.0726 195.06 78.5238C194.994 78.9751 194.927 79.4058 194.838 79.816L192.748 88.7999C192.681 89.0871 192.615 89.3127 192.592 89.4768C192.57 89.6409 192.548 89.7845 192.548 89.887C192.548 90.2357 192.726 90.4203 193.059 90.4203H193.259C193.326 90.4203 193.393 90.3998 193.46 90.3793L193.571 91.61C193.304 91.7125 193.059 91.7741 192.815 91.8151C192.57 91.8561 192.303 91.8766 192.059 91.8766C191.503 91.8766 191.08 91.7536 190.769 91.5074C190.48 91.2613 190.324 90.9126 190.324 90.4613C190.324 90.1742 190.391 89.7845 190.502 89.2922L192.615 80.0212C192.793 79.2212 192.881 78.5033 192.881 77.929C192.881 77.5188 192.837 77.1906 192.748 76.9034L195.016 76.124Z" fill="black"/>
<path d="M206.578 83.5708C206.578 84.0015 206.489 84.4117 206.311 84.7809C206.133 85.1501 205.866 85.4783 205.533 85.7655C205.043 86.1757 204.421 86.5039 203.643 86.709C202.864 86.9141 201.886 87.0167 200.663 87.0167C200.396 87.0167 200.152 86.9961 199.907 86.9756C199.663 86.9551 199.44 86.9346 199.262 86.9346C199.218 87.1192 199.173 87.3243 199.151 87.5499C199.129 87.7756 199.107 87.9807 199.107 88.1653C199.107 88.8832 199.307 89.396 199.729 89.7652C200.152 90.1138 200.663 90.2984 201.286 90.2984C201.953 90.2984 202.531 90.2164 203.042 90.0318C203.531 89.8472 204.065 89.56 204.576 89.1293L205.332 90.319C205.021 90.5856 204.71 90.8112 204.399 90.9958C204.065 91.1804 203.732 91.3445 203.376 91.4676C203.02 91.5907 202.62 91.6932 202.175 91.7547C201.753 91.8163 201.263 91.8573 200.73 91.8573C199.596 91.8573 198.662 91.5291 197.928 90.8522C197.195 90.1959 196.839 89.2524 196.839 88.0217C196.839 87.5089 196.906 86.9756 197.017 86.4423C197.128 85.909 197.306 85.3963 197.506 84.8835C197.728 84.3707 197.973 83.8989 198.306 83.4682C198.618 83.017 198.973 82.6067 199.374 82.2581C199.952 81.7453 200.552 81.3761 201.175 81.1505C201.797 80.9043 202.464 80.8018 203.176 80.8018C204.265 80.8018 205.11 81.0479 205.71 81.5196C206.289 82.0119 206.578 82.7093 206.578 83.5708ZM204.465 83.6733C204.465 83.3041 204.354 82.9759 204.11 82.7093C203.865 82.4427 203.442 82.3196 202.864 82.3196C202.175 82.3196 201.553 82.6067 200.952 83.1605C200.352 83.7143 199.907 84.5143 199.618 85.5604C199.729 85.5809 199.907 85.5809 200.13 85.6014C200.352 85.6014 200.53 85.6014 200.73 85.6014C201.597 85.6014 202.286 85.5398 202.775 85.4168C203.265 85.2937 203.665 85.1091 203.954 84.8425C204.287 84.4938 204.465 84.1041 204.465 83.6733Z" fill="black"/>
<path d="M219.406 84.35C219.406 85.6217 219.162 86.8113 218.65 87.8984C218.139 88.9855 217.45 89.888 216.605 90.5854C216.071 91.0161 215.493 91.3443 214.893 91.5289C214.27 91.734 213.648 91.8366 213.025 91.8366C212.247 91.8366 211.469 91.734 210.668 91.5494C209.868 91.3648 209.179 91.0572 208.6 90.6264C208.667 90.4623 208.734 90.2162 208.823 89.9085C208.912 89.6009 208.978 89.3137 209.045 89.0676L211.135 79.9401C211.291 79.3042 211.38 78.7094 211.402 78.1556C211.424 77.6018 211.38 77.1711 211.269 76.8224L213.47 76.084C213.603 76.4532 213.625 76.9455 213.603 77.5608C213.559 78.1556 213.47 78.812 213.314 79.5094L213.003 81.0067C212.958 81.2528 212.87 81.54 212.758 81.8887C212.647 82.2373 212.558 82.545 212.469 82.7911C212.692 82.504 212.958 82.2579 213.247 82.0117C213.537 81.7656 213.848 81.5605 214.181 81.3759C214.515 81.1913 214.871 81.0477 215.249 80.9657C215.627 80.8631 216.005 80.8221 216.383 80.8221C217.428 80.8221 218.206 81.1297 218.695 81.7451C219.162 82.4014 219.406 83.2424 219.406 84.35ZM217.116 84.3705C217.116 83.7757 216.983 83.3244 216.716 83.0168C216.449 82.7091 216.049 82.545 215.493 82.545C214.915 82.545 214.337 82.7296 213.759 83.1193C213.181 83.4885 212.625 84.0218 212.069 84.7192L210.913 89.7239C211.402 90.1136 212.114 90.3188 213.092 90.3188C213.292 90.3188 213.492 90.2777 213.714 90.2162C213.937 90.1547 214.159 90.0726 214.359 89.9701C214.582 89.8675 214.759 89.765 214.96 89.6214C215.137 89.4983 215.293 89.3547 215.404 89.1906C215.671 88.9035 215.893 88.5548 216.116 88.1241C216.338 87.7138 216.516 87.2831 216.649 86.8524C216.783 86.4216 216.894 85.9704 216.983 85.5396C217.072 85.1089 217.116 84.7192 217.116 84.3705Z" fill="black"/>
<path d="M231.702 83.5708C231.702 84.0015 231.613 84.4117 231.435 84.7809C231.257 85.1501 230.99 85.4783 230.657 85.7655C230.168 86.1757 229.545 86.5039 228.767 86.709C227.989 86.9141 226.988 87.0167 225.787 87.0167C225.521 87.0167 225.276 86.9961 225.031 86.9756C224.787 86.9551 224.565 86.9346 224.387 86.9346C224.342 87.1192 224.298 87.3243 224.276 87.5499C224.253 87.7756 224.231 87.9807 224.231 88.1653C224.231 88.8832 224.431 89.396 224.854 89.7652C225.276 90.1138 225.787 90.2984 226.41 90.2984C227.077 90.2984 227.655 90.2164 228.167 90.0318C228.678 89.8472 229.189 89.56 229.723 89.1293L230.479 90.319C230.168 90.5856 229.856 90.8112 229.545 90.9958C229.212 91.1804 228.878 91.3445 228.5 91.4676C228.144 91.5907 227.744 91.6932 227.299 91.7547C226.877 91.8163 226.388 91.8573 225.854 91.8573C224.72 91.8573 223.786 91.5291 223.053 90.8522C222.319 90.1959 221.963 89.2524 221.963 88.0217C221.963 87.5089 222.03 86.9756 222.141 86.4423C222.252 85.909 222.408 85.3963 222.63 84.8835C222.83 84.3707 223.097 83.8989 223.431 83.4682C223.742 83.017 224.098 82.6067 224.498 82.2581C225.076 81.7453 225.676 81.3761 226.299 81.1505C226.921 80.9043 227.588 80.8018 228.3 80.8018C229.389 80.8018 230.234 81.0479 230.835 81.5196C231.413 82.0119 231.702 82.7093 231.702 83.5708ZM229.59 83.6733C229.59 83.3041 229.456 82.9759 229.234 82.7093C228.989 82.4427 228.567 82.3196 227.989 82.3196C227.299 82.3196 226.655 82.6067 226.077 83.1605C225.476 83.7143 225.031 84.5143 224.742 85.5604C224.854 85.5809 225.031 85.5809 225.254 85.6014C225.454 85.6014 225.654 85.6014 225.854 85.6014C226.744 85.6014 227.411 85.5398 227.922 85.4168C228.411 85.2937 228.811 85.1091 229.1 84.8425C229.412 84.4938 229.59 84.1041 229.59 83.6733Z" fill="black"/>
<path d="M243.997 82.9554C243.997 83.2221 243.952 83.5092 243.886 83.8374L242.085 91.6112H239.995L241.618 84.5758C241.684 84.3297 241.729 84.1041 241.751 83.94C241.773 83.7759 241.796 83.6118 241.796 83.4887C241.796 82.8529 241.462 82.5452 240.773 82.5452C240.328 82.5452 239.795 82.7093 239.172 83.058C238.549 83.3862 237.882 83.9605 237.193 84.7809L235.614 91.6317H233.547L235.281 84.2271C235.437 83.5708 235.503 83.0375 235.503 82.6273C235.503 82.2581 235.459 81.9094 235.348 81.5812L237.304 80.7812C237.393 80.9864 237.438 81.171 237.504 81.3966C237.549 81.6017 237.593 81.8478 237.593 82.094C237.593 82.3196 237.549 82.6067 237.482 82.9554C238.06 82.2786 238.727 81.7453 239.461 81.3966C240.217 81.0479 240.973 80.8633 241.751 80.8633C242.463 80.8633 243.019 81.0479 243.419 81.4376C243.797 81.8068 243.997 82.2991 243.997 82.9554Z" fill="black"/>
</svg>
