<svg width="264" height="132" viewBox="0 0 264 132" fill="none" xmlns="http://www.w3.org/2000/svg">
<path fill-rule="evenodd" clip-rule="evenodd" d="M17 28H21.8474H26.6947H31.0035L42.9379 50.0786L55.2404 28H64.3965H71.3983C69.6322 30.0183 67.6694 32.4771 65.7376 35.0018H60.5107L59.3151 37.1561H64.1075C62.7094 39.0233 61.3634 40.8687 60.1606 42.5421H56.3261L55.1304 44.6965H58.6228C56.5871 47.5677 55.2404 49.5439 55.2404 49.5439H52.4403L47.4801 58.4817L52.5474 67.8562H43.3912L26.0322 35.7418L17 28Z" fill="#B43F62"/>
<path fill-rule="evenodd" clip-rule="evenodd" d="M164.576 28V67.8562H172.654V56.5456H185.042L192.583 67.8562H202.277L193.819 55.1682C199.07 53.2387 202.816 48.1932 202.816 42.2728V41.7342C202.816 34.149 196.667 28 189.082 28H172.654H165.114H164.576ZM172.654 35.0018V50.0825H186.35C190.685 50.0825 194.737 46.7715 194.737 42.6871V42.3971C194.737 38.3128 191.223 35.0018 186.889 35.0018H172.654Z" fill="#B43F62"/>
<path fill-rule="evenodd" clip-rule="evenodd" d="M246.981 28H209.279V35.5404H223.821V67.8562H232.439V35.5404H246.981V28Z" fill="#B43F62"/>
<path fill-rule="evenodd" clip-rule="evenodd" d="M112.332 67.8562L131.182 28H139.8L158.651 67.8562H150.033L146.802 60.8544H124.151L120.949 67.8562H112.332ZM135.491 36.6175L126.874 54.9298H144.109L135.491 36.6175Z" fill="#B43F62"/>
<path d="M67.6281 47.9328C67.6281 45.1272 68.1641 42.5149 69.2359 40.0957C70.3078 37.6598 71.8561 35.5514 73.8808 33.7707C75.9225 31.9731 78.4066 30.5619 81.333 29.5372C84.2764 28.5124 87.6027 28 91.3118 28C94.5615 28 97.539 28.3276 100.244 28.9828C102.966 29.6212 105.493 30.6039 107.824 31.9311L104.098 37.979C103.4 37.5254 102.592 37.1222 101.673 36.7694C100.772 36.4166 99.8018 36.1226 98.764 35.8874C97.7431 35.6354 96.6797 35.4422 95.5738 35.3078C94.4849 35.1734 93.4045 35.1063 92.3326 35.1063C89.7465 35.1063 87.4411 35.4254 85.4164 36.0638C83.3917 36.6854 81.6818 37.5674 80.2866 38.7098C78.9085 39.8354 77.8536 41.1877 77.122 42.7669C76.4074 44.3293 76.0501 46.0512 76.0501 47.9328C76.0501 49.8815 76.4244 51.6707 77.173 53.3003C77.9217 54.9298 79.0021 56.341 80.4142 57.5338C81.8434 58.7098 83.5789 59.6337 85.6206 60.3057C87.6793 60.9609 90.0017 61.2885 92.5878 61.2885C93.7618 61.2885 94.9273 61.2045 96.0842 61.0365C97.2412 60.8685 98.3556 60.6417 99.4275 60.3561C100.516 60.0537 101.563 59.7009 102.567 59.2977C103.57 58.8778 104.506 58.4242 105.374 57.937L109.1 63.9848C106.922 65.3624 104.404 66.446 101.546 67.2356C98.6874 68.0084 95.6504 68.3948 92.4347 68.3948C88.3343 68.3948 84.7358 67.874 81.6392 66.8324C78.5427 65.774 75.9565 64.3292 73.8808 62.4981C71.8051 60.6501 70.2398 58.483 69.1849 55.9966C68.147 53.4935 67.6281 50.8055 67.6281 47.9328Z" fill="#B43F62"/>
<path d="M32 88.8021V79.9118H33.1765V87.7529H37.5549V88.8021H32Z" fill="#B43F62"/>
<path d="M43.0249 88.0076C42.6206 88.3513 42.2305 88.5939 41.8545 88.7354C41.4825 88.8769 41.0823 88.9476 40.6538 88.9476C39.9463 88.9476 39.4025 88.7758 39.0225 88.4321C38.6424 88.0845 38.4524 87.6418 38.4524 87.1041C38.4524 86.7887 38.5232 86.5017 38.6647 86.2429C38.8102 85.9801 38.9982 85.7699 39.2286 85.6122C39.4631 85.4546 39.7259 85.3353 40.017 85.2544C40.2313 85.1978 40.5547 85.1433 40.9873 85.0907C41.8686 84.9856 42.5175 84.8603 42.9339 84.7147C42.938 84.5651 42.94 84.4701 42.94 84.4297C42.94 83.985 42.8369 83.6717 42.6307 83.4897C42.3518 83.2431 41.9374 83.1198 41.3875 83.1198C40.8741 83.1198 40.4941 83.2108 40.2474 83.3927C40.0049 83.5706 39.825 83.888 39.7077 84.3448L38.6404 84.1993C38.7374 83.7424 38.8971 83.3745 39.1195 83.0956C39.3418 82.8126 39.6633 82.5963 40.0837 82.4467C40.5042 82.293 40.9913 82.2162 41.5452 82.2162C42.095 82.2162 42.5418 82.2809 42.8854 82.4103C43.2291 82.5397 43.4817 82.7034 43.6435 82.9015C43.8052 83.0956 43.9184 83.3422 43.9831 83.6413C44.0194 83.8273 44.0376 84.1629 44.0376 84.648V86.1034C44.0376 87.1182 44.0599 87.761 44.1043 88.0319C44.1529 88.2987 44.2458 88.5554 44.3833 88.8021H43.2432C43.13 88.5757 43.0572 88.3109 43.0249 88.0076ZM42.9339 85.5698C42.5377 85.7315 41.9434 85.869 41.151 85.9822C40.7023 86.0468 40.3849 86.1196 40.1989 86.2005C40.013 86.2813 39.8694 86.4006 39.7684 86.5583C39.6673 86.7119 39.6168 86.8837 39.6168 87.0737C39.6168 87.3648 39.7259 87.6074 39.9442 87.8014C40.1666 87.9955 40.49 88.0925 40.9145 88.0925C41.335 88.0925 41.7089 88.0016 42.0364 87.8196C42.3639 87.6337 42.6044 87.381 42.7581 87.0616C42.8753 86.815 42.9339 86.4511 42.9339 85.97V85.5698Z" fill="#B43F62"/>
<path d="M49.1802 88.8021V82.3618H50.1626V83.3381C50.4132 82.8813 50.6437 82.5801 50.8539 82.4345C51.0682 82.289 51.3027 82.2162 51.5574 82.2162C51.9253 82.2162 52.2992 82.3335 52.6793 82.568L52.3033 83.5807C52.0364 83.423 51.7696 83.3442 51.5028 83.3442C51.2643 83.3442 51.05 83.417 50.86 83.5625C50.67 83.704 50.5345 83.9021 50.4537 84.1568C50.3324 84.5449 50.2717 84.9694 50.2717 85.4303V88.8021H49.1802Z" fill="#B43F62"/>
<path d="M57.7369 86.7281L58.8648 86.8675C58.687 87.5265 58.3575 88.038 57.8764 88.4018C57.3953 88.7657 56.7808 88.9476 56.0328 88.9476C55.0908 88.9476 54.3429 88.6585 53.789 88.0804C53.2392 87.4982 52.9643 86.6836 52.9643 85.6365C52.9643 84.553 53.2432 83.7121 53.8012 83.1137C54.3591 82.5154 55.0827 82.2162 55.9722 82.2162C56.8333 82.2162 57.5368 82.5093 58.0826 83.0956C58.6283 83.6818 58.9012 84.5065 58.9012 85.5698C58.9012 85.6345 58.8992 85.7315 58.8952 85.8609H54.0922C54.1327 86.5684 54.3328 87.1101 54.6926 87.4861C55.0524 87.8621 55.5012 88.0501 56.0389 88.0501C56.4391 88.0501 56.7808 87.945 57.0638 87.7347C57.3468 87.5245 57.5711 87.189 57.7369 86.7281ZM54.1529 84.9634H57.749C57.7005 84.4216 57.563 84.0153 57.3366 83.7444C56.989 83.324 56.5382 83.1137 55.9843 83.1137C55.483 83.1137 55.0605 83.2815 54.7169 83.6171C54.3773 83.9526 54.1893 84.4014 54.1529 84.9634ZM55.3294 81.5613L56.1359 79.8633H57.5671L56.2329 81.5613H55.3294Z" fill="#B43F62"/>
<path d="M64.444 88.0076C64.0397 88.3513 63.6496 88.5939 63.2736 88.7354C62.9017 88.8769 62.5014 88.9476 62.0729 88.9476C61.3654 88.9476 60.8216 88.7758 60.4416 88.4321C60.0615 88.0845 59.8715 87.6418 59.8715 87.1041C59.8715 86.7887 59.9423 86.5017 60.0838 86.2429C60.2293 85.9801 60.4173 85.7699 60.6478 85.6122C60.8822 85.4546 61.145 85.3353 61.4361 85.2544C61.6504 85.1978 61.9738 85.1433 62.4064 85.0907C63.2877 84.9856 63.9366 84.8603 64.353 84.7147C64.3571 84.5651 64.3591 84.4701 64.3591 84.4297C64.3591 83.985 64.256 83.6717 64.0498 83.4897C63.7709 83.2431 63.3565 83.1198 62.8066 83.1198C62.2932 83.1198 61.9132 83.2108 61.6666 83.3927C61.424 83.5706 61.2441 83.888 61.1268 84.3448L60.0595 84.1993C60.1565 83.7424 60.3162 83.3745 60.5386 83.0956C60.761 82.8126 61.0824 82.5963 61.5028 82.4467C61.9233 82.293 62.4104 82.2162 62.9643 82.2162C63.5141 82.2162 63.9609 82.2809 64.3045 82.4103C64.6482 82.5397 64.9008 82.7034 65.0626 82.9015C65.2243 83.0956 65.3375 83.3422 65.4022 83.6413C65.4385 83.8273 65.4567 84.1629 65.4567 84.648V86.1034C65.4567 87.1182 65.479 87.761 65.5234 88.0319C65.572 88.2987 65.665 88.5554 65.8024 88.8021H64.6623C64.5491 88.5757 64.4763 88.3109 64.444 88.0076ZM64.353 85.5698C63.9568 85.7315 63.3625 85.869 62.5701 85.9822C62.1214 86.0468 61.804 86.1196 61.618 86.2005C61.4321 86.2813 61.2885 86.4006 61.1875 86.5583C61.0864 86.7119 61.0359 86.8837 61.0359 87.0737C61.0359 87.3648 61.145 87.6074 61.3633 87.8014C61.5857 87.9955 61.9091 88.0925 62.3336 88.0925C62.7541 88.0925 63.1281 88.0016 63.4555 87.8196C63.783 87.6337 64.0235 87.381 64.1772 87.0616C64.2944 86.815 64.353 86.4511 64.353 85.97V85.5698Z" fill="#B43F62"/>
<path d="M67.1305 88.8021V79.9118H68.2221V88.8021H67.1305Z" fill="#B43F62"/>
<path d="M69.9261 81.1671V79.9118H71.0177V81.1671H69.9261ZM69.9261 88.8021V82.3618H71.0177V88.8021H69.9261Z" fill="#B43F62"/>
<path d="M75.0687 87.8257L75.2263 88.7899C74.9191 88.8546 74.6442 88.887 74.4016 88.887C74.0054 88.887 73.6981 88.8243 73.4798 88.699C73.2615 88.5736 73.1079 88.4099 73.0189 88.2078C72.93 88.0016 72.8855 87.571 72.8855 86.9161V83.2108H72.085V82.3618H72.8855V80.7669L73.971 80.1119V82.3618H75.0687V83.2108H73.971V86.9767C73.971 87.288 73.9892 87.4881 74.0256 87.5771C74.066 87.666 74.1287 87.7368 74.2136 87.7893C74.3025 87.8419 74.4279 87.8682 74.5896 87.8682C74.7109 87.8682 74.8706 87.854 75.0687 87.8257Z" fill="#B43F62"/>
<path d="M80.5508 86.7281L81.6787 86.8675C81.5009 87.5265 81.1714 88.038 80.6903 88.4018C80.2092 88.7657 79.5946 88.9476 78.8467 88.9476C77.9047 88.9476 77.1568 88.6585 76.6029 88.0804C76.0531 87.4982 75.7782 86.6836 75.7782 85.6365C75.7782 84.553 76.0571 83.7121 76.6151 83.1137C77.173 82.5154 77.8966 82.2162 78.7861 82.2162C79.6472 82.2162 80.3507 82.5093 80.8965 83.0956C81.4422 83.6818 81.7151 84.5065 81.7151 85.5698C81.7151 85.6345 81.7131 85.7315 81.7091 85.8609H76.9061C76.9466 86.5684 77.1467 87.1101 77.5065 87.4861C77.8663 87.8621 78.3151 88.0501 78.8528 88.0501C79.253 88.0501 79.5946 87.945 79.8776 87.7347C80.1606 87.5245 80.385 87.189 80.5508 86.7281ZM76.9668 84.9634H80.5629C80.5144 84.4216 80.3769 84.0153 80.1505 83.7444C79.8029 83.324 79.3521 83.1137 78.7982 83.1137C78.2969 83.1137 77.8744 83.2815 77.5308 83.6171C77.1912 83.9526 77.0032 84.4014 76.9668 84.9634ZM78.1433 81.5613L78.9498 79.8633H80.381L79.0468 81.5613H78.1433Z" fill="#B43F62"/>
<path d="M90.7146 88.0076C90.3103 88.3513 89.9201 88.5939 89.5441 88.7354C89.1722 88.8769 88.772 88.9476 88.3434 88.9476C87.6359 88.9476 87.0921 88.7758 86.7121 88.4321C86.3321 88.0845 86.1421 87.6418 86.1421 87.1041C86.1421 86.7887 86.2128 86.5017 86.3543 86.2429C86.4999 85.9801 86.6879 85.7699 86.9183 85.6122C87.1528 85.4546 87.4156 85.3353 87.7067 85.2544C87.9209 85.1978 88.2444 85.1433 88.6769 85.0907C89.5583 84.9856 90.2072 84.8603 90.6236 84.7147C90.6276 84.5651 90.6297 84.4701 90.6297 84.4297C90.6297 83.985 90.5266 83.6717 90.3204 83.4897C90.0414 83.2431 89.627 83.1198 89.0772 83.1198C88.5637 83.1198 88.1837 83.2108 87.9371 83.3927C87.6945 83.5706 87.5146 83.888 87.3974 84.3448L86.3301 84.1993C86.4271 83.7424 86.5868 83.3745 86.8091 83.0956C87.0315 82.8126 87.3529 82.5963 87.7734 82.4467C88.1938 82.293 88.681 82.2162 89.2349 82.2162C89.7847 82.2162 90.2314 82.2809 90.5751 82.4103C90.9187 82.5397 91.1714 82.7034 91.3331 82.9015C91.4948 83.0956 91.608 83.3422 91.6727 83.6413C91.7091 83.8273 91.7273 84.1629 91.7273 84.648V86.1034C91.7273 87.1182 91.7495 87.761 91.794 88.0319C91.8425 88.2987 91.9355 88.5554 92.073 88.8021H90.9329C90.8197 88.5757 90.7469 88.3109 90.7146 88.0076ZM90.6236 85.5698C90.2274 85.7315 89.6331 85.869 88.8407 85.9822C88.3919 86.0468 88.0746 86.1196 87.8886 86.2005C87.7026 86.2813 87.5591 86.4006 87.458 86.5583C87.3569 86.7119 87.3064 86.8837 87.3064 87.0737C87.3064 87.3648 87.4156 87.6074 87.6339 87.8014C87.8562 87.9955 88.1797 88.0925 88.6042 88.0925C89.0246 88.0925 89.3986 88.0016 89.7261 87.8196C90.0535 87.6337 90.2941 87.381 90.4477 87.0616C90.565 86.815 90.6236 86.4511 90.6236 85.97V85.5698Z" fill="#B43F62"/>
<path d="M97.646 88.8021V87.856C97.1447 88.5837 96.4635 88.9476 95.6024 88.9476C95.2223 88.9476 94.8666 88.8748 94.5351 88.7293C94.2076 88.5837 93.963 88.4018 93.8013 88.1835C93.6436 87.9611 93.5324 87.6903 93.4677 87.3709C93.4233 87.1566 93.401 86.817 93.401 86.3521V82.3618H94.4926V85.9336C94.4926 86.5037 94.5148 86.8878 94.5593 87.0859C94.628 87.3729 94.7736 87.5993 94.9959 87.7651C95.2183 87.9268 95.4932 88.0076 95.8207 88.0076C96.1482 88.0076 96.4554 87.9248 96.7425 87.759C97.0295 87.5892 97.2317 87.3608 97.3489 87.0737C97.4702 86.7826 97.5308 86.3622 97.5308 85.8124V82.3618H98.6224V88.8021H97.646Z" fill="#B43F62"/>
<path d="M100.138 89.3357L101.2 89.4934C101.244 89.8209 101.368 90.0594 101.57 90.209C101.841 90.4111 102.21 90.5122 102.679 90.5122C103.185 90.5122 103.575 90.4111 103.85 90.209C104.125 90.0068 104.311 89.7238 104.408 89.36C104.464 89.1376 104.491 88.6707 104.487 87.9591C104.01 88.5211 103.415 88.8021 102.704 88.8021C101.818 88.8021 101.133 88.4827 100.648 87.8439C100.163 87.2051 99.9202 86.439 99.9202 85.5455C99.9202 84.931 100.031 84.365 100.254 83.8475C100.476 83.326 100.797 82.9237 101.218 82.6407C101.642 82.3577 102.14 82.2162 102.71 82.2162C103.47 82.2162 104.096 82.5235 104.59 83.138V82.3618H105.596V87.9288C105.596 88.9314 105.493 89.641 105.287 90.0574C105.085 90.4778 104.761 90.8093 104.317 91.0519C103.876 91.2945 103.332 91.4158 102.685 91.4158C101.917 91.4158 101.297 91.2419 100.824 90.8942C100.351 90.5506 100.122 90.0311 100.138 89.3357ZM101.042 85.4667C101.042 86.3117 101.21 86.9282 101.545 87.3163C101.881 87.7044 102.301 87.8985 102.807 87.8985C103.308 87.8985 103.729 87.7064 104.068 87.3224C104.408 86.9343 104.578 86.3278 104.578 85.5031C104.578 84.7147 104.402 84.1204 104.05 83.7202C103.702 83.3199 103.282 83.1198 102.789 83.1198C102.303 83.1198 101.891 83.3179 101.551 83.7141C101.212 84.1063 101.042 84.6905 101.042 85.4667Z" fill="#B43F62"/>
<path d="M107.252 88.8021V82.3618H108.228V83.2654C108.43 82.95 108.699 82.6973 109.035 82.5073C109.37 82.3133 109.752 82.2162 110.181 82.2162C110.658 82.2162 111.048 82.3153 111.351 82.5134C111.659 82.7115 111.875 82.9884 112 83.3442C112.51 82.5922 113.173 82.2162 113.989 82.2162C114.628 82.2162 115.119 82.3941 115.463 82.7499C115.807 83.1016 115.978 83.6454 115.978 84.3812V88.8021H114.893V84.745C114.893 84.3084 114.857 83.9951 114.784 83.8051C114.715 83.611 114.588 83.4554 114.402 83.3381C114.216 83.2209 113.997 83.1623 113.747 83.1623C113.294 83.1623 112.918 83.3139 112.619 83.6171C112.32 83.9163 112.17 84.3974 112.17 85.0604V88.8021H111.078V84.6177C111.078 84.1325 110.99 83.7687 110.812 83.5261C110.634 83.2835 110.343 83.1623 109.938 83.1623C109.631 83.1623 109.346 83.2431 109.083 83.4048C108.825 83.5665 108.637 83.8031 108.519 84.1144C108.402 84.4257 108.343 84.8744 108.343 85.4606V88.8021H107.252Z" fill="#B43F62"/>
<path d="M122.006 86.7281L123.134 86.8675C122.956 87.5265 122.627 88.038 122.146 88.4018C121.665 88.7657 121.05 88.9476 120.302 88.9476C119.36 88.9476 118.612 88.6585 118.058 88.0804C117.509 87.4982 117.234 86.6836 117.234 85.6365C117.234 84.553 117.513 83.7121 118.071 83.1137C118.629 82.5154 119.352 82.2162 120.242 82.2162C121.103 82.2162 121.806 82.5093 122.352 83.0956C122.898 83.6818 123.171 84.5065 123.171 85.5698C123.171 85.6345 123.169 85.7315 123.165 85.8609H118.362C118.402 86.5684 118.602 87.1101 118.962 87.4861C119.322 87.8621 119.771 88.0501 120.308 88.0501C120.709 88.0501 121.05 87.945 121.333 87.7347C121.616 87.5245 121.841 87.189 122.006 86.7281ZM118.422 84.9634H122.018C121.97 84.4216 121.832 84.0153 121.606 83.7444C121.258 83.324 120.808 83.1137 120.254 83.1137C119.752 83.1137 119.33 83.2815 118.986 83.6171C118.647 83.9526 118.459 84.4014 118.422 84.9634Z" fill="#B43F62"/>
<path d="M124.511 88.8021V82.3618H125.493V83.2775C125.966 82.57 126.65 82.2162 127.543 82.2162C127.931 82.2162 128.287 82.287 128.61 82.4285C128.938 82.5659 129.182 82.7479 129.344 82.9743C129.506 83.2007 129.619 83.4695 129.684 83.7808C129.724 83.983 129.744 84.3367 129.744 84.8421V88.8021H128.653V84.8845C128.653 84.4398 128.61 84.1083 128.525 83.89C128.441 83.6676 128.289 83.4918 128.071 83.3624C127.856 83.229 127.604 83.1623 127.313 83.1623C126.848 83.1623 126.445 83.3098 126.106 83.605C125.77 83.9001 125.602 84.46 125.602 85.2848V88.8021H124.511Z" fill="#B43F62"/>
<path d="M133.807 87.8257L133.965 88.7899C133.658 88.8546 133.383 88.887 133.14 88.887C132.744 88.887 132.437 88.8243 132.219 88.699C132 88.5736 131.847 88.4099 131.758 88.2078C131.669 88.0016 131.624 87.571 131.624 86.9161V83.2108H130.824V82.3618H131.624V80.7669L132.71 80.1119V82.3618H133.807V83.2108H132.71V86.9767C132.71 87.288 132.728 87.4881 132.764 87.5771C132.805 87.666 132.868 87.7368 132.952 87.7893C133.041 87.8419 133.167 87.8682 133.328 87.8682C133.45 87.8682 133.609 87.854 133.807 87.8257Z" fill="#B43F62"/>
<path d="M139.29 86.7281L140.418 86.8675C140.24 87.5265 139.91 88.038 139.429 88.4018C138.948 88.7657 138.333 88.9476 137.586 88.9476C136.644 88.9476 135.896 88.6585 135.342 88.0804C134.792 87.4982 134.517 86.6836 134.517 85.6365C134.517 84.553 134.796 83.7121 135.354 83.1137C135.912 82.5154 136.635 82.2162 137.525 82.2162C138.386 82.2162 139.089 82.5093 139.635 83.0956C140.181 83.6818 140.454 84.5065 140.454 85.5698C140.454 85.6345 140.452 85.7315 140.448 85.8609H135.645C135.685 86.5684 135.885 87.1101 136.245 87.4861C136.605 87.8621 137.054 88.0501 137.592 88.0501C137.992 88.0501 138.333 87.945 138.616 87.7347C138.899 87.5245 139.124 87.189 139.29 86.7281ZM135.706 84.9634H139.302C139.253 84.4216 139.116 84.0153 138.889 83.7444C138.542 83.324 138.091 83.1137 137.537 83.1137C137.036 83.1137 136.613 83.2815 136.27 83.6171C135.93 83.9526 135.742 84.4014 135.706 84.9634ZM136.882 81.5613L137.689 79.8633H139.12L137.786 81.5613H136.882Z" fill="#B43F62"/>
<path d="M146.203 86.7281L147.331 86.8675C147.153 87.5265 146.823 88.038 146.342 88.4018C145.861 88.7657 145.247 88.9476 144.499 88.9476C143.557 88.9476 142.809 88.6585 142.255 88.0804C141.705 87.4982 141.43 86.6836 141.43 85.6365C141.43 84.553 141.709 83.7121 142.267 83.1137C142.825 82.5154 143.549 82.2162 144.438 82.2162C145.299 82.2162 146.003 82.5093 146.549 83.0956C147.094 83.6818 147.367 84.5065 147.367 85.5698C147.367 85.6345 147.365 85.7315 147.361 85.8609H142.558C142.599 86.5684 142.799 87.1101 143.159 87.4861C143.518 87.8621 143.967 88.0501 144.505 88.0501C144.905 88.0501 145.247 87.945 145.53 87.7347C145.813 87.5245 146.037 87.189 146.203 86.7281ZM142.619 84.9634H146.215C146.167 84.4216 146.029 84.0153 145.803 83.7444C145.455 83.324 145.004 83.1137 144.45 83.1137C143.949 83.1137 143.527 83.2815 143.183 83.6171C142.843 83.9526 142.655 84.4014 142.619 84.9634Z" fill="#B43F62"/>
<path d="M156.367 88.0076C155.962 88.3513 155.572 88.5939 155.196 88.7354C154.824 88.8769 154.424 88.9476 153.996 88.9476C153.288 88.9476 152.744 88.7758 152.364 88.4321C151.984 88.0845 151.794 87.6418 151.794 87.1041C151.794 86.7887 151.865 86.5017 152.006 86.2429C152.152 85.9801 152.34 85.7699 152.57 85.6122C152.805 85.4546 153.068 85.3353 153.359 85.2544C153.573 85.1978 153.896 85.1433 154.329 85.0907C155.21 84.9856 155.859 84.8603 156.276 84.7147C156.28 84.5651 156.282 84.4701 156.282 84.4297C156.282 83.985 156.179 83.6717 155.972 83.4897C155.694 83.2431 155.279 83.1198 154.729 83.1198C154.216 83.1198 153.836 83.2108 153.589 83.3927C153.347 83.5706 153.167 83.888 153.049 84.3448L151.982 84.1993C152.079 83.7424 152.239 83.3745 152.461 83.0956C152.684 82.8126 153.005 82.5963 153.425 82.4467C153.846 82.293 154.333 82.2162 154.887 82.2162C155.437 82.2162 155.884 82.2809 156.227 82.4103C156.571 82.5397 156.824 82.7034 156.985 82.9015C157.147 83.0956 157.26 83.3422 157.325 83.6413C157.361 83.8273 157.379 84.1629 157.379 84.648V86.1034C157.379 87.1182 157.402 87.761 157.446 88.0319C157.495 88.2987 157.588 88.5554 157.725 88.8021H156.585C156.472 88.5757 156.399 88.3109 156.367 88.0076ZM156.276 85.5698C155.879 85.7315 155.285 85.869 154.493 85.9822C154.044 86.0468 153.727 86.1196 153.541 86.2005C153.355 86.2813 153.211 86.4006 153.11 86.5583C153.009 86.7119 152.959 86.8837 152.959 87.0737C152.959 87.3648 153.068 87.6074 153.286 87.8014C153.508 87.9955 153.832 88.0925 154.256 88.0925C154.677 88.0925 155.051 88.0016 155.378 87.8196C155.706 87.6337 155.946 87.381 156.1 87.0616C156.217 86.815 156.276 86.4511 156.276 85.97V85.5698Z" fill="#B43F62"/>
<path d="M163.298 88.8021V87.856C162.797 88.5837 162.116 88.9476 161.254 88.9476C160.874 88.9476 160.519 88.8748 160.187 88.7293C159.86 88.5837 159.615 88.4018 159.453 88.1835C159.296 87.9611 159.185 87.6903 159.12 87.3709C159.075 87.1566 159.053 86.817 159.053 86.3521V82.3618H160.145V85.9336C160.145 86.5037 160.167 86.8878 160.211 87.0859C160.28 87.3729 160.426 87.5993 160.648 87.7651C160.87 87.9268 161.145 88.0076 161.473 88.0076C161.8 88.0076 162.108 87.9248 162.395 87.759C162.682 87.5892 162.884 87.3608 163.001 87.0737C163.122 86.7826 163.183 86.3622 163.183 85.8124V82.3618H164.275V88.8021H163.298Z" fill="#B43F62"/>
<path d="M169.011 86.8797L170.09 86.7099C170.151 87.1425 170.319 87.474 170.594 87.7044C170.872 87.9349 171.261 88.0501 171.758 88.0501C172.259 88.0501 172.631 87.949 172.874 87.7469C173.116 87.5407 173.238 87.3001 173.238 87.0252C173.238 86.7786 173.13 86.5845 172.916 86.443C172.767 86.346 172.395 86.2227 171.8 86.0731C171 85.871 170.444 85.6971 170.133 85.5516C169.825 85.402 169.591 85.1978 169.429 84.9391C169.271 84.6763 169.193 84.3872 169.193 84.0719C169.193 83.7849 169.257 83.5201 169.387 83.2775C169.52 83.0309 169.7 82.8267 169.926 82.665C170.096 82.5397 170.327 82.4345 170.618 82.3496C170.913 82.2607 171.228 82.2162 171.564 82.2162C172.069 82.2162 172.512 82.289 172.892 82.4345C173.276 82.5801 173.559 82.7782 173.741 83.0288C173.923 83.2755 174.048 83.607 174.117 84.0234L173.05 84.1689C173.001 83.8374 172.86 83.5787 172.625 83.3927C172.395 83.2067 172.067 83.1137 171.643 83.1137C171.141 83.1137 170.784 83.1966 170.569 83.3624C170.355 83.5281 170.248 83.7222 170.248 83.9446C170.248 84.0861 170.292 84.2134 170.381 84.3266C170.47 84.4438 170.61 84.5409 170.8 84.6177C170.909 84.6581 171.23 84.7511 171.764 84.8967C172.536 85.1028 173.074 85.2726 173.377 85.4061C173.684 85.5354 173.925 85.7254 174.099 85.9761C174.273 86.2268 174.359 86.5381 174.359 86.91C174.359 87.2739 174.252 87.6175 174.038 87.9409C173.828 88.2603 173.523 88.509 173.122 88.6868C172.722 88.8607 172.269 88.9476 171.764 88.9476C170.927 88.9476 170.288 88.7738 169.848 88.4261C169.411 88.0784 169.132 87.5629 169.011 86.8797Z" fill="#B43F62"/>
<path d="M180.066 86.7281L181.194 86.8675C181.016 87.5265 180.687 88.038 180.205 88.4018C179.724 88.7657 179.11 88.9476 178.362 88.9476C177.42 88.9476 176.672 88.6585 176.118 88.0804C175.568 87.4982 175.293 86.6836 175.293 85.6365C175.293 84.553 175.572 83.7121 176.13 83.1137C176.688 82.5154 177.412 82.2162 178.301 82.2162C179.162 82.2162 179.866 82.5093 180.412 83.0956C180.957 83.6818 181.23 84.5065 181.23 85.5698C181.23 85.6345 181.228 85.7315 181.224 85.8609H176.421C176.462 86.5684 176.662 87.1101 177.022 87.4861C177.381 87.8621 177.83 88.0501 178.368 88.0501C178.768 88.0501 179.11 87.945 179.393 87.7347C179.676 87.5245 179.9 87.189 180.066 86.7281ZM176.482 84.9634H180.078C180.03 84.4216 179.892 84.0153 179.666 83.7444C179.318 83.324 178.867 83.1137 178.313 83.1137C177.812 83.1137 177.39 83.2815 177.046 83.6171C176.706 83.9526 176.518 84.4014 176.482 84.9634Z" fill="#B43F62"/>
<path d="M182.558 88.8021V82.3618H183.541V83.3381C183.791 82.8813 184.022 82.5801 184.232 82.4345C184.446 82.289 184.681 82.2162 184.936 82.2162C185.303 82.2162 185.677 82.3335 186.057 82.568L185.681 83.5807C185.415 83.423 185.148 83.3442 184.881 83.3442C184.642 83.3442 184.428 83.417 184.238 83.5625C184.048 83.704 183.913 83.9021 183.832 84.1568C183.711 84.5449 183.65 84.9694 183.65 85.4303V88.8021H182.558Z" fill="#B43F62"/>
<path d="M188.495 88.8021L186.045 82.3618H187.198L188.58 86.2187C188.73 86.6351 188.867 87.0677 188.993 87.5164C189.09 87.1768 189.225 86.7685 189.399 86.2914L190.83 82.3618H191.952L189.514 88.8021H188.495Z" fill="#B43F62"/>
<path d="M192.922 81.1671V79.9118H194.014V81.1671H192.922ZM192.922 88.8021V82.3618H194.014V88.8021H192.922Z" fill="#B43F62"/>
<path d="M199.884 86.443L200.957 86.5825C200.84 87.3224 200.539 87.9025 200.054 88.323C199.573 88.7394 198.98 88.9476 198.277 88.9476C197.396 88.9476 196.686 88.6606 196.148 88.0865C195.615 87.5083 195.348 86.6816 195.348 85.6062C195.348 84.9108 195.463 84.3023 195.694 83.7808C195.924 83.2593 196.274 82.8692 196.743 82.6104C197.216 82.3476 197.729 82.2162 198.283 82.2162C198.983 82.2162 199.555 82.3941 199.999 82.7499C200.444 83.1016 200.729 83.6029 200.854 84.2538L199.793 84.4176C199.692 83.985 199.512 83.6595 199.253 83.4412C198.999 83.2229 198.689 83.1137 198.326 83.1137C197.776 83.1137 197.329 83.3118 196.985 83.708C196.642 84.1002 196.47 84.7228 196.47 85.5759C196.47 86.441 196.636 87.0697 196.967 87.4618C197.299 87.854 197.731 88.0501 198.265 88.0501C198.693 88.0501 199.051 87.9187 199.338 87.6559C199.625 87.3931 199.807 86.9888 199.884 86.443Z" fill="#B43F62"/>
<path d="M206.3 86.7281L207.428 86.8675C207.25 87.5265 206.921 88.038 206.44 88.4018C205.958 88.7657 205.344 88.9476 204.596 88.9476C203.654 88.9476 202.906 88.6585 202.352 88.0804C201.802 87.4982 201.527 86.6836 201.527 85.6365C201.527 84.553 201.806 83.7121 202.364 83.1137C202.922 82.5154 203.646 82.2162 204.535 82.2162C205.397 82.2162 206.1 82.5093 206.646 83.0956C207.192 83.6818 207.464 84.5065 207.464 85.5698C207.464 85.6345 207.462 85.7315 207.458 85.8609H202.655C202.696 86.5684 202.896 87.1101 203.256 87.4861C203.616 87.8621 204.064 88.0501 204.602 88.0501C205.002 88.0501 205.344 87.945 205.627 87.7347C205.91 87.5245 206.134 87.189 206.3 86.7281ZM202.716 84.9634H206.312C206.264 84.4216 206.126 84.0153 205.9 83.7444C205.552 83.324 205.101 83.1137 204.548 83.1137C204.046 83.1137 203.624 83.2815 203.28 83.6171C202.94 83.9526 202.752 84.4014 202.716 84.9634Z" fill="#B43F62"/>
<path d="M216.44 88.8021V87.9894C216.031 88.6282 215.431 88.9476 214.639 88.9476C214.125 88.9476 213.652 88.8061 213.219 88.5231C212.791 88.2401 212.457 87.8459 212.219 87.3406C211.984 86.8312 211.867 86.247 211.867 85.588C211.867 84.9452 211.974 84.363 212.189 83.8415C212.403 83.3159 212.724 82.9136 213.153 82.6347C213.581 82.3557 214.06 82.2162 214.59 82.2162C214.978 82.2162 215.324 82.2991 215.627 82.4649C215.93 82.6266 216.177 82.8388 216.367 83.1016V79.9118H217.452V88.8021H216.44ZM212.989 85.588C212.989 86.4127 213.163 87.0293 213.511 87.4376C213.858 87.8459 214.269 88.0501 214.742 88.0501C215.219 88.0501 215.623 87.856 215.954 87.4679C216.29 87.0758 216.458 86.4794 216.458 85.6789C216.458 84.7976 216.288 84.1507 215.948 83.7384C215.609 83.326 215.19 83.1198 214.693 83.1198C214.208 83.1198 213.802 83.3179 213.474 83.7141C213.151 84.1103 212.989 84.7349 212.989 85.588Z" fill="#B43F62"/>
<path d="M223.583 86.7281L224.711 86.8675C224.533 87.5265 224.204 88.038 223.723 88.4018C223.242 88.7657 222.627 88.9476 221.879 88.9476C220.937 88.9476 220.189 88.6585 219.635 88.0804C219.086 87.4982 218.811 86.6836 218.811 85.6365C218.811 84.553 219.09 83.7121 219.648 83.1137C220.206 82.5154 220.929 82.2162 221.819 82.2162C222.68 82.2162 223.383 82.5093 223.929 83.0956C224.475 83.6818 224.748 84.5065 224.748 85.5698C224.748 85.6345 224.746 85.7315 224.742 85.8609H219.939C219.979 86.5684 220.179 87.1101 220.539 87.4861C220.899 87.8621 221.348 88.0501 221.885 88.0501C222.286 88.0501 222.627 87.945 222.91 87.7347C223.193 87.5245 223.418 87.189 223.583 86.7281ZM219.999 84.9634H223.595C223.547 84.4216 223.41 84.0153 223.183 83.7444C222.835 83.324 222.385 83.1137 221.831 83.1137C221.329 83.1137 220.907 83.2815 220.563 83.6171C220.224 83.9526 220.036 84.4014 219.999 84.9634Z" fill="#B43F62"/>
<path d="M225.651 86.8797L226.731 86.7099C226.791 87.1425 226.959 87.474 227.234 87.7044C227.513 87.9349 227.901 88.0501 228.398 88.0501C228.9 88.0501 229.272 87.949 229.514 87.7469C229.757 87.5407 229.878 87.3001 229.878 87.0252C229.878 86.7786 229.771 86.5845 229.557 86.443C229.407 86.346 229.035 86.2227 228.441 86.0731C227.64 85.871 227.084 85.6971 226.773 85.5516C226.466 85.402 226.231 85.1978 226.07 84.9391C225.912 84.6763 225.833 84.3872 225.833 84.0719C225.833 83.7849 225.898 83.5201 226.027 83.2775C226.161 83.0309 226.341 82.8267 226.567 82.665C226.737 82.5397 226.967 82.4345 227.258 82.3496C227.553 82.2607 227.869 82.2162 228.204 82.2162C228.71 82.2162 229.152 82.289 229.532 82.4345C229.917 82.5801 230.2 82.7782 230.381 83.0288C230.563 83.2755 230.689 83.607 230.757 84.0234L229.69 84.1689C229.642 83.8374 229.5 83.5787 229.266 83.3927C229.035 83.2067 228.708 83.1137 228.283 83.1137C227.782 83.1137 227.424 83.1966 227.21 83.3624C226.996 83.5281 226.888 83.7222 226.888 83.9446C226.888 84.0861 226.933 84.2134 227.022 84.3266C227.111 84.4438 227.25 84.5409 227.44 84.6177C227.549 84.6581 227.871 84.7511 228.404 84.8967C229.177 85.1028 229.714 85.2726 230.018 85.4061C230.325 85.5354 230.565 85.7254 230.739 85.9761C230.913 86.2268 231 86.5381 231 86.91C231 87.2739 230.893 87.6175 230.679 87.9409C230.468 88.2603 230.163 88.509 229.763 88.6868C229.363 88.8607 228.91 88.9476 228.404 88.9476C227.568 88.9476 226.929 88.7738 226.488 88.4261C226.052 88.0784 225.773 87.5629 225.651 86.8797Z" fill="#B43F62"/>
<path d="M70.6175 96.4529V95.1976H71.709V96.4529H70.6175ZM70.6175 104.088V97.6475H71.709V104.088H70.6175Z" fill="#B43F62"/>
<path d="M73.3767 104.088V97.6475H74.3591V98.5632C74.8321 97.8557 75.5154 97.502 76.4089 97.502C76.797 97.502 77.1528 97.5727 77.4762 97.7142C77.8037 97.8517 78.0483 98.0336 78.21 98.26C78.3717 98.4864 78.4849 98.7553 78.5496 99.0666C78.59 99.2687 78.6102 99.6225 78.6102 100.128V104.088H77.5186V100.17C77.5186 99.7256 77.4762 99.3941 77.3913 99.1757C77.3064 98.9534 77.1548 98.7775 76.9365 98.6481C76.7222 98.5147 76.4695 98.448 76.1784 98.448C75.7135 98.448 75.3112 98.5956 74.9716 98.8907C74.6361 99.1859 74.4683 99.7458 74.4683 100.571V104.088H73.3767Z" fill="#B43F62"/>
<path d="M79.8534 102.165L80.9328 101.996C80.9935 102.428 81.1613 102.76 81.4362 102.99C81.7151 103.221 82.1032 103.336 82.6005 103.336C83.1018 103.336 83.4738 103.235 83.7164 103.033C83.9589 102.826 84.0802 102.586 84.0802 102.311C84.0802 102.064 83.9731 101.87 83.7588 101.729C83.6092 101.632 83.2373 101.508 82.643 101.359C81.8425 101.157 81.2866 100.983 80.9753 100.837C80.668 100.688 80.4335 100.484 80.2718 100.225C80.1142 99.9621 80.0353 99.673 80.0353 99.3577C80.0353 99.0706 80.1 98.8058 80.2294 98.5632C80.3628 98.3166 80.5427 98.1125 80.7691 97.9508C80.9389 97.8254 81.1693 97.7203 81.4604 97.6354C81.7556 97.5465 82.0709 97.502 82.4065 97.502C82.9118 97.502 83.3545 97.5748 83.7345 97.7203C84.1186 97.8659 84.4016 98.064 84.5835 98.3146C84.7655 98.5612 84.8908 98.8927 84.9595 99.3092L83.8922 99.4547C83.8437 99.1232 83.7022 98.8644 83.4677 98.6785C83.2373 98.4925 82.9098 98.3995 82.4853 98.3995C81.984 98.3995 81.6262 98.4824 81.4119 98.6481C81.1976 98.8139 81.0905 99.008 81.0905 99.2303C81.0905 99.3718 81.135 99.4992 81.2239 99.6124C81.3129 99.7296 81.4523 99.8266 81.6424 99.9035C81.7515 99.9439 82.0729 100.037 82.6066 100.182C83.3788 100.389 83.9165 100.558 84.2197 100.692C84.5269 100.821 84.7675 101.011 84.9413 101.262C85.1152 101.513 85.2021 101.824 85.2021 102.196C85.2021 102.56 85.095 102.903 84.8807 103.227C84.6705 103.546 84.3652 103.795 83.965 103.973C83.5647 104.146 83.1119 104.233 82.6066 104.233C81.7697 104.233 81.1309 104.06 80.6903 103.712C80.2536 103.364 79.9747 102.849 79.8534 102.165Z" fill="#B43F62"/>
<path d="M88.8831 103.111L89.0408 104.076C88.7335 104.14 88.4586 104.173 88.2161 104.173C87.8199 104.173 87.5126 104.11 87.2943 103.985C87.076 103.859 86.9223 103.696 86.8334 103.494C86.7445 103.287 86.7 102.857 86.7 102.202V98.4965H85.8995V97.6475H86.7V96.0526L87.7855 95.3977V97.6475H88.8831V98.4965H87.7855V102.262C87.7855 102.574 87.8037 102.774 87.8401 102.863C87.8805 102.952 87.9432 103.023 88.0281 103.075C88.117 103.128 88.2423 103.154 88.4041 103.154C88.5253 103.154 88.685 103.14 88.8831 103.111Z" fill="#B43F62"/>
<path d="M94.1591 103.293C93.7548 103.637 93.3647 103.88 92.9887 104.021C92.6167 104.163 92.2165 104.233 91.7879 104.233C91.0804 104.233 90.5367 104.062 90.1566 103.718C89.7766 103.37 89.5866 102.928 89.5866 102.39C89.5866 102.074 89.6573 101.787 89.7988 101.529C89.9444 101.266 90.1324 101.056 90.3628 100.898C90.5973 100.74 90.8601 100.621 91.1512 100.54C91.3655 100.484 91.6889 100.429 92.1215 100.376C93.0028 100.271 93.6517 100.146 94.0681 100C94.0722 99.8509 94.0742 99.7559 94.0742 99.7155C94.0742 99.2708 93.9711 98.9574 93.7649 98.7755C93.4859 98.5289 93.0715 98.4056 92.5217 98.4056C92.0083 98.4056 91.6282 98.4965 91.3816 98.6785C91.1391 98.8564 90.9591 99.1737 90.8419 99.6306L89.7746 99.485C89.8716 99.0282 90.0313 98.6603 90.2537 98.3813C90.476 98.0983 90.7974 97.882 91.2179 97.7324C91.6383 97.5788 92.1255 97.502 92.6794 97.502C93.2292 97.502 93.676 97.5667 94.0196 97.6961C94.3632 97.8254 94.6159 97.9892 94.7776 98.1873C94.9393 98.3813 95.0525 98.6279 95.1172 98.9271C95.1536 99.1131 95.1718 99.4486 95.1718 99.9338V101.389C95.1718 102.404 95.194 103.047 95.2385 103.318C95.287 103.584 95.38 103.841 95.5175 104.088H94.3774C94.2642 103.861 94.1914 103.597 94.1591 103.293ZM94.0681 100.856C93.6719 101.017 93.0776 101.155 92.2852 101.268C91.8364 101.333 91.5191 101.405 91.3331 101.486C91.1471 101.567 91.0036 101.686 90.9025 101.844C90.8015 101.998 90.7509 102.169 90.7509 102.36C90.7509 102.651 90.8601 102.893 91.0784 103.087C91.3008 103.281 91.6242 103.378 92.0487 103.378C92.4692 103.378 92.8431 103.287 93.1706 103.105C93.4981 102.919 93.7386 102.667 93.8922 102.347C94.0095 102.101 94.0681 101.737 94.0681 101.256V100.856Z" fill="#B43F62"/>
<path d="M96.8456 104.088V95.1976H97.9371V104.088H96.8456Z" fill="#B43F62"/>
<path d="M99.6109 104.088V95.1976H100.702V104.088H99.6109Z" fill="#B43F62"/>
<path d="M106.603 103.293C106.199 103.637 105.809 103.88 105.433 104.021C105.061 104.163 104.66 104.233 104.232 104.233C103.524 104.233 102.981 104.062 102.601 103.718C102.221 103.37 102.031 102.928 102.031 102.39C102.031 102.074 102.101 101.787 102.243 101.529C102.388 101.266 102.576 101.056 102.807 100.898C103.041 100.74 103.304 100.621 103.595 100.54C103.809 100.484 104.133 100.429 104.565 100.376C105.447 100.271 106.096 100.146 106.512 100C106.516 99.8509 106.518 99.7559 106.518 99.7155C106.518 99.2708 106.415 98.9574 106.209 98.7755C105.93 98.5289 105.515 98.4056 104.966 98.4056C104.452 98.4056 104.072 98.4965 103.826 98.6785C103.583 98.8564 103.403 99.1737 103.286 99.6306L102.219 99.485C102.316 99.0282 102.475 98.6603 102.698 98.3813C102.92 98.0983 103.241 97.882 103.662 97.7324C104.082 97.5788 104.569 97.502 105.123 97.502C105.673 97.502 106.12 97.5667 106.464 97.6961C106.807 97.8254 107.06 97.9892 107.222 98.1873C107.383 98.3813 107.496 98.6279 107.561 98.9271C107.598 99.1131 107.616 99.4486 107.616 99.9338V101.389C107.616 102.404 107.638 103.047 107.682 103.318C107.731 103.584 107.824 103.841 107.961 104.088H106.821C106.708 103.861 106.635 103.597 106.603 103.293ZM106.512 100.856C106.116 101.017 105.522 101.155 104.729 101.268C104.28 101.333 103.963 101.405 103.777 101.486C103.591 101.567 103.448 101.686 103.346 101.844C103.245 101.998 103.195 102.169 103.195 102.36C103.195 102.651 103.304 102.893 103.522 103.087C103.745 103.281 104.068 103.378 104.493 103.378C104.913 103.378 105.287 103.287 105.615 103.105C105.942 102.919 106.183 102.667 106.336 102.347C106.453 102.101 106.512 101.737 106.512 101.256V100.856Z" fill="#B43F62"/>
<path d="M111.697 103.111L111.855 104.076C111.547 104.14 111.273 104.173 111.03 104.173C110.634 104.173 110.326 104.11 110.108 103.985C109.89 103.859 109.736 103.696 109.647 103.494C109.558 103.287 109.514 102.857 109.514 102.202V98.4965H108.713V97.6475H109.514V96.0526L110.599 95.3977V97.6475H111.697V98.4965H110.599V102.262C110.599 102.574 110.618 102.774 110.654 102.863C110.694 102.952 110.757 103.023 110.842 103.075C110.931 103.128 111.056 103.154 111.218 103.154C111.339 103.154 111.499 103.14 111.697 103.111Z" fill="#B43F62"/>
<path d="M117.179 102.014L118.307 102.153C118.129 102.812 117.8 103.324 117.319 103.688C116.838 104.051 116.223 104.233 115.475 104.233C114.533 104.233 113.785 103.944 113.231 103.366C112.681 102.784 112.407 101.969 112.407 100.922C112.407 99.8388 112.686 98.9979 113.243 98.3995C113.801 97.8012 114.525 97.502 115.414 97.502C116.276 97.502 116.979 97.7951 117.525 98.3813C118.071 98.9675 118.343 99.7923 118.343 100.856C118.343 100.92 118.341 101.017 118.337 101.147H113.535C113.575 101.854 113.775 102.396 114.135 102.772C114.495 103.148 114.943 103.336 115.481 103.336C115.881 103.336 116.223 103.231 116.506 103.021C116.789 102.81 117.013 102.475 117.179 102.014ZM113.595 100.249H117.191C117.143 99.7074 117.005 99.3011 116.779 99.0302C116.431 98.6097 115.98 98.3995 115.427 98.3995C114.925 98.3995 114.503 98.5673 114.159 98.9029C113.82 99.2384 113.632 99.6872 113.595 100.249Z" fill="#B43F62"/>
<path d="M123.904 104.088V103.142C123.403 103.87 122.722 104.233 121.861 104.233C121.481 104.233 121.125 104.161 120.793 104.015C120.466 103.87 120.221 103.688 120.06 103.469C119.902 103.247 119.791 102.976 119.726 102.657C119.682 102.442 119.659 102.103 119.659 101.638V97.6475H120.751V101.219C120.751 101.789 120.773 102.174 120.818 102.372C120.886 102.659 121.032 102.885 121.254 103.051C121.477 103.213 121.752 103.293 122.079 103.293C122.407 103.293 122.714 103.211 123.001 103.045C123.288 102.875 123.49 102.647 123.607 102.36C123.729 102.068 123.789 101.648 123.789 101.098V97.6475H124.881V104.088H123.904Z" fill="#B43F62"/>
<path d="M126.585 104.088V97.6475H127.567V98.6239C127.818 98.167 128.048 97.8659 128.259 97.7203C128.473 97.5748 128.707 97.502 128.962 97.502C129.33 97.502 129.704 97.6192 130.084 97.8537L129.708 98.8665C129.441 98.7088 129.174 98.63 128.908 98.63C128.669 98.63 128.455 98.7027 128.265 98.8483C128.075 98.9898 127.939 99.1879 127.858 99.4426C127.737 99.8307 127.676 100.255 127.676 100.716V104.088H126.585Z" fill="#B43F62"/>
<path d="M130.296 102.165L131.376 101.996C131.436 102.428 131.604 102.76 131.879 102.99C132.158 103.221 132.546 103.336 133.043 103.336C133.545 103.336 133.917 103.235 134.159 103.033C134.402 102.826 134.523 102.586 134.523 102.311C134.523 102.064 134.416 101.87 134.202 101.729C134.052 101.632 133.68 101.508 133.086 101.359C132.285 101.157 131.729 100.983 131.418 100.837C131.111 100.688 130.876 100.484 130.715 100.225C130.557 99.9621 130.478 99.673 130.478 99.3577C130.478 99.0706 130.543 98.8058 130.672 98.5632C130.806 98.3166 130.986 98.1125 131.212 97.9508C131.382 97.8254 131.612 97.7203 131.903 97.6354C132.198 97.5465 132.514 97.502 132.849 97.502C133.355 97.502 133.797 97.5748 134.177 97.7203C134.561 97.8659 134.844 98.064 135.026 98.3146C135.208 98.5612 135.334 98.8927 135.402 99.3092L134.335 99.4547C134.287 99.1232 134.145 98.8644 133.911 98.6785C133.68 98.4925 133.353 98.3995 132.928 98.3995C132.427 98.3995 132.069 98.4824 131.855 98.6481C131.64 98.8139 131.533 99.008 131.533 99.2303C131.533 99.3718 131.578 99.4992 131.667 99.6124C131.756 99.7296 131.895 99.8266 132.085 99.9035C132.194 99.9439 132.516 100.037 133.049 100.182C133.822 100.389 134.359 100.558 134.663 100.692C134.97 100.821 135.21 101.011 135.384 101.262C135.558 101.513 135.645 101.824 135.645 102.196C135.645 102.56 135.538 102.903 135.324 103.227C135.113 103.546 134.808 103.795 134.408 103.973C134.008 104.146 133.555 104.233 133.049 104.233C132.213 104.233 131.574 104.06 131.133 103.712C130.696 103.364 130.418 102.849 130.296 102.165Z" fill="#B43F62"/>
<path d="M139.963 102.165L141.042 101.996C141.103 102.428 141.271 102.76 141.546 102.99C141.824 103.221 142.213 103.336 142.71 103.336C143.211 103.336 143.583 103.235 143.826 103.033C144.068 102.826 144.19 102.586 144.19 102.311C144.19 102.064 144.082 101.87 143.868 101.729C143.719 101.632 143.347 101.508 142.752 101.359C141.952 101.157 141.396 100.983 141.085 100.837C140.777 100.688 140.543 100.484 140.381 100.225C140.223 99.9621 140.145 99.673 140.145 99.3577C140.145 99.0706 140.209 98.8058 140.339 98.5632C140.472 98.3166 140.652 98.1125 140.878 97.9508C141.048 97.8254 141.279 97.7203 141.57 97.6354C141.865 97.5465 142.18 97.502 142.516 97.502C143.021 97.502 143.464 97.5748 143.844 97.7203C144.228 97.8659 144.511 98.064 144.693 98.3146C144.875 98.5612 145 98.8927 145.069 99.3092L144.002 99.4547C143.953 99.1232 143.812 98.8644 143.577 98.6785C143.347 98.4925 143.019 98.3995 142.595 98.3995C142.093 98.3995 141.736 98.4824 141.521 98.6481C141.307 98.8139 141.2 99.008 141.2 99.2303C141.2 99.3718 141.244 99.4992 141.333 99.6124C141.422 99.7296 141.562 99.8266 141.752 99.9035C141.861 99.9439 142.182 100.037 142.716 100.182C143.488 100.389 144.026 100.558 144.329 100.692C144.636 100.821 144.877 101.011 145.051 101.262C145.225 101.513 145.311 101.824 145.311 102.196C145.311 102.56 145.204 102.903 144.99 103.227C144.78 103.546 144.475 103.795 144.074 103.973C143.674 104.146 143.221 104.233 142.716 104.233C141.879 104.233 141.24 104.06 140.8 103.712C140.363 103.364 140.084 102.849 139.963 102.165Z" fill="#B43F62"/>
<path d="M150.812 103.293C150.407 103.637 150.017 103.88 149.641 104.021C149.269 104.163 148.869 104.233 148.441 104.233C147.733 104.233 147.189 104.062 146.809 103.718C146.429 103.37 146.239 102.928 146.239 102.39C146.239 102.074 146.31 101.787 146.452 101.529C146.597 101.266 146.785 101.056 147.016 100.898C147.25 100.74 147.513 100.621 147.804 100.54C148.018 100.484 148.342 100.429 148.774 100.376C149.656 100.271 150.304 100.146 150.721 100C150.725 99.8509 150.727 99.7559 150.727 99.7155C150.727 99.2708 150.624 98.9574 150.418 98.7755C150.139 98.5289 149.724 98.4056 149.174 98.4056C148.661 98.4056 148.281 98.4965 148.034 98.6785C147.792 98.8564 147.612 99.1737 147.495 99.6306L146.427 99.485C146.524 99.0282 146.684 98.6603 146.906 98.3813C147.129 98.0983 147.45 97.882 147.871 97.7324C148.291 97.5788 148.778 97.502 149.332 97.502C149.882 97.502 150.329 97.5667 150.672 97.6961C151.016 97.8254 151.269 97.9892 151.43 98.1873C151.592 98.3813 151.705 98.6279 151.77 98.9271C151.806 99.1131 151.825 99.4486 151.825 99.9338V101.389C151.825 102.404 151.847 103.047 151.891 103.318C151.94 103.584 152.033 103.841 152.17 104.088H151.03C150.917 103.861 150.844 103.597 150.812 103.293ZM150.721 100.856C150.325 101.017 149.73 101.155 148.938 101.268C148.489 101.333 148.172 101.405 147.986 101.486C147.8 101.567 147.656 101.686 147.555 101.844C147.454 101.998 147.404 102.169 147.404 102.36C147.404 102.651 147.513 102.893 147.731 103.087C147.953 103.281 148.277 103.378 148.701 103.378C149.122 103.378 149.496 103.287 149.823 103.105C150.151 102.919 150.391 102.667 150.545 102.347C150.662 102.101 150.721 101.737 150.721 101.256V100.856Z" fill="#B43F62"/>
<path d="M153.523 104.088V97.6475H154.505V98.5632C154.978 97.8557 155.661 97.502 156.555 97.502C156.943 97.502 157.299 97.5727 157.622 97.7142C157.949 97.8517 158.194 98.0336 158.356 98.26C158.517 98.4864 158.631 98.7553 158.695 99.0666C158.736 99.2687 158.756 99.6225 158.756 100.128V104.088H157.664V100.17C157.664 99.7256 157.622 99.3941 157.537 99.1757C157.452 98.9534 157.301 98.7775 157.082 98.6481C156.868 98.5147 156.615 98.448 156.324 98.448C155.859 98.448 155.457 98.5956 155.117 98.8907C154.782 99.1859 154.614 99.7458 154.614 100.571V104.088H153.523Z" fill="#B43F62"/>
<path d="M160.442 96.4529V95.1976H161.533V96.4529H160.442ZM160.442 104.088V97.6475H161.533V104.088H160.442Z" fill="#B43F62"/>
<path d="M165.584 103.111L165.742 104.076C165.435 104.14 165.16 104.173 164.917 104.173C164.521 104.173 164.214 104.11 163.996 103.985C163.777 103.859 163.624 103.696 163.535 103.494C163.446 103.287 163.401 102.857 163.401 102.202V98.4965H162.601V97.6475H163.401V96.0526L164.487 95.3977V97.6475H165.584V98.4965H164.487V102.262C164.487 102.574 164.505 102.774 164.541 102.863C164.582 102.952 164.644 103.023 164.729 103.075C164.818 103.128 164.944 103.154 165.105 103.154C165.227 103.154 165.386 103.14 165.584 103.111Z" fill="#B43F62"/>
<path d="M170.86 103.293C170.456 103.637 170.066 103.88 169.69 104.021C169.318 104.163 168.918 104.233 168.489 104.233C167.782 104.233 167.238 104.062 166.858 103.718C166.478 103.37 166.288 102.928 166.288 102.39C166.288 102.074 166.359 101.787 166.5 101.529C166.646 101.266 166.834 101.056 167.064 100.898C167.299 100.74 167.561 100.621 167.852 100.54C168.067 100.484 168.39 100.429 168.823 100.376C169.704 100.271 170.353 100.146 170.769 100C170.773 99.8509 170.775 99.7559 170.775 99.7155C170.775 99.2708 170.672 98.9574 170.466 98.7755C170.187 98.5289 169.773 98.4056 169.223 98.4056C168.71 98.4056 168.329 98.4965 168.083 98.6785C167.84 98.8564 167.66 99.1737 167.543 99.6306L166.476 99.485C166.573 99.0282 166.733 98.6603 166.955 98.3813C167.177 98.0983 167.499 97.882 167.919 97.7324C168.34 97.5788 168.827 97.502 169.381 97.502C169.93 97.502 170.377 97.5667 170.721 97.6961C171.064 97.8254 171.317 97.9892 171.479 98.1873C171.641 98.3813 171.754 98.6279 171.818 98.9271C171.855 99.1131 171.873 99.4486 171.873 99.9338V101.389C171.873 102.404 171.895 103.047 171.94 103.318C171.988 103.584 172.081 103.841 172.219 104.088H171.079C170.965 103.861 170.893 103.597 170.86 103.293ZM170.769 100.856C170.373 101.017 169.779 101.155 168.986 101.268C168.538 101.333 168.22 101.405 168.034 101.486C167.848 101.567 167.705 101.686 167.604 101.844C167.503 101.998 167.452 102.169 167.452 102.36C167.452 102.651 167.561 102.893 167.78 103.087C168.002 103.281 168.325 103.378 168.75 103.378C169.17 103.378 169.544 103.287 169.872 103.105C170.199 102.919 170.44 102.667 170.594 102.347C170.711 102.101 170.769 101.737 170.769 101.256V100.856Z" fill="#B43F62"/>
<path d="M173.577 96.4529V95.1976H174.669V96.4529H173.577ZM173.577 104.088V97.6475H174.669V104.088H173.577Z" fill="#B43F62"/>
<path d="M176.324 104.088V97.6475H177.307V98.6239C177.557 98.167 177.788 97.8659 177.998 97.7203C178.212 97.5748 178.447 97.502 178.701 97.502C179.069 97.502 179.443 97.6192 179.823 97.8537L179.447 98.8665C179.181 98.7088 178.914 98.63 178.647 98.63C178.408 98.63 178.194 98.7027 178.004 98.8483C177.814 98.9898 177.679 99.1879 177.598 99.4426C177.476 99.8307 177.416 100.255 177.416 100.716V104.088H176.324Z" fill="#B43F62"/>
<path d="M184.881 102.014L186.009 102.153C185.831 102.812 185.502 103.324 185.02 103.688C184.539 104.051 183.925 104.233 183.177 104.233C182.235 104.233 181.487 103.944 180.933 103.366C180.383 102.784 180.108 101.969 180.108 100.922C180.108 99.8388 180.387 98.9979 180.945 98.3995C181.503 97.8012 182.227 97.502 183.116 97.502C183.977 97.502 184.681 97.7951 185.227 98.3813C185.772 98.9675 186.045 99.7923 186.045 100.856C186.045 100.92 186.043 101.017 186.039 101.147H181.236C181.277 101.854 181.477 102.396 181.837 102.772C182.197 103.148 182.645 103.336 183.183 103.336C183.583 103.336 183.925 103.231 184.208 103.021C184.491 102.81 184.715 102.475 184.881 102.014ZM181.297 100.249H184.893C184.845 99.7074 184.707 99.3011 184.481 99.0302C184.133 98.6097 183.682 98.3995 183.128 98.3995C182.627 98.3995 182.205 98.5673 181.861 98.9029C181.521 99.2384 181.333 99.6872 181.297 100.249Z" fill="#B43F62"/>
<path d="M186.949 102.165L188.028 101.996C188.089 102.428 188.257 102.76 188.532 102.99C188.811 103.221 189.199 103.336 189.696 103.336C190.197 103.336 190.569 103.235 190.812 103.033C191.054 102.826 191.176 102.586 191.176 102.311C191.176 102.064 191.069 101.87 190.854 101.729C190.705 101.632 190.333 101.508 189.739 101.359C188.938 101.157 188.382 100.983 188.071 100.837C187.764 100.688 187.529 100.484 187.367 100.225C187.21 99.9621 187.131 99.673 187.131 99.3577C187.131 99.0706 187.196 98.8058 187.325 98.5632C187.458 98.3166 187.638 98.1125 187.865 97.9508C188.034 97.8254 188.265 97.7203 188.556 97.6354C188.851 97.5465 189.166 97.502 189.502 97.502C190.007 97.502 190.45 97.5748 190.83 97.7203C191.214 97.8659 191.497 98.064 191.679 98.3146C191.861 98.5612 191.986 98.8927 192.055 99.3092L190.988 99.4547C190.939 99.1232 190.798 98.8644 190.563 98.6785C190.333 98.4925 190.005 98.3995 189.581 98.3995C189.08 98.3995 188.722 98.4824 188.507 98.6481C188.293 98.8139 188.186 99.008 188.186 99.2303C188.186 99.3718 188.231 99.4992 188.319 99.6124C188.408 99.7296 188.548 99.8266 188.738 99.9035C188.847 99.9439 189.168 100.037 189.702 100.182C190.474 100.389 191.012 100.558 191.315 100.692C191.622 100.821 191.863 101.011 192.037 101.262C192.211 101.513 192.298 101.824 192.298 102.196C192.298 102.56 192.191 102.903 191.976 103.227C191.766 103.546 191.461 103.795 191.061 103.973C190.66 104.146 190.207 104.233 189.702 104.233C188.865 104.233 188.226 104.06 187.786 103.712C187.349 103.364 187.07 102.849 186.949 102.165Z" fill="#B43F62"/>
</svg>
