<svg width="22" height="20" viewBox="0 0 22 20" fill="none" xmlns="http://www.w3.org/2000/svg">
<path d="M4.84612 20H0.568342V6.41785H4.84612V20ZM2.59112 4.72009H2.56056C2.233 4.74423 1.90392 4.70118 1.59399 4.59362C1.28405 4.48607 0.999953 4.31633 0.759516 4.09507C0.519079 3.87381 0.327498 3.6058 0.196798 3.30787C0.0660972 3.00993 -0.000900321 2.6885 9.13633e-06 2.36375C9.13633e-06 1.02245 1.03279 0.00741812 2.62168 0.00741812C2.9508 -0.018396 3.28176 0.0233297 3.5938 0.129977C3.90584 0.236624 4.19221 0.405889 4.43494 0.62715C4.67768 0.84841 4.87153 1.11689 5.00433 1.41573C5.13713 1.71458 5.20602 2.03734 5.20667 2.36375C5.20667 3.68088 4.19834 4.72009 2.59112 4.72009ZM22 20H17.1111V12.9733C17.1111 11.1607 16.3533 9.87985 14.6667 9.87985C14.1519 9.87981 13.6504 10.0404 13.2334 10.3388C12.8164 10.6371 12.5053 11.058 12.3444 11.5414C12.2422 11.9006 12.207 12.2753 12.2406 12.647V20H7.46167C7.46167 20 7.52278 7.55373 7.46167 6.42389H12.2772V8.5748C12.5644 7.64435 14.1106 6.31514 16.555 6.31514C19.6106 6.31514 22 8.26667 22 12.4718V20Z" fill="#171921"/>
</svg>
