<svg width="20" height="20" viewBox="0 0 20 20" fill="none" xmlns="http://www.w3.org/2000/svg">
<path fill-rule="evenodd" clip-rule="evenodd" d="M5 0H15C17.7614 0 20 2.23858 20 5V15C20 17.7614 17.7614 20 15 20H5C2.23858 20 0 17.7614 0 15V5C0 2.23858 2.23858 0 5 0ZM13.5505 11.8423C13.938 11.0955 14.0801 10.2455 13.9567 9.41327C13.8308 8.56434 13.4353 7.77842 12.8284 7.17158C12.2216 6.56473 11.4357 6.16915 10.5867 6.04327C9.75449 5.91986 8.90452 6.06201 8.15772 6.44951C7.41092 6.83701 6.80533 7.45012 6.42706 8.20164C6.0488 8.95316 5.91714 9.80482 6.05081 10.6355C6.18447 11.4661 6.57665 12.2335 7.17158 12.8284C7.7665 13.4233 8.53386 13.8155 9.36452 13.9492C10.1952 14.0829 11.0468 13.9512 11.7984 13.5729C12.5499 13.1947 13.163 12.5891 13.5505 11.8423ZM16 5C16.5523 5 17 4.55228 17 4C17 3.44772 16.5523 3 16 3C15.4477 3 15 3.44772 15 4C15 4.55228 15.4477 5 16 5Z" fill="#171921"/>
</svg>
