<svg width="24" height="20" viewBox="0 0 24 20" fill="#171921" xmlns="http://www.w3.org/2000/svg">
<path d="M24 2.3612C23.1015 2.76838 22.1488 3.03568 21.1733 3.15426C22.2001 2.52468 22.968 1.53304 23.3333 0.364872C22.3671 0.953259 21.3095 1.36719 20.2067 1.58865C19.5307 0.852457 18.6548 0.34124 17.6923 0.121135C16.7299 -0.0989712 15.7252 -0.017837 14.8082 0.35404C13.8912 0.725918 13.1042 1.37143 12.5489 2.20705C11.9935 3.04268 11.6955 4.02997 11.6933 5.0412C11.6919 5.42781 11.7344 5.81326 11.82 6.18978C9.86206 6.08915 7.94655 5.56795 6.1975 4.65993C4.44846 3.75191 2.90486 2.4773 1.66667 0.918647C1.03851 2.03092 0.846725 3.3467 1.13028 4.59873C1.41383 5.85076 2.15145 6.94516 3.19333 7.65968C2.41077 7.63473 1.64523 7.41913 0.96 7.0307V7.09223C0.960669 8.25842 1.35471 9.38846 2.07528 10.2907C2.79585 11.1928 3.79857 11.8116 4.91333 12.042C4.48997 12.162 4.05256 12.2218 3.61333 12.2198C3.29571 12.2219 2.97864 12.1921 2.66667 12.1309C2.97995 13.1351 3.59212 14.0134 4.41718 14.6425C5.24224 15.2715 6.23872 15.6197 7.26667 15.6382C5.20587 17.2861 2.59605 18.0375 0 17.7302C2.25115 19.2135 4.87087 20.0015 7.54667 20C16.6067 20 21.5467 12.3087 21.5467 5.64284C21.5467 5.42406 21.5467 5.20529 21.5467 4.95916C22.5081 4.24906 23.3388 3.36939 24 2.3612Z" fill="#171921"/>
</svg>
