<svg width="64" height="64" viewBox="0 0 64 64" fill="none" xmlns="http://www.w3.org/2000/svg">
<rect width="64" height="64" fill="#171921"/>
<path fill-rule="evenodd" clip-rule="evenodd" d="M50 9H14C13.4477 9 13 9.44772 13 10V54C13 54.5523 13.4477 55 14 55H50C50.5523 55 51 54.5523 51 54V10C51 9.44772 50.5523 9 50 9ZM14 8C12.8954 8 12 8.89543 12 10V54C12 55.1046 12.8954 56 14 56H50C51.1046 56 52 55.1046 52 54V10C52 8.89543 51.1046 8 50 8H14Z" fill="#4E515E"/>
<path fill-rule="evenodd" clip-rule="evenodd" d="M7 19C5.89543 19 5 19.8954 5 21V43C5 44.1046 5.89543 45 7 45H57C58.1046 45 59 44.1046 59 43V21C59 19.8954 58.1046 19 57 19H7Z" fill="#4E515E"/>
<path d="M14.3916 39V25.3994H23.7153V27.7002H17.1377V30.9194H22.8154V33.2202H17.1377V39H14.3916Z" fill="#171921"/>
<path d="M25.9976 25.3994H31.4341C32.5103 25.3994 33.3112 25.4458 33.8369 25.5386C34.3688 25.6252 34.842 25.8107 35.2563 26.0952C35.6769 26.3797 36.0264 26.7601 36.3047 27.2363C36.583 27.7064 36.7222 28.2352 36.7222 28.8228C36.7222 29.4598 36.549 30.0443 36.2026 30.5762C35.8625 31.1081 35.3986 31.507 34.811 31.7729C35.6398 32.0142 36.2769 32.4255 36.7222 33.0068C37.1675 33.5882 37.3901 34.2716 37.3901 35.0571C37.3901 35.6756 37.2448 36.2786 36.9541 36.8662C36.6696 37.4476 36.2769 37.9146 35.7759 38.2671C35.2811 38.6134 34.6688 38.8268 33.939 38.9072C33.4813 38.9567 32.3773 38.9876 30.627 39H25.9976V25.3994ZM28.7437 27.6631V30.8081H30.5435C31.6134 30.8081 32.2783 30.7926 32.5381 30.7617C33.0081 30.7061 33.3761 30.5452 33.6421 30.2793C33.9142 30.0072 34.0503 29.6515 34.0503 29.2124C34.0503 28.7918 33.9328 28.4517 33.6978 28.1919C33.4689 27.9259 33.1257 27.7651 32.668 27.7095C32.3958 27.6785 31.6134 27.6631 30.3208 27.6631H28.7437ZM28.7437 33.0718V36.7085H31.2856C32.2752 36.7085 32.903 36.6807 33.1689 36.625C33.5771 36.5508 33.908 36.3714 34.1616 36.0869C34.4214 35.7962 34.5513 35.4097 34.5513 34.9272C34.5513 34.519 34.4523 34.1727 34.2544 33.8882C34.0565 33.6037 33.7689 33.3965 33.3916 33.2666C33.0205 33.1367 32.2103 33.0718 30.9609 33.0718H28.7437Z" fill="#171921"/>
<path d="M38.3364 39L42.9844 31.9028L38.7725 25.3994H41.9824L44.71 29.769L47.3818 25.3994H50.564L46.3335 32.0049L50.9814 39H47.6694L44.6543 34.2964L41.6299 39H38.3364Z" fill="#171921"/>
</svg>
