<svg width="130" height="64" viewBox="0 0 130 64" fill="none" xmlns="http://www.w3.org/2000/svg">
<rect width="130" height="64" fill="#171921"/>
<path fill-rule="evenodd" clip-rule="evenodd" d="M84.5852 44.3688C77.9169 48.444 67.9197 50.7575 56.7706 50.7575C36.6812 50.7575 20.4067 42.363 20.4067 31.9947C20.4067 28.9429 21.8204 26.0606 24.3284 23.5129L29.2129 42.0977H32.6301L37.4375 25.0329L42.1813 42.0977H45.6091L51.5202 20.374H47.6679L43.8156 37.0355L39.1674 20.374H35.644L30.9958 37.0355L27.2906 21.0102C33.8976 16.2987 44.642 13.2319 56.7706 13.2319C67.962 13.2319 77.9909 15.5985 84.6592 19.6949C77.3885 12.8287 64.3267 8.01061 49.4049 8C26.536 8 8 18.7398 8 31.9947C8 45.2496 26.536 56 49.3943 56C64.2632 56 77.2829 51.1926 84.5852 44.3688ZM92.3105 41.7472C91.3594 42.1505 90.4083 42.3521 89.4466 42.3521C87.9249 42.3521 86.5511 42.0868 85.3358 41.5562C84.1205 41.0256 83.0954 40.2933 82.2605 39.3594C81.4257 38.4255 80.781 37.3325 80.3372 36.0696C79.8933 34.8067 79.6714 33.4483 79.6714 31.9944C79.6714 30.4981 79.8933 29.1185 80.3372 27.8344C80.781 26.5502 81.4151 25.4359 82.2499 24.4914C83.0848 23.5363 84.1099 22.7935 85.3252 22.2522C86.5405 21.711 87.9037 21.4351 89.4361 21.4351C90.4612 21.4351 91.444 21.5942 92.3951 21.902C93.3462 22.2098 94.2128 22.6661 94.9842 23.2604C95.7557 23.8547 96.3897 24.5976 96.8864 25.4784C97.3831 26.3592 97.6896 27.3674 97.8058 28.5029H93.6421C93.3779 27.3886 92.8812 26.5502 92.1415 25.9878C91.4017 25.4253 90.5034 25.1494 89.4361 25.1494C88.4533 25.1494 87.6184 25.3404 86.9315 25.7225C86.2446 26.1045 85.6845 26.6139 85.2618 27.2613C84.8391 27.9086 84.522 28.6409 84.3318 29.4581C84.1416 30.2752 84.0359 31.1242 84.0359 32.005C84.0359 32.8434 84.131 33.6606 84.3318 34.4565C84.522 35.2524 84.8391 35.9635 85.2618 36.6002C85.6845 37.237 86.2446 37.7464 86.9315 38.1284C87.6184 38.5105 88.4533 38.7015 89.4361 38.7015C90.8839 38.7015 92.0041 38.33 92.7967 37.5978C93.5892 36.8655 94.0437 35.8043 94.181 34.4034H89.7848V31.103H98.1229V41.8958H95.3435L94.8997 39.6354C94.1282 40.6435 93.2617 41.344 92.3105 41.7472ZM118.92 39.8688V39.2852H116.585V39.8688H117.434V41.8958H118.071V39.8688H118.92ZM121.467 39.9113V41.8958H122.104V39.2852H121.043L120.618 41.0256L120.194 39.2852H119.132V41.8958H119.769V39.9113L120.406 41.8958H120.936L121.467 39.9113ZM105.214 38.1817V21.9341H100.85V41.8854H114.905V38.1817H105.214ZM61.1352 29.5219C60.6045 28.7684 59.936 28.1953 59.1506 27.8027C58.3441 27.3994 57.4102 27.1978 56.3702 27.1978C55.2028 27.1978 54.1522 27.41 53.2395 27.8239C52.3799 28.2165 51.6477 28.8002 51.0534 29.5537C49.9603 30.9439 49.3872 32.9072 49.3872 35.2314C49.3872 36.2608 49.5358 37.2371 49.8223 38.1073C50.1089 38.9882 50.544 39.7629 51.0958 40.4102C52.2632 41.7686 53.9293 42.4903 55.9138 42.4903C56.9539 42.4903 57.8029 42.3841 58.5139 42.1613C59.1294 41.9703 59.5433 41.7155 59.8829 41.4927C60.318 41.2062 60.7107 40.8559 61.0715 40.4527C61.3686 40.1025 61.6339 39.7204 61.8674 39.3065C62.2707 38.5637 62.4723 37.8632 62.5148 37.5024L62.5466 37.2583H59.7131L59.7025 37.46C59.6282 38.3832 58.4184 40.0282 56.2641 40.0282C53.1865 40.0282 52.4542 37.7996 52.4011 35.8363H62.7164V35.6134C62.7164 34.3505 62.5891 33.1938 62.3344 32.1856C62.0478 31.135 61.6552 30.2435 61.1352 29.5219ZM56.0412 29.7447C58.3229 29.7447 59.5433 30.9758 59.7662 33.5015H52.3799C52.4967 31.4533 54.1203 29.7447 56.0412 29.7447ZM75.7697 29.2993C76.2898 29.9466 76.693 30.7213 76.9689 31.6022C77.2449 32.4724 77.3828 33.4275 77.3722 34.4145C77.3722 35.3271 77.2661 36.261 77.0645 37.11C76.831 38.097 76.4808 38.9778 76.0138 39.7207C75.4832 40.5697 74.804 41.2383 74.0081 41.7052C73.1166 42.2252 72.0554 42.4905 70.8774 42.4905C69.7843 42.4905 68.8398 42.2146 68.0757 41.6628C67.6725 41.3762 67.3647 41.0472 67.1312 40.7395V42.0873H64.4463V22.3481H67.2692V29.0127C67.7149 28.4821 68.2349 28.0576 68.8186 27.7605C69.519 27.389 70.315 27.198 71.1958 27.1874C72.1509 27.1874 73.0317 27.3784 73.8171 27.7499C74.5705 28.1107 75.2285 28.6307 75.7697 29.2993ZM73.5305 38.5639C74.1248 37.6513 74.4326 36.3565 74.4326 34.8071C74.4326 33.852 74.3689 32.6104 73.902 31.5916C73.3289 30.3499 72.2995 29.7556 70.7713 29.7556C69.3386 29.7556 68.3517 30.403 67.768 31.7508C67.3647 32.6846 67.1631 33.9157 67.1631 35.5076C67.1631 38.8399 69.137 40.0178 70.8244 40.0178C71.9917 40.0178 72.9044 39.5297 73.5305 38.5639Z" fill="#4E515E"/>
</svg>
