<svg width="64" height="64" viewBox="0 0 64 64" fill="none" xmlns="http://www.w3.org/2000/svg">
<rect width="64" height="64" fill="#171921"/>
<path fill-rule="evenodd" clip-rule="evenodd" d="M50 9H14C13.4477 9 13 9.44772 13 10V54C13 54.5523 13.4477 55 14 55H50C50.5523 55 51 54.5523 51 54V10C51 9.44772 50.5523 9 50 9ZM14 8C12.8954 8 12 8.89543 12 10V54C12 55.1046 12.8954 56 14 56H50C51.1046 56 52 55.1046 52 54V10C52 8.89543 51.1046 8 50 8H14Z" fill="#4E515E"/>
<path fill-rule="evenodd" clip-rule="evenodd" d="M7 19C5.89543 19 5 19.8954 5 21V43C5 44.1046 5.89543 45 7 45H57C58.1046 45 59 44.1046 59 43V21C59 19.8954 58.1046 19 57 19H7Z" fill="#4E515E"/>
<path d="M14.7344 34.5752L17.4062 34.3154C17.5671 35.2122 17.8918 35.8709 18.3804 36.2915C18.8752 36.7121 19.54 36.9224 20.375 36.9224C21.2594 36.9224 21.9243 36.7368 22.3696 36.3657C22.8211 35.9884 23.0469 35.5493 23.0469 35.0483C23.0469 34.7267 22.951 34.4546 22.7593 34.2319C22.5737 34.0031 22.2459 33.8052 21.7759 33.6382C21.4543 33.5269 20.7214 33.3289 19.5771 33.0444C18.1051 32.6795 17.0723 32.2311 16.4785 31.6992C15.6436 30.9508 15.2261 30.0386 15.2261 28.9624C15.2261 28.2697 15.4209 27.6234 15.8105 27.0234C16.2064 26.4173 16.7723 25.9565 17.5083 25.6411C18.2505 25.3257 19.1442 25.168 20.1895 25.168C21.8965 25.168 23.1799 25.5422 24.0396 26.2905C24.9054 27.0389 25.36 28.0378 25.4033 29.2871L22.6572 29.4077C22.5397 28.7088 22.2861 28.2078 21.8965 27.9048C21.513 27.5955 20.9347 27.4409 20.1616 27.4409C19.3638 27.4409 18.7391 27.6048 18.2876 27.9326C17.9969 28.1429 17.8516 28.4243 17.8516 28.7769C17.8516 29.0985 17.9876 29.3737 18.2598 29.6025C18.6061 29.8932 19.4473 30.1963 20.7832 30.5117C22.1191 30.8271 23.1056 31.1549 23.7427 31.4951C24.3859 31.8291 24.8869 32.2899 25.2456 32.8774C25.6105 33.4588 25.793 34.1794 25.793 35.0391C25.793 35.8184 25.5765 36.5482 25.1436 37.2285C24.7106 37.9089 24.0983 38.416 23.3066 38.75C22.515 39.0778 21.5285 39.2417 20.3472 39.2417C18.6278 39.2417 17.3073 38.8459 16.3857 38.0542C15.4642 37.2563 14.9137 36.0967 14.7344 34.5752Z" fill="#171921"/>
<path d="M31.1646 39.0005V27.7007H27.1289V25.3999H37.937V27.7007H33.9106V39.0005H31.1646Z" fill="#171921"/>
<path d="M39.7925 39.0005V25.5112H42.5386V36.709H49.3667V39.0005H39.7925Z" fill="#171921"/>
</svg>
