<svg width="64" height="64" viewBox="0 0 64 64" fill="none" xmlns="http://www.w3.org/2000/svg">
<rect width="64" height="64" fill="#171921"/>
<path fill-rule="evenodd" clip-rule="evenodd" d="M50 9H14C13.4477 9 13 9.44772 13 10V54C13 54.5523 13.4477 55 14 55H50C50.5523 55 51 54.5523 51 54V10C51 9.44772 50.5523 9 50 9ZM14 8C12.8954 8 12 8.89543 12 10V54C12 55.1046 12.8954 56 14 56H50C51.1046 56 52 55.1046 52 54V10C52 8.89543 51.1046 8 50 8H14Z" fill="#4E515E"/>
<path fill-rule="evenodd" clip-rule="evenodd" d="M7 19C5.89543 19 5 19.8954 5 21V43C5 44.1046 5.89543 45 7 45H57C58.1046 45 59 44.1046 59 43V21C59 19.8954 58.1046 19 57 19H7Z" fill="#4E515E"/>
<path d="M13.2783 32.2837C13.2783 30.8983 13.4855 29.7355 13.8999 28.7954C14.2091 28.1027 14.6297 27.4811 15.1616 26.9307C15.6997 26.3802 16.2873 25.972 16.9243 25.7061C17.7716 25.3473 18.7489 25.168 19.856 25.168C21.8599 25.168 23.4618 25.7896 24.6616 27.0327C25.8677 28.2759 26.4707 30.0046 26.4707 32.2188C26.4707 34.4144 25.8739 36.1338 24.6802 37.377C23.4865 38.6139 21.8908 39.2324 19.8931 39.2324C17.8706 39.2324 16.2625 38.617 15.0688 37.3862C13.8752 36.1493 13.2783 34.4484 13.2783 32.2837ZM16.1079 32.1909C16.1079 33.731 16.4635 34.8999 17.1748 35.6978C17.8861 36.4894 18.7891 36.8853 19.8838 36.8853C20.9785 36.8853 21.8753 36.4925 22.5742 35.707C23.2793 34.9154 23.6318 33.731 23.6318 32.1538C23.6318 30.5952 23.2886 29.4325 22.6021 28.6655C21.9217 27.8986 21.0156 27.5151 19.8838 27.5151C18.752 27.5151 17.8397 27.9048 17.147 28.6841C16.4543 29.4572 16.1079 30.6261 16.1079 32.1909Z" fill="#171921"/>
<path d="M28.6323 25.3999H34.0688C35.145 25.3999 35.946 25.4463 36.4717 25.5391C37.0036 25.6257 37.4767 25.8112 37.8911 26.0957C38.3117 26.3802 38.6611 26.7606 38.9395 27.2368C39.2178 27.7069 39.3569 28.2357 39.3569 28.8232C39.3569 29.4603 39.1838 30.0448 38.8374 30.5767C38.4972 31.1086 38.0334 31.5075 37.4458 31.7734C38.2746 32.0146 38.9116 32.4259 39.3569 33.0073C39.8022 33.5887 40.0249 34.2721 40.0249 35.0576C40.0249 35.6761 39.8796 36.2791 39.5889 36.8667C39.3044 37.4481 38.9116 37.915 38.4106 38.2676C37.9159 38.6139 37.3035 38.8273 36.5737 38.9077C36.116 38.9572 35.012 38.9881 33.2617 39.0005H28.6323V25.3999ZM31.3784 27.6636V30.8086H33.1782C34.2482 30.8086 34.9131 30.7931 35.1729 30.7622C35.6429 30.7065 36.0109 30.5457 36.2769 30.2798C36.549 30.0076 36.6851 29.652 36.6851 29.2129C36.6851 28.7923 36.5675 28.4521 36.3325 28.1924C36.1037 27.9264 35.7604 27.7656 35.3027 27.71C35.0306 27.679 34.2482 27.6636 32.9556 27.6636H31.3784ZM31.3784 33.0723V36.709H33.9204C34.91 36.709 35.5378 36.6812 35.8037 36.6255C36.2119 36.5513 36.5428 36.3719 36.7964 36.0874C37.0562 35.7967 37.186 35.4102 37.186 34.9277C37.186 34.5195 37.0871 34.1732 36.8892 33.8887C36.6912 33.6042 36.4036 33.397 36.0264 33.2671C35.6553 33.1372 34.8451 33.0723 33.5957 33.0723H31.3784Z" fill="#171921"/>
<path d="M47.2612 25.3999H49.998V34.0093C49.998 35.1349 49.8991 36.0008 49.7012 36.6069C49.4352 37.3986 48.9528 38.0356 48.2539 38.5181C47.555 38.9943 46.6335 39.2324 45.4893 39.2324C44.1471 39.2324 43.1143 38.8582 42.3906 38.1099C41.667 37.3553 41.3021 36.2513 41.2959 34.7979L43.8843 34.501C43.9152 35.2803 44.0296 35.8307 44.2275 36.1523C44.5244 36.641 44.9759 36.8853 45.582 36.8853C46.1943 36.8853 46.6273 36.7121 46.8809 36.3657C47.1344 36.0132 47.2612 35.2865 47.2612 34.1855V25.3999Z" fill="#171921"/>
</svg>
