<svg width="191" height="64" viewBox="0 0 191 64" fill="none" xmlns="http://www.w3.org/2000/svg">
<rect width="191" height="64" fill="#171921"/>
<rect x="8" y="8" width="100" height="48" rx="14" fill="#4E515E"/>
<path d="M162.448 32.0141C162.678 31.8391 162.736 31.6057 162.851 31.3723C164.867 27.434 166.912 23.5249 168.899 19.5574C169.101 19.149 169.331 18.9739 169.792 19.0031C170.685 19.0323 171.635 19.0323 172.557 19.0031C173.018 18.9739 173.133 19.149 173.133 19.5866C173.306 25.2461 173.507 30.8764 173.709 36.565C173.795 39.1614 173.882 41.7286 173.997 44.3249C174.026 44.9084 173.853 45.0251 173.335 44.9959C172.067 44.9667 170.742 44.9667 169.475 44.9959C169.072 44.9959 168.928 44.9376 168.899 44.5C168.842 40.3283 168.726 36.1566 168.842 31.9849C168.87 30.5846 169.014 29.1552 169.101 27.5507C168.064 29.8261 167.085 31.9266 165.933 33.9395C164.781 35.9524 163.686 37.9945 162.534 40.0366C162.477 40.0074 162.39 40.0074 162.39 39.9782C160.317 36.2733 158.07 32.6559 156.371 28.7468C156.313 28.6009 156.284 28.4842 156.169 28.3383C156.112 28.2508 156.112 28.0758 155.939 28.1341C155.766 28.1633 155.795 28.3383 155.852 28.4259C156.486 32.9476 156.054 37.4985 156.112 42.0203C156.112 42.8371 156.083 43.6831 156.083 44.5C156.083 44.8792 155.939 44.9959 155.593 44.9959C154.211 44.9667 152.886 44.9667 151.503 44.9959C151.071 44.9959 150.956 44.85 151.014 44.4416C151.244 38.2279 151.446 31.9849 151.647 25.7712C151.705 23.7874 151.82 21.8037 151.849 19.8199C151.849 19.1198 152.079 19.0031 152.684 19.0323C153.548 19.0906 154.441 19.0615 155.305 19.0323C155.795 19.0031 156.054 19.2073 156.256 19.6449C158.214 23.554 160.173 27.434 162.16 31.3431C162.189 31.5765 162.304 31.8099 162.448 32.0141Z" fill="#4E515E"/>
<path d="M128.708 31.4976C129.404 31.7017 130.013 31.8767 130.621 32.11C132.505 32.8099 133.635 34.2097 133.896 36.2219C134.07 37.5926 134.041 38.9341 133.693 40.2756C133.027 43.0752 131.027 44.2418 128.448 44.7084C127.23 44.9125 126.013 45 124.796 45C122.39 45 119.985 45 117.609 45C117.174 45 117 44.9417 117 44.4167C117 36.1345 117 27.823 117 19.5699C117 19.1325 117.145 19.0158 117.551 19.0158C120.565 19.0741 123.608 18.87 126.593 19.1616C127.491 19.2199 128.419 19.3949 129.288 19.6574C132.07 20.5323 133.374 22.6903 133.2 25.9274C133.113 29.0479 131.954 30.506 128.708 31.4976ZM122.246 37.3593C122.246 38.4383 122.275 39.5465 122.246 40.5964C122.246 41.0338 122.333 41.2088 122.825 41.1796C123.811 41.1505 124.825 41.1796 125.81 41.0338C127.665 40.8297 128.534 40.0423 128.824 38.1759C128.911 37.5634 128.882 36.9219 128.795 36.3094C128.505 34.6763 127.694 33.8889 126.013 33.6264C124.941 33.4515 123.898 33.4806 122.796 33.4806C122.39 33.4806 122.246 33.5681 122.246 34.0347C122.246 35.1721 122.246 36.2511 122.246 37.3593ZM122.246 26.3065C122.246 27.3272 122.246 28.3188 122.246 29.3395C122.246 29.6311 122.275 29.8061 122.651 29.7769C123.521 29.7478 124.419 29.7769 125.26 29.7186C126.767 29.5728 127.636 28.8729 127.926 27.6189C128.1 26.919 128.129 26.1899 128.071 25.4317C127.926 24.0318 127.375 23.3611 126.013 23.0403C124.912 22.807 123.724 22.8653 122.593 22.8362C122.188 22.8362 122.246 23.0986 122.246 23.3319C122.246 24.3526 122.246 25.3442 122.246 26.3065Z" fill="#4E515E"/>
<path d="M139 31.9126C139 27.861 139 23.8386 139 19.787C139 19.1457 139.198 19 139.89 19C141.341 19.0291 142.857 19.0291 144.308 19C144.802 19 145 19.0583 145 19.583C144.967 27.861 145 36.1682 145 44.4462C145 44.8834 144.835 45 144.374 45C142.791 44.9708 141.275 44.9708 139.692 45C139.132 45 139 44.8251 139 44.3587C139 40.1906 139 36.0516 139 31.9126Z" fill="#4E515E"/>
<path d="M182.091 20.1744C181.883 20.9279 181.674 21.6814 181.492 22.4349C181.414 22.7174 181.335 22.9686 180.997 22.9686C180.658 22.9686 180.606 22.7488 180.501 22.4663C180.319 21.7128 180.11 20.9279 179.798 20.1744C179.772 20.9279 179.719 21.7128 179.667 22.4663C179.667 22.7802 179.641 23 179.276 23C178.885 23 179.016 22.686 179.042 22.4035C179.068 21.493 179.12 20.5825 179.224 19.672C179.25 19.4209 179.172 19.0127 179.563 19.0441C179.902 19.0755 180.267 18.8557 180.423 19.5151C180.58 20.2372 180.814 20.8965 181.049 21.7128C181.283 20.8965 181.544 20.2058 181.674 19.4523C181.805 18.8243 182.169 19.0441 182.456 19.0127C182.873 18.9813 182.795 19.3267 182.795 19.6092C182.847 20.5511 182.925 21.5244 182.977 22.4349C182.977 22.6546 183.108 22.9372 182.743 22.9372C182.482 22.9372 182.352 22.8744 182.326 22.4977C182.3 21.6814 182.274 20.9279 182.195 20.1116C182.169 20.1744 182.143 20.1744 182.091 20.1744Z" fill="#4E515E"/>
<path d="M176.982 19.008C177.505 19.008 178.029 19.008 178.514 19.008C178.738 19.008 179 19.008 179 19.2954C179 19.5509 178.888 19.7425 178.552 19.6786C177.319 19.4551 177.468 20.1257 177.505 20.7645C177.543 21.3074 177.505 21.9142 177.505 22.489C177.505 22.7765 177.543 23 177.02 23C176.534 23 176.497 22.8084 176.497 22.521C176.497 21.8184 176.459 21.1158 176.497 20.3493C176.534 19.8703 176.459 19.5828 175.749 19.6467C175.45 19.6786 174.965 19.8383 175.002 19.3273C175.039 18.8164 175.525 19.0719 175.824 19.0399C176.198 18.976 176.571 19.008 176.982 19.008Z" fill="#4E515E"/>
<path d="M93.0772 36.0716C92.4128 30.6738 92.6242 25.2467 92.594 19.8489C92.594 19.207 92.6846 18.9735 93.4396 19.0027C94.7383 19.0611 96.0369 19.0319 97.3356 19.0027C97.9094 18.9735 98 19.1778 98 19.6738C98 27.9019 98 36.1008 98 44.3289C98 44.7958 97.9094 44.9708 97.3658 44.9708C96.1577 44.9416 94.9799 44.9416 93.7718 44.9708C93.349 44.9708 93.1376 44.8249 92.9564 44.4748C90.3591 39.1061 87.3691 33.9417 85.255 28.3396C85.1946 28.1645 85.1946 27.8727 84.8926 27.9311C84.651 27.9603 84.7416 28.2229 84.802 28.3687C85.255 30.5571 85.3154 32.7454 85.3758 34.9629C85.4362 38.0557 85.3758 41.1486 85.406 44.2414C85.406 44.8541 85.1946 45 84.6208 45C83.2919 44.9708 81.9027 44.9708 80.5738 45C80.1208 45 80 44.8541 80 44.4456C80 36.1592 80 27.8436 80 19.5571C80 19.1194 80.1812 19.0027 80.604 19.0027C81.9027 19.0319 83.2013 19.0319 84.5 19.0027C84.953 19.0027 85.1946 19.1778 85.3758 19.5571C88.0034 24.9258 91.0537 30.1486 93.0168 35.809C92.9866 35.8966 93.0168 35.9841 93.0772 36.0716Z" fill="#171921"/>
<path d="M18 32.4705C18 29.9411 18.1792 27.3823 18.9856 24.9706C20.2699 20.8529 22.8384 19 27.199 19C28.0353 19 28.9014 19 29.7377 19.1471C32.2465 19.5588 34.0086 20.8824 35.2033 23.0882C36.2486 25.0294 36.6668 27.147 36.846 29.2941C37.1148 32.7941 37.1148 36.294 36.159 39.7058C35.502 41.9705 34.4865 44.0587 32.1867 45.0293C29.1105 46.3528 25.9446 46.294 22.8982 45.0293C21.136 44.2646 20.0907 42.7646 19.3739 41.0587C18.2688 38.4411 18.0597 35.7058 18.0299 32.9411C18 32.7352 18 32.5882 18 32.4705ZM31.6193 31.7647C31.6193 31.3529 31.6491 30.9411 31.6193 30.5588C31.4699 28.6176 31.4102 26.6176 30.6038 24.7647C30.0065 23.3823 28.9611 22.6765 27.4081 22.6765C25.8848 22.6765 24.8395 23.4412 24.272 24.8235C24.063 25.3823 23.8838 25.9117 23.7942 26.5C23.167 29.8823 23.1968 33.2941 23.5851 36.7058C23.7344 37.9999 24.0032 39.3234 24.6902 40.4705C25.3174 41.5587 26.303 42.1175 27.6171 42.1175C28.9014 42.0881 29.7974 41.4999 30.3947 40.4117C30.6934 39.8528 30.9025 39.2352 31.0518 38.6176C31.6193 36.4117 31.6491 34.0882 31.6193 31.7647Z" fill="#171921"/>
<path d="M41 32.0064C41 27.9195 41 23.8033 41 19.7164C41 19.1618 41.1518 19.0158 41.7284 19.0158C44.642 19.0742 47.5252 18.8699 50.4388 19.1618C51.1672 19.2202 51.8956 19.3369 52.5936 19.5121C55.2948 20.1543 56.9336 21.7891 57.571 24.3872C58.0566 26.4015 58.1476 28.4449 57.7531 30.4592C57.0854 33.9915 54.9002 35.9765 50.8637 36.6771C49.589 36.9107 48.3143 37.0275 47.0396 37.0566C46.554 37.0566 46.3719 37.2318 46.4023 37.6989C46.4326 39.9175 46.4023 42.1361 46.4326 44.3255C46.4326 44.8218 46.3416 44.9969 45.7649 44.9969C44.4295 44.9677 43.1245 44.9677 41.7587 44.9969C41.1517 45.0261 41.0304 44.851 41.0304 44.2963C41 40.2094 41 36.0933 41 32.0064ZM46.3719 28.2114C46.3719 29.7294 46.3719 31.2766 46.3719 32.7946C46.3719 33.2325 46.463 33.4076 46.9789 33.3784C47.8591 33.32 48.7392 33.2324 49.589 32.9989C50.8333 32.6486 51.7135 31.9188 52.108 30.7219C52.715 28.8536 52.715 26.9561 52.1384 25.0586C51.7438 23.7742 50.7726 23.1611 49.4069 23.0444C48.6785 22.986 47.8894 23.0444 47.1307 22.986C46.5237 22.9568 46.3112 23.0735 46.3416 23.6866C46.4023 25.2338 46.3719 26.7518 46.3719 28.2114Z" fill="#171921"/>
<path d="M61 32.0293C61 27.9302 61 23.8311 61 19.7613C61 19.1464 61.1796 19 61.7783 19C66.2686 19.0293 70.8187 19.0293 75.309 19C75.8777 19 76.0873 19.0878 75.9675 19.7027C75.8178 20.6104 75.758 21.5473 75.758 22.5135C75.758 23.3041 75.4586 23.509 74.6803 23.4797C72.1658 23.4505 69.6213 23.4797 67.1068 23.4505C66.4781 23.4505 66.3284 23.6261 66.3284 24.2117C66.3584 25.6171 66.3584 27.0518 66.3284 28.4572C66.3284 28.955 66.4781 29.1014 66.987 29.0721C69.2321 29.0428 71.4174 29.0721 73.6625 29.0428C74.2612 29.0428 74.4408 29.2185 74.381 29.7455C74.351 30.5946 74.351 31.4437 74.381 32.2928C74.4109 32.8784 74.2912 33.0833 73.6027 33.0541C71.4174 33.0248 69.2022 33.0541 67.0469 33.0248C66.538 33.0248 66.3584 33.1126 66.3584 33.6689C66.3883 35.7477 66.3883 37.8559 66.3584 39.964C66.3584 40.4617 66.538 40.5788 67.0169 40.5788C69.741 40.5495 72.4352 40.5788 75.1593 40.5495C75.7879 40.5495 75.9376 40.7252 75.9376 41.3108C75.9077 42.3356 75.9077 43.3896 75.9376 44.4144C75.9376 44.795 75.9076 45 75.4287 45C70.8187 45 66.2386 44.9707 61.6286 45C61.0299 45 61.1197 44.7365 61.1197 44.3559C61 40.286 61 36.1577 61 32.0293Z" fill="#171921"/>
</svg>
