<svg width="149" height="64" viewBox="0 0 149 64" fill="none" xmlns="http://www.w3.org/2000/svg">
<rect width="149" height="64" fill="#171921"/>
<path d="M48.033 46.4619L39.388 31.9778L48.033 17.4938L52.2005 31.9778L48.033 46.4619ZM28.7925 45.0485L17.9305 34.3181H35.2205L43.8655 48.8021L28.7925 45.0485ZM28.7925 18.8629L43.8215 15.1093L35.1765 29.5933H17.8865L28.7925 18.8629ZM50.8705 8L31.2305 13.0783L28.3045 18.068L22.4085 18.0237L8 31.9778L22.4085 45.932L28.3045 45.8876L31.2305 50.8773L50.8705 56L56.146 36.9675L53.1755 32.0222L56.146 27.0763L50.8705 8ZM95.4695 22.0866C92.854 22.0866 91.0805 23.1902 89.7505 25.2217H89.662V22.6165H85.0515V41.7809H89.7505V30.918C89.7505 28.3129 91.391 26.5021 93.652 26.5021C95.78 26.5021 97.376 27.783 97.376 30.035V41.8253H102.075V29.284C102.119 25.0892 99.4595 22.0866 95.4695 22.0866ZM77.9135 33.7C77.9135 36.2613 76.4505 38.0273 74.0565 38.0273C71.8845 38.0273 70.51 36.7912 70.51 34.5392V22.6165H65.8105V35.4222C65.8105 39.617 68.2045 42.3552 72.505 42.3552C75.2095 42.3552 76.7165 41.3392 78.0025 39.5732H78.1355V41.8253H82.6575V22.6165H77.958V33.7H77.9135ZM104.602 22.6165H109.301V41.7809H104.602V22.6165ZM104.602 16.6551H109.301V20.4969H104.602V16.6551ZM135.946 22.6165L133.153 31.2712C132.532 33.0376 132.045 35.4665 132.045 35.4665H131.912C131.912 35.4665 131.291 33.0376 130.67 31.2712L127.522 22.6165H122.468L127.656 36.2613C128.764 39.1758 129.118 40.4119 129.118 41.4717C129.118 43.0614 128.276 44.0773 126.281 44.0773H124.464V48.0954H127.478C131.38 48.0954 132.754 46.55 134.217 42.3108L141 22.6603H135.946V22.6165ZM118.08 36.1727V26.0165H121.094V22.6603H118.08V16.6551H113.38V22.6165H110.72V25.9722H113.38V37.2325C113.38 40.8536 116.129 41.8253 118.611 41.8253C120.651 41.8253 121.183 41.7366 121.183 41.7366V38.0273H119.986C118.878 38.0717 118.08 37.5861 118.08 36.1727Z" fill="#4E515E"/>
</svg>
